<svg xmlns="http://www.w3.org/2000/svg" width="261.981" height="290.916" viewBox="0 0 261.981 290.916">
  <g id="Group_70750" data-name="Group 70750" transform="translate(-786.926 1507)">
    <path id="Path_64528" data-name="Path 64528" d="M925.2-1216.084l-.442-.256-123.271-71.168,1.326-.764,122.384-70.659.442.256,123.272,71.167-1.327.764ZM805.02-1287.508,925.2-1218.125l120.174-69.383L925.193-1356.89Z" fill="#a6d7ee"/>
    <g id="Group_70732" data-name="Group 70732">
      <path id="Path_64529" data-name="Path 64529" d="M922.975-1409.767l-84.207-48.617v97.231l84.207,48.616,84.207-48.616v-97.231Z" fill="#a6d7ee"/>
      <path id="Path_64530" data-name="Path 64530" d="M922.975-1312.537l-84.207-48.617v-97.231l84.207,48.617Z" fill="#a6d7ee"/>
      <path id="Path_64531" data-name="Path 64531" d="M1007.182-1361.154l-84.207,48.617v-97.231l84.207-48.617Z" fill="#75b3e1"/>
      <path id="Path_64532" data-name="Path 64532" d="M922.975-1409.768l-84.207-48.617,84.2-48.615,84.207,48.617Z" fill="#a6d7ee"/>
      <path id="Path_64533" data-name="Path 64533" d="M922.975-1409.767l-84.207-48.617v4.217l84.207,48.617,84.2-48.616,0-4.218Z" fill="#fff"/>
    </g>
    <g id="Group_70747" data-name="Group 70747">
      <g id="Group_70734" data-name="Group 70734">
        <g id="Group_70733" data-name="Group 70733">
          <path id="Path_64534" data-name="Path 64534" d="M939.466-1449.466a7.651,7.651,0,0,0-1.953-6.333,17.93,17.93,0,0,0-7.09-4.734,39.533,39.533,0,0,0-7.277-2.046,7.369,7.369,0,0,1-.135,1.72,22.946,22.946,0,0,1,4.208,2.442c3.566,2.717,5.622,5.625,5.927,8.764a7.329,7.329,0,0,1-1.242,4.781,9.737,9.737,0,0,1-1.381,1.624,37.221,37.221,0,0,0,5.02-.4l.008-.006a10.153,10.153,0,0,0,3.915-5.81" fill="#85b8e4"/>
        </g>
      </g>
      <g id="Group_70736" data-name="Group 70736">
        <g id="Group_70735" data-name="Group 70735">
          <path id="Path_64535" data-name="Path 64535" d="M899.62-1436.507a48.282,48.282,0,0,0,10.136.692,56.8,56.8,0,0,0,16.765-3.109c-.763-.084-1.521-.181-2.264-.3-.321-.053-.634-.116-.95-.177a31.04,31.04,0,0,1-4.528.988,38.536,38.536,0,0,1-8.84.167,43.655,43.655,0,0,1-8.123-1.591,30.62,30.62,0,0,1-6.668-2.783c-3.816-2.255-5.831-5.231-5.738-8.191a7.459,7.459,0,0,1,1.687-4.372q.41-.539.9-1.074c-.02-.024-.043-.048-.063-.072a9.45,9.45,0,0,1-1.906-4.163c-.01-.052-.015-.1-.027-.157a18.27,18.27,0,0,0-5.264,3.352,10.053,10.053,0,0,0-3.313,6.3,8.979,8.979,0,0,0,2.256,6.492,20.122,20.122,0,0,0,6.741,5.032,34.8,34.8,0,0,0,9.2,2.972" fill="#85b8e4"/>
        </g>
      </g>
      <g id="Group_70738" data-name="Group 70738">
        <g id="Group_70737" data-name="Group 70737">
          <path id="Path_64536" data-name="Path 64536" d="M899.819-1461.4c-.049-.424-.1-.849-.118-1.277-.007-.18-.007-.359-.009-.539a40.973,40.973,0,0,0-7.207,1.607c-.294.1-.583.2-.873.307.115.154.216.313.348.461a10.468,10.468,0,0,0,2.814,2.148c.249-.178.486-.36.753-.534a23.7,23.7,0,0,1,4.292-2.173" fill="#85b8e4"/>
        </g>
      </g>
      <g id="Group_70740" data-name="Group 70740">
        <g id="Group_70739" data-name="Group 70739">
          <path id="Path_64537" data-name="Path 64537" d="M901.446-1461.972c.382-.121.756-.251,1.156-.357a32.593,32.593,0,0,1,8.966-1.027,32.535,32.535,0,0,1,6.711.87,8.112,8.112,0,0,0,.408-.784c-2.366-.284-4.728-.453-7.094-.535a76.294,76.294,0,0,0-9.585.313l-.095.011q-.179.444-.315.9c-.059.2-.105.408-.152.612" fill="#85b8e4"/>
        </g>
      </g>
      <g id="Group_70742" data-name="Group 70742">
        <g id="Group_70741" data-name="Group 70741">
          <path id="Path_64538" data-name="Path 64538" d="M923.306-1439.4q.711-.211,1.391-.453-.68.242-1.39.453c.316.06.63.124.95.177.743.122,1.5.219,2.264.3h0a46.25,46.25,0,0,0,11.213-.13,36.462,36.462,0,0,0,12-3.7,22.426,22.426,0,0,0,7.69-6.344,13.055,13.055,0,0,0,2.775-7.436,13.911,13.911,0,0,0-2.08-7.4c-2.864-4.7-7.825-8.807-14.339-11.865a48.308,48.308,0,0,0-11.033-3.624,42.624,42.624,0,0,0-12.959-.595,31.613,31.613,0,0,0-11.656,3.541c-.117.065-.226.136-.341.2a21.259,21.259,0,0,1,2.545.575,21.088,21.088,0,0,0-2.546-.574,18.335,18.335,0,0,0-4.8,3.9c.229-.037.459-.071.691-.1-.232.033-.462.067-.691.1a13.89,13.89,0,0,0-1.669,2.381,13.556,13.556,0,0,0-1.628,6.777h0c0,.18,0,.359.009.538.017.429.07.854.117,1.278.433-.169.88-.328,1.337-.478q-.686.225-1.336.479a20.572,20.572,0,0,0,1.209,4.916c.272.059.545.115.819.162a9.766,9.766,0,0,1-.4-5.651h0c.047-.2.092-.409.153-.612.089-.3.2-.6.314-.9h0a15.108,15.108,0,0,1,3.776-5.278,27.8,27.8,0,0,1,5.125-3.74,22.578,22.578,0,0,0-4.855-.211q-.4.024-.784.06.387-.036.784-.06a22.513,22.513,0,0,1,4.855.211,31.847,31.847,0,0,1,3.323-1.636h0a36.618,36.618,0,0,1,7.292-2.218,40.191,40.191,0,0,1,10.464-.638,34.526,34.526,0,0,1,10.456,2.36,24.327,24.327,0,0,1,7.831,4.97,14.512,14.512,0,0,1,3.9,6.305,12.652,12.652,0,0,1,.02,6.488,14.41,14.41,0,0,1-3.187,5.927c-3.23,3.642-8.769,6.292-15.15,7.265-.07.01-.144.015-.215.026h0a36.908,36.908,0,0,1-5.021.4h0a41.259,41.259,0,0,1-4.667-.191,47.927,47.927,0,0,1-9.916-2.007,30.74,30.74,0,0,1-8.642-4.195,19.409,19.409,0,0,1-1.935-1.613c-.2,0-.4.009-.6,0-.325-.012-.647-.032-.968-.056a26.651,26.651,0,0,0,1.806,2.325,27.538,27.538,0,0,0,7.377,5.924A34.7,34.7,0,0,0,923.306-1439.4Zm3.479-1.32a14.659,14.659,0,0,0,3.331-2.153,14.651,14.651,0,0,1-3.33,2.153c-.422.2-.862.4-1.316.575Q926.151-1440.417,926.785-1440.724Z" fill="#85b8e4"/>
        </g>
      </g>
      <g id="Group_70744" data-name="Group 70744">
        <g id="Group_70743" data-name="Group 70743">
          <path id="Path_64539" data-name="Path 64539" d="M891.96-1460.84c-.133-.149-.233-.308-.347-.462-.21.077-.418.157-.625.238.207-.081.415-.161.625-.238a5.076,5.076,0,0,1-1.095-3.18,5.359,5.359,0,0,1,1.751-3.58,13.084,13.084,0,0,1,4.2-2.539,31.109,31.109,0,0,1,4.717-1.433c.6-.132,1.2-.242,1.806-.34a18.377,18.377,0,0,1,4.8-3.9c-.543-.087-1.094-.159-1.656-.2a21.332,21.332,0,0,0-7.79.791,12.8,12.8,0,0,0-5.486,3.158,9.963,9.963,0,0,0-2.366,4.047,17.507,17.507,0,0,0-.721,3.976,15.408,15.408,0,0,0,.231,3.846h0c.011.053.016.1.026.157a9.433,9.433,0,0,0,1.906,4.163c.02.024.044.047.063.072a17.924,17.924,0,0,1,2.78-2.431A10.5,10.5,0,0,1,891.96-1460.84Z" fill="#85b8e4"/>
        </g>
      </g>
      <g id="Group_70746" data-name="Group 70746">
        <g id="Group_70745" data-name="Group 70745">
          <path id="Path_64540" data-name="Path 64540" d="M896.988-1452.8a23.538,23.538,0,0,0,6.809,1.495h0c.322.025.644.045.967.057.2.008.4,0,.6,0h0a25.32,25.32,0,0,0,7.487-.982,19.635,19.635,0,0,0,6.17-2.991,10.573,10.573,0,0,0,3.494-4.024,6.715,6.715,0,0,0,.5-1.608h0a7.21,7.21,0,0,0,.134-1.72h0a8.523,8.523,0,0,0-.117-1.037,11.8,11.8,0,0,0-1.709-4.1,17.114,17.114,0,0,0-3.214-3.679,21.4,21.4,0,0,0-3.969-2.745,31.847,31.847,0,0,0-3.323,1.636c.15.025.3.038.448.067a12.9,12.9,0,0,1,4.918,1.913,7.1,7.1,0,0,1,2.705,3.229,5.138,5.138,0,0,1,.006,3.557c-.057.157-.135.309-.2.463h0a7.793,7.793,0,0,1-.408.784h0a11.7,11.7,0,0,1-1.432,1.909,13.689,13.689,0,0,1-3.166,2.507,17.715,17.715,0,0,1-8.621,2.036,18.915,18.915,0,0,1-3.213-.287h0c-.274-.047-.547-.1-.819-.162.083.223.162.447.247.67-.086-.223-.164-.447-.247-.67-.177-.039-.353-.07-.529-.113a25.3,25.3,0,0,1-4.61-1.538c-.378-.172-.752-.359-1.114-.558a17.97,17.97,0,0,0-2.78,2.431A12.255,12.255,0,0,0,896.988-1452.8Zm24.127-10.133c.566.088,1.133.189,1.7.3-.566-.107-1.133-.208-1.7-.3s-1.108-.163-1.661-.235C920.007-1463.1,920.56-1463.022,921.115-1462.936Zm-.954.971c-.4-.127-.811-.246-1.227-.356Q919.56-1462.156,920.161-1461.965Zm-18.088,6.227c-.037-.085-.07-.171-.1-.257.033.086.067.172.1.257a13.669,13.669,0,0,0,2.253,3.414A13.656,13.656,0,0,1,902.073-1455.738Z" fill="#85b8e4"/>
        </g>
      </g>
    </g>
    <g id="Group_70749" data-name="Group 70749">
      <path id="Path_64541" data-name="Path 64541" d="M950.075-1346.918v68.059c0,7.022-4.933,9.868-11.026,6.351l-59.013-34.069c-6.088-3.517-11.028-12.057-11.028-19.081v-14.752c0-2.792,1.958-3.919,4.387-2.528a8.253,8.253,0,0,1,2.279,2.189,30.424,30.424,0,0,0,9.154,8.64c8.839,5.1,16,.971,16-9.21s-7.157-22.59-15.985-27.678c-3.419-1.977-6.561-2.54-9.165-1.934a3.324,3.324,0,0,1-2.279-.464,9.638,9.638,0,0,1-4.387-7.569v-14.769c0-7.015,4.94-9.86,11.028-6.354l12.792,7.389c2.424,1.4,4.38.265,4.38-2.519a7.99,7.99,0,0,0-.754-3.068,30.492,30.492,0,0,1-2.9-12.249c.009-10.181,7.166-14.3,15.995-9.2s15.988,17.486,15.994,27.677c0,3.938-1.085,6.94-2.909,8.887a3.306,3.306,0,0,0-.755,2.2,9.716,9.716,0,0,0,4.387,7.579l12.786,7.378C945.142-1362.5,950.075-1353.94,950.075-1346.918Z" fill="#455094"/>
      <path id="Path_64542" data-name="Path 64542" d="M871.735-1319.6l-1.991-1.145a18.869,18.869,0,0,1-.736-4.909v-14.752c0-2.792,1.958-3.919,4.387-2.528a8.253,8.253,0,0,1,2.279,2.189,32.754,32.754,0,0,0,7.1,7.266v7.527C882.772-1318.933,877.839-1316.088,871.735-1319.6Zm-2.727-74.129v14.769a9.638,9.638,0,0,0,4.387,7.569,3.324,3.324,0,0,0,2.279.464c2.6-.606,5.746-.043,9.165,1.934,8.828,5.088,15.985,17.488,15.985,27.678,0,3.755-.988,6.672-2.665,8.621.152.091.292.209.441.3,8.832,5.095,15.989.972,15.989-9.218s-7.157-22.571-15.989-27.68c-3.406-1.964-6.567-2.535-9.153-1.932a3.277,3.277,0,0,1-2.289-.464,9.681,9.681,0,0,1-4.386-7.579v-14.741a18.828,18.828,0,0,0-.739-4.918l-2-1.154C873.948-1403.593,869.008-1400.748,869.008-1393.733Z" fill="#455094"/>
      <g id="Group_70748" data-name="Group 70748">
        <path id="Path_64543" data-name="Path 64543" d="M868-1324.593v-14.749c0-2.784,1.966-3.923,4.378-2.529a8.018,8.018,0,0,1,2.3,2.187,30.544,30.544,0,0,0,9.155,8.648c8.831,5.091,15.985.97,15.985-9.22s-7.154-22.569-15.985-27.67c-3.408-1.972-6.569-2.538-9.155-1.939a3.308,3.308,0,0,1-2.288-.464,9.659,9.659,0,0,1-4.379-7.579L868-1392.651c.007-7.024-4.933-15.581-11.028-19.1l-12.795-7.385c-2.414-1.394-4.388-.255-4.378,2.53a8.028,8.028,0,0,0,.754,3.066,30.658,30.658,0,0,1,2.913,12.241c-.009,10.181-7.166,14.311-16.005,9.21s-16-17.495-16-27.686c0-3.932,1.087-6.925,2.9-8.872a3.208,3.208,0,0,0,.755-2.2,9.638,9.638,0,0,0-4.377-7.6l-12.788-7.378c-6.1-3.517-11.03-.663-11.03,6.359v68.06c0,7.022,4.931,15.57,11.03,19.087l59.015,34.073C863.066-1314.725,868-1317.569,868-1324.593Z" fill="#85b8e4"/>
      </g>
    </g>
  </g>
</svg>
