<svg xmlns="http://www.w3.org/2000/svg" width="409.592" height="324.537" viewBox="0 0 409.592 324.537">
  <g id="Group_70779" data-name="Group 70779" transform="translate(-1158.679 1547.537)">
    <g id="Group_70754" data-name="Group 70754">
      <g id="Group_70751" data-name="Group 70751">
        <rect id="Rectangle_25453" data-name="Rectangle 25453" width="2.6" height="5.2" transform="translate(1360.985 -1493.869)" fill="#a6d7ee"/>
      </g>
      <g id="Group_70752" data-name="Group 70752">
        <path id="Path_64544" data-name="Path 64544" d="M1363.585-1288.329h-2.6v-10.017h2.6Zm0-20.034h-2.6v-10.017h2.6Zm0-20.034h-2.6v-10.017h2.6Zm0-20.034h-2.6v-10.017h2.6Zm0-20.034h-2.6v-10.017h2.6Zm0-20.034h-2.6v-10.017h2.6Zm0-20.034h-2.6v-10.017h2.6Zm0-20.034h-2.6v-10.017h2.6Zm0-20.034h-2.6v-10.017h2.6Zm0-20.034h-2.6v-10.017h2.6Z" fill="#a6d7ee"/>
      </g>
      <g id="Group_70753" data-name="Group 70753">
        <rect id="Rectangle_25454" data-name="Rectangle 25454" width="2.6" height="5.2" transform="translate(1360.985 -1278.312)" fill="#a6d7ee"/>
      </g>
    </g>
    <g id="Group_70758" data-name="Group 70758">
      <g id="Group_70755" data-name="Group 70755">
        <rect id="Rectangle_25455" data-name="Rectangle 25455" width="5.2" height="2.6" transform="translate(1169.979 -1387.239)" fill="#a6d7ee"/>
      </g>
      <g id="Group_70756" data-name="Group 70756">
        <path id="Path_64545" data-name="Path 64545" d="M1539.591-1384.639h-10.123v-2.6h10.123Zm-20.245,0h-10.122v-2.6h10.122Zm-20.245,0h-10.122v-2.6H1499.1Zm-20.245,0h-10.123v-2.6h10.123Zm-20.245,0h-10.123v-2.6h10.123Zm-20.246,0h-10.122v-2.6h10.122Zm-20.245,0H1408v-2.6h10.123Zm-20.245,0h-10.123v-2.6h10.123Zm-20.244,0h-10.123v-2.6h10.123Zm-20.246,0h-10.122v-2.6h10.122Zm-20.245,0h-10.123v-2.6h10.123Zm-20.245,0h-10.123v-2.6H1316.9Zm-20.246,0h-10.123v-2.6h10.123Zm-20.245,0h-10.123v-2.6H1276.4Zm-20.246,0h-10.121v-2.6h10.121Zm-20.244,0h-10.122v-2.6h10.122Zm-20.245,0h-10.123v-2.6h10.123Zm-20.245,0H1185.3v-2.6h10.123Z" fill="#a6d7ee"/>
      </g>
      <g id="Group_70757" data-name="Group 70757">
        <rect id="Rectangle_25456" data-name="Rectangle 25456" width="5.2" height="2.6" transform="translate(1549.715 -1387.239)" fill="#a6d7ee"/>
      </g>
    </g>
    <path id="Path_64546" data-name="Path 64546" d="M1362.449-1272.414l-.695-.4-193.861-111.921,2.085-1.2,192.466-111.123.7.4L1557-1384.738l-2.086,1.2Zm-188.995-112.324,188.995,109.115,188.99-109.115-188.995-109.113Z" fill="#a6d7ee"/>
    <g id="Group_70759" data-name="Group 70759">
      <path id="Path_64547" data-name="Path 64547" d="M1193.09-1385.061l-34.41-19.867v39.733l34.41,19.867,34.41-19.867v-39.733Z" fill="#a6d7ee"/>
      <path id="Path_64548" data-name="Path 64548" d="M1193.09-1345.328l-34.41-19.867v-39.733l34.41,19.867Z" fill="#a6d7ee"/>
      <path id="Path_64549" data-name="Path 64549" d="M1227.5-1365.2l-34.411,19.867v-39.733l34.411-19.867Z" fill="#75b3e1"/>
      <path id="Path_64550" data-name="Path 64550" d="M1193.09-1385.061l-34.41-19.867,34.41-19.866,34.41,19.867Z" fill="#7287ed"/>
      <path id="Path_64551" data-name="Path 64551" d="M1193.09-1385.061l-34.41-19.867v1.723l34.41,19.867,34.41-19.866v-1.724Z" fill="#fff"/>
    </g>
    <g id="Group_70760" data-name="Group 70760">
      <path id="Path_64552" data-name="Path 64552" d="M1533.861-1385.918l-34.41-19.867v39.733l34.41,19.867,34.41-19.867v-39.733Z" fill="#a6d7ee"/>
      <path id="Path_64553" data-name="Path 64553" d="M1533.861-1346.186l-34.41-19.867v-39.733l34.41,19.867Z" fill="#a6d7ee"/>
      <path id="Path_64554" data-name="Path 64554" d="M1568.272-1366.053l-34.411,19.867v-39.733l34.411-19.867Z" fill="#75b3e1"/>
      <path id="Path_64555" data-name="Path 64555" d="M1533.861-1385.919l-34.41-19.867,34.41-19.866,34.41,19.867Z" fill="#7287ed"/>
      <path id="Path_64556" data-name="Path 64556" d="M1533.861-1385.918l-34.41-19.867v1.723l34.41,19.867,34.41-19.866v-1.724Z" fill="#fff"/>
    </g>
    <g id="Group_70761" data-name="Group 70761">
      <path id="Path_64557" data-name="Path 64557" d="M1363.777-1507.8l-34.41-19.867v39.733l34.41,19.867,34.41-19.867v-39.733Z" fill="#a6d7ee"/>
      <path id="Path_64558" data-name="Path 64558" d="M1363.777-1468.071l-34.41-19.867v-39.733l34.41,19.867Z" fill="#a6d7ee"/>
      <path id="Path_64559" data-name="Path 64559" d="M1398.187-1487.938l-34.411,19.867V-1507.8l34.411-19.867Z" fill="#75b3e1"/>
      <path id="Path_64560" data-name="Path 64560" d="M1363.777-1507.8l-34.41-19.867,34.41-19.866,34.41,19.867Z" fill="#7287ed"/>
      <path id="Path_64561" data-name="Path 64561" d="M1363.777-1507.8l-34.41-19.867v1.723l34.41,19.867,34.41-19.866v-1.724Z" fill="#fff"/>
    </g>
    <g id="Group_70762" data-name="Group 70762">
      <path id="Path_64562" data-name="Path 64562" d="M1362.482-1385.385l-43.189-24.936v49.869l43.189,24.935,43.189-24.935v-49.869Z" fill="#a6d7ee"/>
      <path id="Path_64563" data-name="Path 64563" d="M1362.482-1335.516l-43.189-24.935v-49.869l43.189,24.935Z" fill="#a6d7ee"/>
      <path id="Path_64564" data-name="Path 64564" d="M1405.671-1360.451l-43.189,24.935v-49.869l43.189-24.935Z" fill="#75b3e1"/>
      <path id="Path_64565" data-name="Path 64565" d="M1362.482-1385.385l-43.189-24.935,43.188-24.934,43.189,24.935Z" fill="#7287ed"/>
      <path id="Path_64566" data-name="Path 64566" d="M1362.482-1385.385l-43.189-24.936v2.163l43.189,24.936,43.188-24.935v-2.164Z" fill="#fff"/>
    </g>
    <g id="Group_70763" data-name="Group 70763">
      <path id="Path_64567" data-name="Path 64567" d="M1363.777-1262.732l-34.41-19.867v39.733l34.41,19.867,34.41-19.867V-1282.6Z" fill="#a6d7ee"/>
      <path id="Path_64568" data-name="Path 64568" d="M1363.777-1223l-34.41-19.867V-1282.6l34.41,19.867Z" fill="#a6d7ee"/>
      <path id="Path_64569" data-name="Path 64569" d="M1398.187-1242.867,1363.777-1223v-39.733l34.411-19.867Z" fill="#75b3e1"/>
      <path id="Path_64570" data-name="Path 64570" d="M1363.777-1262.733l-34.41-19.867,34.41-19.866,34.41,19.867Z" fill="#7287ed"/>
      <path id="Path_64571" data-name="Path 64571" d="M1363.777-1262.732l-34.41-19.867v1.723l34.41,19.867,34.41-19.866v-1.724Z" fill="#fff"/>
    </g>
    <g id="Group_70778" data-name="Group 70778">
      <g id="Group_70765" data-name="Group 70765">
        <g id="Group_70764" data-name="Group 70764">
          <path id="Path_64572" data-name="Path 64572" d="M1371.362-1405.939a3.707,3.707,0,0,0-.946-3.069,8.682,8.682,0,0,0-3.435-2.293,19.185,19.185,0,0,0-3.526-.992,3.621,3.621,0,0,1-.065.834,11.117,11.117,0,0,1,2.039,1.183c1.727,1.316,2.724,2.725,2.872,4.246a3.552,3.552,0,0,1-.6,2.317,4.7,4.7,0,0,1-.669.787,18.06,18.06,0,0,0,2.433-.195l0,0a4.91,4.91,0,0,0,1.9-2.815" fill="#dbeff8"/>
        </g>
      </g>
      <g id="Group_70767" data-name="Group 70767">
        <g id="Group_70766" data-name="Group 70766">
          <path id="Path_64573" data-name="Path 64573" d="M1352.056-1399.66a23.4,23.4,0,0,0,4.912.335,27.515,27.515,0,0,0,8.122-1.506c-.369-.041-.736-.088-1.1-.147-.156-.026-.308-.057-.461-.086a15.054,15.054,0,0,1-2.194.478,18.669,18.669,0,0,1-4.283.081,21.108,21.108,0,0,1-3.936-.771,14.776,14.776,0,0,1-3.23-1.348c-1.849-1.093-2.826-2.534-2.781-3.969a3.608,3.608,0,0,1,.818-2.118q.2-.261.435-.521l-.031-.034a4.574,4.574,0,0,1-.923-2.017c-.005-.026-.008-.051-.013-.076a8.835,8.835,0,0,0-2.551,1.624,4.871,4.871,0,0,0-1.6,3.051,4.355,4.355,0,0,0,1.093,3.146,9.746,9.746,0,0,0,3.266,2.438,16.891,16.891,0,0,0,4.458,1.44" fill="#dbeff8"/>
        </g>
      </g>
      <g id="Group_70769" data-name="Group 70769">
        <g id="Group_70768" data-name="Group 70768">
          <path id="Path_64574" data-name="Path 64574" d="M1352.153-1411.721c-.024-.206-.049-.412-.057-.619,0-.087,0-.174-.005-.261a19.89,19.89,0,0,0-3.492.778c-.142.047-.282.1-.423.149.056.075.1.152.169.224a5.092,5.092,0,0,0,1.364,1.04c.12-.086.235-.174.364-.258a11.443,11.443,0,0,1,2.08-1.053" fill="#dbeff8"/>
        </g>
      </g>
      <g id="Group_70771" data-name="Group 70771">
        <g id="Group_70770" data-name="Group 70770">
          <path id="Path_64575" data-name="Path 64575" d="M1352.941-1412c.185-.059.366-.122.56-.174a15.811,15.811,0,0,1,4.344-.5,15.839,15.839,0,0,1,3.252.421,3.818,3.818,0,0,0,.2-.379c-1.147-.138-2.291-.22-3.438-.26a36.906,36.906,0,0,0-4.644.152l-.046.005c-.057.144-.108.289-.152.435-.029.1-.051.2-.074.3" fill="#dbeff8"/>
        </g>
      </g>
      <g id="Group_70773" data-name="Group 70773">
        <g id="Group_70772" data-name="Group 70772">
          <path id="Path_64576" data-name="Path 64576" d="M1363.533-1401.064c.229-.068.454-.141.673-.22-.219.079-.444.152-.673.22.153.029.305.06.46.086.361.059.728.106,1.1.147h0a22.4,22.4,0,0,0,5.433-.063,17.7,17.7,0,0,0,5.813-1.791,10.856,10.856,0,0,0,3.725-3.074,6.322,6.322,0,0,0,1.345-3.6,6.747,6.747,0,0,0-1.008-3.585,15.83,15.83,0,0,0-6.947-5.748,23.431,23.431,0,0,0-5.346-1.757,20.674,20.674,0,0,0-6.279-.288,15.32,15.32,0,0,0-5.647,1.716c-.057.031-.11.066-.166.1a10.341,10.341,0,0,1,1.234.278,10.341,10.341,0,0,0-1.234-.278,8.888,8.888,0,0,0-2.326,1.888c.112-.018.223-.035.335-.051-.112.016-.223.033-.334.051a6.727,6.727,0,0,0-.809,1.153,6.567,6.567,0,0,0-.789,3.284h0c0,.087,0,.174,0,.261.009.207.034.413.057.619q.315-.123.648-.232c-.221.073-.438.15-.647.232a9.975,9.975,0,0,0,.585,2.382c.132.028.264.056.4.078a4.726,4.726,0,0,1-.194-2.737h0c.023-.1.044-.2.074-.3.043-.147.095-.291.152-.435h0a7.326,7.326,0,0,1,1.83-2.557,13.5,13.5,0,0,1,2.483-1.812,10.914,10.914,0,0,0-2.352-.1c-.129.008-.255.017-.38.029.125-.012.251-.021.379-.029a10.921,10.921,0,0,1,2.353.1,15.532,15.532,0,0,1,1.61-.793h0a17.77,17.77,0,0,1,3.533-1.075,19.5,19.5,0,0,1,5.07-.309,16.761,16.761,0,0,1,5.066,1.144,11.8,11.8,0,0,1,3.795,2.408,7.043,7.043,0,0,1,1.887,3.055,6.128,6.128,0,0,1,.01,3.144,6.984,6.984,0,0,1-1.545,2.871,12.37,12.37,0,0,1-7.34,3.52c-.034.005-.07.007-.1.013h0a18.06,18.06,0,0,1-2.433.195h0a19.916,19.916,0,0,1-2.261-.093,23.167,23.167,0,0,1-4.8-.973,14.887,14.887,0,0,1-4.187-2.032,9.325,9.325,0,0,1-.937-.781c-.1,0-.194,0-.29,0-.157-.006-.313-.016-.469-.028a13.073,13.073,0,0,0,.875,1.127,13.316,13.316,0,0,0,3.575,2.87A16.78,16.78,0,0,0,1363.533-1401.064Zm1.685-.639a7.089,7.089,0,0,0,1.614-1.044,7.1,7.1,0,0,1-1.613,1.044c-.2.1-.418.191-.638.278C1364.8-1401.512,1365.014-1401.6,1365.218-1401.7Z" fill="#dbeff8"/>
        </g>
      </g>
      <g id="Group_70775" data-name="Group 70775">
        <g id="Group_70774" data-name="Group 70774">
          <path id="Path_64577" data-name="Path 64577" d="M1348.345-1411.45c-.064-.072-.113-.149-.168-.224-.1.037-.2.076-.3.116.1-.04.2-.079.3-.116a2.455,2.455,0,0,1-.531-1.541,2.6,2.6,0,0,1,.849-1.734,6.323,6.323,0,0,1,2.033-1.23,15.023,15.023,0,0,1,2.286-.7c.29-.064.581-.117.875-.165a8.883,8.883,0,0,1,2.325-1.887c-.263-.042-.53-.077-.8-.1a10.336,10.336,0,0,0-3.775.383,6.211,6.211,0,0,0-2.658,1.53,4.83,4.83,0,0,0-1.146,1.961,8.483,8.483,0,0,0-.35,1.926,7.468,7.468,0,0,0,.112,1.864h0c.005.026.008.051.013.077a4.566,4.566,0,0,0,.924,2.017l.03.034a8.675,8.675,0,0,1,1.347-1.177A5.114,5.114,0,0,1,1348.345-1411.45Z" fill="#dbeff8"/>
        </g>
      </g>
      <g id="Group_70777" data-name="Group 70777">
        <g id="Group_70776" data-name="Group 70776">
          <path id="Path_64578" data-name="Path 64578" d="M1350.781-1407.556a11.389,11.389,0,0,0,3.3.724h0c.156.012.312.022.469.028.1,0,.193,0,.289,0h0a12.271,12.271,0,0,0,3.627-.476,9.523,9.523,0,0,0,2.99-1.449,5.128,5.128,0,0,0,1.692-1.95,3.224,3.224,0,0,0,.242-.779h0a3.516,3.516,0,0,0,.065-.834h0a4.162,4.162,0,0,0-.057-.5,5.7,5.7,0,0,0-.828-1.984,8.319,8.319,0,0,0-1.557-1.783,10.371,10.371,0,0,0-1.923-1.33,15.532,15.532,0,0,0-1.61.793c.073.012.145.018.217.033a6.245,6.245,0,0,1,2.383.926,3.438,3.438,0,0,1,1.311,1.565,2.5,2.5,0,0,1,0,1.723c-.028.076-.066.15-.1.225h0a3.929,3.929,0,0,1-.2.379h0a5.63,5.63,0,0,1-.694.925,6.62,6.62,0,0,1-1.534,1.215,8.571,8.571,0,0,1-4.177.986,9.043,9.043,0,0,1-1.557-.139h0c-.132-.022-.265-.05-.4-.078.04.108.078.217.119.325-.041-.108-.079-.217-.12-.325-.085-.019-.17-.034-.256-.055a12.269,12.269,0,0,1-2.234-.745c-.183-.083-.364-.174-.539-.27a8.675,8.675,0,0,0-1.347,1.177A5.938,5.938,0,0,0,1350.781-1407.556Zm11.69-4.91c.274.043.549.092.823.144-.274-.052-.549-.1-.823-.144s-.537-.078-.8-.113C1361.934-1412.544,1362.2-1412.507,1362.471-1412.466Zm-.462.471q-.293-.093-.6-.172C1361.616-1412.114,1361.815-1412.057,1362.009-1411.995Zm-8.764,3.017c-.018-.041-.034-.083-.05-.124.016.041.032.083.05.124a6.61,6.61,0,0,0,1.092,1.654A6.61,6.61,0,0,1,1353.245-1408.978Z" fill="#dbeff8"/>
        </g>
      </g>
    </g>
  </g>
</svg>