<svg xmlns="http://www.w3.org/2000/svg" width="309.275" height="290.77" viewBox="0 0 309.275 290.77">
  <g id="Group_70817" data-name="Group 70817" transform="translate(-2196.093 1515.564)">
    <path id="Path_64594" data-name="Path 64594" d="M2381.658-1224.794l-.442-.256-123.271-71.168,1.326-.764,122.384-70.66.442.257,123.271,71.167-1.326.764ZM2262.9-1295.4l118.286,68.291a.943.943,0,0,0,.945,0l118.284-68.291a.945.945,0,0,0,0-1.637l-118.287-68.291a.944.944,0,0,0-.945,0L2262.9-1297.036A.945.945,0,0,0,2262.9-1295.4Z" fill="#a6d7ee"/>
    <g id="Group_70798" data-name="Group 70798">
      <path id="Path_64595" data-name="Path 64595" d="M2378.964-1418.75l-82.316-47.527a.946.946,0,0,0-1.418.819v95.048a.945.945,0,0,0,.473.819l83.261,48.07a.944.944,0,0,0,.945,0l83.262-48.07a.946.946,0,0,0,.472-.819v-95.048a.945.945,0,0,0-1.417-.819l-82.317,47.527A.949.949,0,0,1,2378.964-1418.75Z" fill="#a6d7ee"/>
      <path id="Path_64596" data-name="Path 64596" d="M2378.019-1322.066l-82.316-47.525a.945.945,0,0,1-.473-.819v-95.048a.946.946,0,0,1,1.418-.819l82.316,47.526a.944.944,0,0,1,.473.818v95.049A.945.945,0,0,1,2378.019-1322.066Z" fill="#a6d7ee"/>
      <path id="Path_64597" data-name="Path 64597" d="M2463.171-1369.591l-82.317,47.525a.945.945,0,0,1-1.417-.818v-95.049a.946.946,0,0,1,.472-.818l82.317-47.526a.946.946,0,0,1,1.418.819v95.048A.945.945,0,0,1,2463.171-1369.591Z" fill="#75b3e1"/>
      <path id="Path_64598" data-name="Path 64598" d="M2378.964-1418.751l-82.316-47.526a.944.944,0,0,1,0-1.636l82.314-47.524a.944.944,0,0,1,.945,0l82.317,47.525a.945.945,0,0,1,0,1.637l-82.315,47.524A.944.944,0,0,1,2378.964-1418.751Z" fill="#a6d7ee"/>
      <path id="Path_64599" data-name="Path 64599" d="M2378.964-1418.75l-82.316-47.527a.946.946,0,0,0-1.418.819v2.034a.942.942,0,0,0,.473.818l83.261,48.072a.943.943,0,0,0,.945,0l83.26-48.07a.946.946,0,0,0,.472-.818v-2.035a.944.944,0,0,0-1.417-.819l-82.316,47.526A.949.949,0,0,1,2378.964-1418.75Z" fill="#fff"/>
    </g>
    <g id="Group_70813" data-name="Group 70813">
      <g id="Group_70800" data-name="Group 70800">
        <g id="Group_70799" data-name="Group 70799">
          <path id="Path_64600" data-name="Path 64600" d="M2395.927-1458.176a7.647,7.647,0,0,0-1.952-6.333,17.947,17.947,0,0,0-7.091-4.734,37.746,37.746,0,0,0-6.183-1.826.953.953,0,0,0-1.131.853l0,.017a.929.929,0,0,0,.538.927,22.342,22.342,0,0,1,3.574,2.145c3.567,2.717,5.622,5.625,5.928,8.764a7.331,7.331,0,0,1-1.243,4.781,9.678,9.678,0,0,1-1.381,1.624,37.1,37.1,0,0,0,5.02-.4l.008-.005a10.151,10.151,0,0,0,3.915-5.81" fill="#85b8e4"/>
        </g>
      </g>
      <g id="Group_70802" data-name="Group 70802">
        <g id="Group_70801" data-name="Group 70801">
          <path id="Path_64601" data-name="Path 64601" d="M2356.081-1445.217a48.292,48.292,0,0,0,10.137.692,56.8,56.8,0,0,0,16.765-3.109c-.764-.084-1.521-.181-2.264-.3-.321-.053-.634-.116-.951-.177a31.045,31.045,0,0,1-4.528.988,38.474,38.474,0,0,1-8.84.166,43.615,43.615,0,0,1-8.122-1.59,30.591,30.591,0,0,1-6.668-2.783c-3.816-2.255-5.832-5.231-5.739-8.191a7.45,7.45,0,0,1,1.688-4.372q.409-.539.9-1.075c-.02-.024-.043-.047-.063-.071a9.433,9.433,0,0,1-1.906-4.163c-.011-.053-.016-.1-.027-.157a18.261,18.261,0,0,0-5.265,3.352,10.045,10.045,0,0,0-3.312,6.3,8.983,8.983,0,0,0,2.255,6.492,20.125,20.125,0,0,0,6.741,5.032,34.876,34.876,0,0,0,9.2,2.972" fill="#85b8e4"/>
        </g>
      </g>
      <g id="Group_70804" data-name="Group 70804">
        <g id="Group_70803" data-name="Group 70803">
          <path id="Path_64602" data-name="Path 64602" d="M2356.28-1470.11c-.048-.425-.1-.849-.117-1.278-.008-.179-.007-.358-.01-.538a40.979,40.979,0,0,0-7.207,1.607c-.294.1-.583.2-.872.307.115.154.215.313.347.461a10.5,10.5,0,0,0,2.815,2.148c.249-.178.485-.36.752-.534a23.69,23.69,0,0,1,4.292-2.173" fill="#85b8e4"/>
        </g>
      </g>
      <g id="Group_70806" data-name="Group 70806">
        <g id="Group_70805" data-name="Group 70805">
          <path id="Path_64603" data-name="Path 64603" d="M2357.907-1470.682c.383-.121.756-.251,1.156-.357a32.64,32.64,0,0,1,8.966-1.028,32.6,32.6,0,0,1,6.711.87,7.532,7.532,0,0,0,.408-.783c-2.366-.285-4.728-.453-7.094-.535a76.275,76.275,0,0,0-9.585.313l-.095.011c-.118.3-.224.6-.314.9-.06.2-.106.408-.153.613" fill="#85b8e4"/>
        </g>
      </g>
      <g id="Group_70808" data-name="Group 70808">
        <g id="Group_70807" data-name="Group 70807">
          <path id="Path_64604" data-name="Path 64604" d="M2379.526-1448.161a.987.987,0,0,0,.477-.024c.392-.121.778-.248,1.155-.383q-.679.243-1.39.454c.316.06.63.124.95.177.744.122,1.5.219,2.265.3h0a46.237,46.237,0,0,0,11.212-.13,36.472,36.472,0,0,0,12-3.7,22.432,22.432,0,0,0,7.689-6.344,13.049,13.049,0,0,0,2.775-7.436,13.909,13.909,0,0,0-2.08-7.4c-2.864-4.7-7.824-8.807-14.339-11.865a48.284,48.284,0,0,0-11.033-3.624,42.587,42.587,0,0,0-12.958-.595,31.625,31.625,0,0,0-11.656,3.54c-.118.066-.227.136-.342.2a21.076,21.076,0,0,1,2.546.575,21.4,21.4,0,0,0-2.189-.514.987.987,0,0,0-.672.124,18.178,18.178,0,0,0-4.485,3.711c.229-.037.46-.072.691-.1-.231.033-.462.067-.691.1a13.943,13.943,0,0,0-1.669,2.381,13.543,13.543,0,0,0-1.627,6.777h0c0,.18,0,.359.008.538.017.429.07.854.118,1.278.433-.17.879-.328,1.337-.478-.2.067-.4.135-.6.2a.948.948,0,0,0-.634,1.027,21.036,21.036,0,0,0,1.108,4.163c.272.058.545.114.82.162a9.757,9.757,0,0,1-.4-5.651h0c.047-.2.092-.41.153-.613.09-.3.2-.6.315-.9h0a15.1,15.1,0,0,1,3.777-5.278,26.7,26.7,0,0,1,2.824-2.28.944.944,0,0,0-.522-1.709c-.695-.015-1.376,0-2.033.038-.265.016-.525.036-.784.059q.387-.035.784-.059a22.911,22.911,0,0,1,4.549.164.913.913,0,0,0,.573-.1,32.378,32.378,0,0,1,3.056-1.485h0a36.576,36.576,0,0,1,7.292-2.219,40.2,40.2,0,0,1,10.464-.637,34.53,34.53,0,0,1,10.456,2.36,24.343,24.343,0,0,1,7.831,4.969,14.5,14.5,0,0,1,3.895,6.306,12.651,12.651,0,0,1,.021,6.488,14.411,14.411,0,0,1-3.188,5.927c-3.23,3.642-8.769,6.292-15.149,7.264-.071.011-.145.016-.216.027h0a37.245,37.245,0,0,1-5.02.4h0a41.244,41.244,0,0,1-4.666-.191,47.855,47.855,0,0,1-9.916-2.008,30.725,30.725,0,0,1-8.643-4.194,19.265,19.265,0,0,1-1.934-1.613c-.2,0-.4.009-.6,0-.325-.012-.646-.032-.968-.056a26.656,26.656,0,0,0,1.806,2.325,27.531,27.531,0,0,0,7.378,5.924A34.6,34.6,0,0,0,2379.526-1448.161Zm3.72-1.273a14.665,14.665,0,0,0,3.332-2.154,14.647,14.647,0,0,1-3.331,2.154c-.422.2-.862.4-1.315.575C2382.385-1449.039,2382.825-1449.23,2383.246-1449.434Z" fill="#85b8e4"/>
        </g>
      </g>
      <g id="Group_70810" data-name="Group 70810">
        <g id="Group_70809" data-name="Group 70809">
          <path id="Path_64605" data-name="Path 64605" d="M2348.421-1469.55c-.132-.149-.233-.308-.347-.462-.21.077-.418.157-.625.238.207-.081.415-.161.625-.238a5.084,5.084,0,0,1-1.095-3.18,5.366,5.366,0,0,1,1.751-3.581,13.1,13.1,0,0,1,4.2-2.538,31.128,31.128,0,0,1,4.718-1.433c.6-.132,1.2-.242,1.8-.34a18.344,18.344,0,0,1,4.8-3.9c-.543-.087-1.094-.159-1.656-.2a21.346,21.346,0,0,0-7.79.79,12.79,12.79,0,0,0-5.486,3.159,9.947,9.947,0,0,0-2.366,4.047,17.525,17.525,0,0,0-.722,3.976,15.366,15.366,0,0,0,.232,3.846h0c.011.052.017.1.026.157a9.757,9.757,0,0,0,1.278,3.285l1.443.185q.454-.432.968-.853a.944.944,0,0,0-.08-1.512A9.111,9.111,0,0,1,2348.421-1469.55Z" fill="#85b8e4"/>
        </g>
      </g>
      <g id="Group_70812" data-name="Group 70812">
        <g id="Group_70811" data-name="Group 70811">
          <path id="Path_64606" data-name="Path 64606" d="M2353.449-1461.513a23.556,23.556,0,0,0,6.81,1.495h0c.323.025.644.044.967.057.2.007.4-.005.6,0h0a25.305,25.305,0,0,0,7.486-.982,19.636,19.636,0,0,0,6.171-2.991,10.57,10.57,0,0,0,3.493-4.024,6.68,6.68,0,0,0,.5-1.608h0a7.3,7.3,0,0,0,.134-1.72h0a8.48,8.48,0,0,0-.117-1.037,11.771,11.771,0,0,0-1.709-4.1,17.156,17.156,0,0,0-3.213-3.679,21.537,21.537,0,0,0-3.547-2.511.975.975,0,0,0-.863-.042,30.755,30.755,0,0,0-2.882,1.445c.15.025.3.038.447.067a12.9,12.9,0,0,1,4.919,1.913,7.1,7.1,0,0,1,2.7,3.229,5.134,5.134,0,0,1,.006,3.556c-.057.158-.135.31-.2.464h0a7.547,7.547,0,0,1-.408.784h0a11.642,11.642,0,0,1-1.432,1.909,13.646,13.646,0,0,1-3.166,2.506,17.7,17.7,0,0,1-8.621,2.037,18.837,18.837,0,0,1-3.213-.288h0c-.273-.047-.546-.1-.818-.163.083.224.161.448.247.671-.086-.223-.165-.447-.248-.671-.176-.038-.352-.07-.528-.112a25.3,25.3,0,0,1-4.611-1.538q-.294-.135-.584-.28a.965.965,0,0,0-1.014.08,18.46,18.46,0,0,0-1.635,1.4.957.957,0,0,0-.026,1.371A12.819,12.819,0,0,0,2353.449-1461.513Zm24.127-10.133c.566.087,1.133.189,1.7.3-.567-.107-1.133-.208-1.7-.3s-1.108-.163-1.662-.235C2376.468-1471.809,2377.022-1471.732,2377.576-1471.646Zm-.953.971q-.6-.19-1.228-.356Q2376.021-1470.866,2376.623-1470.675Zm-18.088,6.227c-.037-.086-.071-.171-.1-.257.033.086.067.172.1.257a13.666,13.666,0,0,0,2.254,3.414A13.648,13.648,0,0,1,2358.535-1464.448Z" fill="#85b8e4"/>
        </g>
      </g>
    </g>
    <g id="Group_70814" data-name="Group 70814">
      <path id="Path_64607" data-name="Path 64607" d="M2343.332-1368.354l-65.951-70.818-65.951-5.335s-10.6,89.4,65.951,184.23C2353.931-1266.711,2343.332-1368.354,2343.332-1368.354Z" fill="#455094"/>
      <path id="Path_64608" data-name="Path 64608" d="M2211.43-1444.507l-14.839,8.567,65.951,5.335,14.839-8.567Z" fill="#85b8e4"/>
      <path id="Path_64609" data-name="Path 64609" d="M2328.493-1359.787l-65.951-70.818-27.118-2.741-38.833-2.6s-10.6,89.4,65.951,184.231C2339.092-1258.145,2328.493-1359.787,2328.493-1359.787Z" fill="#74b2e0"/>
      <path id="Path_64610" data-name="Path 64610" d="M2328.493-1359.787l-65.951-70.818-65.951-5.336,1.864-1.076,66.828,5.407,65.951,70.818s8.848,84.968-48.158,104.439C2337.053-1277.572,2328.493-1359.787,2328.493-1359.787Z" fill="#fff"/>
      <path id="Path_64611" data-name="Path 64611" d="M2320.486-1358.688l-59.3-63.671-24.381-2.464-34.914-2.333s-9.53,80.382,59.295,165.64C2330.016-1267.3,2320.486-1358.688,2320.486-1358.688Z" fill="#dbeff8"/>
    </g>
    <g id="Group_70816" data-name="Group 70816">
      <g id="Group_70815" data-name="Group 70815">
        <path id="Path_64612" data-name="Path 64612" d="M2292.287-1368.864l7.713,9.693-47.322,51.464-19-42.666,8.028-1.76,11.483,25.784Z" fill="#85b8e4" fill-rule="evenodd"/>
      </g>
    </g>
  </g>
</svg>
