<svg xmlns="http://www.w3.org/2000/svg" width="288.483" height="376.916" viewBox="0 0 288.483 376.916">
  <g id="Group_70731" data-name="Group 70731" transform="translate(-406.424 1605)">
    <g id="Group_70714" data-name="Group 70714">
      <path id="Path_64511" data-name="Path 64511" d="M552.712-1591.66,406.424-1507.2v181.807l131.755-76.069,14.628,25.076Z" fill="#a6d7ee" opacity="0.47"/>
      <path id="Path_64512" data-name="Path 64512" d="M487.524-1427.7l23.266-13.433v1.99l-23.266,13.432Zm-6,13.352v-1.99l-26.069,15.051v1.99Zm-7.686-3.458,11.642-6.722v-1.99l-11.642,6.722Zm-2.048,1.182v-1.99l-14.48,8.36v1.99Zm35.417-28.345,8.668-5v-1.99l-8.668,5.005Zm5.634,2.654v1.99l24.194-13.968v-1.99Zm-59.434,44.2v-1.99l-37.213,21.485v1.99Zm1.876-16.876,26.069-15.051v-1.99l-26.069,15.051Zm28.117-16.234,21.76-12.563v-1.989l-21.76,12.562Zm-30.165,17.416v-1.99l-36.952,21.334v1.991Zm64.688-37.348,16.54-9.549v-1.99l-16.54,9.55Zm-62.661,42.084L416.1-1386.464v1.99l39.155-22.607Zm-38.779,8.586,12.2-7.041v-1.99l-12.2,7.042ZM521.652-1463.2v1.99l14.492-8.367v-1.99Zm-25.314,16.605,23.266-13.433v-1.989l-23.266,13.432Zm-13.69,7.9,11.642-6.722v-1.99l-11.642,6.722Zm-16.529,9.542,14.481-8.36v-1.99l-14.481,8.361Zm-35.4,20.437,33.349-19.254v-1.99L430.723-1410.7Zm68.233-5.582v1.99l18.786-10.846v-1.99Zm-26.09,22.959v1.991l14.481-8.361v-1.99Zm24.042-21.777-26.069,15.051v1.99l26.069-15.051Zm-27.944,33.916v-1.989l-25.745,14.864v1.989Zm32.073-28.4-11.643,6.722v1.99l11.643-6.722Zm-32.246,12.711v-1.99l-52.574,30.353v1.99Zm5.83,18.333v1.99l25.745-14.864v-1.99Zm28.464-32.226v1.99l23.266-13.433v-1.99Zm16.7-17.541v1.99l11.643-6.722v-1.99Zm.173,17.683,15.24-8.8v-1.99l-15.24,8.8ZM502.414-1392.6v1.99l8.3-4.792v-1.989Zm-66.992,24.875v-1.99l-18.867,10.893v1.99Zm35.4-22.426-33.348,19.254v1.99l33.348-19.254Zm.194,7.785v1.989l26.069-15.051v-1.99Zm46.9-27.079L499.129-1398.6v1.989l18.785-10.845Zm15.565-24.78v1.99l9.875-5.7v-1.99Zm2.746,6.311-7.827,4.519v1.99l7.827-4.519ZM437.6-1355.179l-21.186,12.232v1.989l21.186-12.231Zm3.567-7.966v-1.99l-24.7,14.263v1.99Zm31.4-10.234v-1.99l-32.922,19.008v1.989Z" fill="#dbeff8"/>
      <path id="Path_64513" data-name="Path 64513" d="M500.379-1515.345v-12.54c0-12.7-10.339-17.071-23.044-9.736s-23.045,23.64-23.045,36.345v12.4c-4.311,3.145-7.625,8.747-7.625,13.241v30.2c0,4.956,4.019,6.655,8.975,3.793l42.621-24.607c4.956-2.862,8.974-9.2,8.974-14.156v-30.205C507.235-1514.83,504.308-1516.657,500.379-1515.345Zm-23.044-16.89c9.738-5.623,17.658-2.275,17.658,7.459v12.262l-35.317,20.391v-12.262C459.676-1514.119,467.6-1526.613,477.335-1532.235Zm1.535,50.463v14.7l-3.839,2.216v-14.705c-1.754.265-2.985-.763-2.985-2.79,0-2.708,2.2-6.171,4.9-7.734s4.9-.636,4.9,2.072A9.676,9.676,0,0,1,478.87-1481.772Z" fill="#fff"/>
      <path id="Path_64514" data-name="Path 64514" d="M552.712-1605l-146.288,84.459v14.42l146.3-84.465Z" fill="#85b8e4"/>
    </g>
    <path id="Path_64515" data-name="Path 64515" d="M571.2-1228.084l-.442-.256-123.271-71.168,1.326-.764,122.384-70.659.442.256,123.272,71.167-1.327.764ZM451.02-1299.508,571.2-1230.125l120.174-69.383L571.193-1368.89Z" fill="#a6d7ee"/>
    <g id="Group_70715" data-name="Group 70715">
      <path id="Path_64516" data-name="Path 64516" d="M568.975-1421.767l-84.207-48.617v97.231l84.207,48.616,84.207-48.616v-97.231Z" fill="#a6d7ee"/>
      <path id="Path_64517" data-name="Path 64517" d="M568.975-1324.537l-84.207-48.617v-97.231l84.207,48.617Z" fill="#a6d7ee"/>
      <path id="Path_64518" data-name="Path 64518" d="M653.182-1373.154l-84.207,48.617v-97.231l84.207-48.617Z" fill="#75b3e1"/>
      <path id="Path_64519" data-name="Path 64519" d="M568.975-1421.768l-84.207-48.617,84.2-48.615,84.207,48.617Z" fill="#a6d7ee"/>
      <path id="Path_64520" data-name="Path 64520" d="M568.975-1421.767l-84.207-48.617v4.217l84.207,48.617,84.2-48.616,0-4.218Z" fill="#fff"/>
    </g>
    <g id="Group_70730" data-name="Group 70730">
      <g id="Group_70717" data-name="Group 70717">
        <g id="Group_70716" data-name="Group 70716">
          <path id="Path_64521" data-name="Path 64521" d="M587.466-1457.466a7.651,7.651,0,0,0-1.953-6.333,17.93,17.93,0,0,0-7.09-4.734,39.533,39.533,0,0,0-7.277-2.046,7.369,7.369,0,0,1-.135,1.72,22.946,22.946,0,0,1,4.208,2.442c3.566,2.717,5.622,5.625,5.927,8.764a7.329,7.329,0,0,1-1.242,4.781,9.737,9.737,0,0,1-1.381,1.624,37.221,37.221,0,0,0,5.02-.4l.008-.006a10.153,10.153,0,0,0,3.915-5.81" fill="#85b8e4"/>
        </g>
      </g>
      <g id="Group_70719" data-name="Group 70719">
        <g id="Group_70718" data-name="Group 70718">
          <path id="Path_64522" data-name="Path 64522" d="M547.62-1444.507a48.282,48.282,0,0,0,10.136.692,56.8,56.8,0,0,0,16.765-3.109c-.763-.084-1.521-.181-2.264-.3-.321-.053-.634-.116-.95-.177a31.04,31.04,0,0,1-4.528.988,38.536,38.536,0,0,1-8.84.167,43.655,43.655,0,0,1-8.123-1.591,30.62,30.62,0,0,1-6.668-2.783c-3.816-2.255-5.831-5.231-5.738-8.191a7.459,7.459,0,0,1,1.687-4.372q.41-.539.9-1.074c-.02-.024-.043-.048-.063-.072a9.45,9.45,0,0,1-1.906-4.163c-.01-.052-.015-.1-.027-.157a18.27,18.27,0,0,0-5.264,3.352,10.053,10.053,0,0,0-3.313,6.3,8.979,8.979,0,0,0,2.256,6.492,20.122,20.122,0,0,0,6.741,5.032,34.8,34.8,0,0,0,9.2,2.972" fill="#85b8e4"/>
        </g>
      </g>
      <g id="Group_70721" data-name="Group 70721">
        <g id="Group_70720" data-name="Group 70720">
          <path id="Path_64523" data-name="Path 64523" d="M547.819-1469.4c-.049-.424-.1-.849-.118-1.277-.007-.18-.007-.359-.009-.539a40.973,40.973,0,0,0-7.207,1.607c-.294.1-.583.2-.873.307.115.154.216.313.348.461a10.468,10.468,0,0,0,2.814,2.148c.249-.178.486-.36.753-.534a23.7,23.7,0,0,1,4.292-2.173" fill="#85b8e4"/>
        </g>
      </g>
      <g id="Group_70723" data-name="Group 70723">
        <g id="Group_70722" data-name="Group 70722">
          <path id="Path_64524" data-name="Path 64524" d="M549.446-1469.972c.382-.121.756-.251,1.156-.357a32.593,32.593,0,0,1,8.966-1.027,32.535,32.535,0,0,1,6.711.87,8.112,8.112,0,0,0,.408-.784c-2.366-.284-4.728-.453-7.094-.535a76.294,76.294,0,0,0-9.585.313l-.095.011q-.179.444-.315.9c-.059.2-.105.408-.152.612" fill="#85b8e4"/>
        </g>
      </g>
      <g id="Group_70725" data-name="Group 70725">
        <g id="Group_70724" data-name="Group 70724">
          <path id="Path_64525" data-name="Path 64525" d="M571.306-1447.4q.711-.211,1.391-.453-.68.242-1.39.453c.316.06.63.124.95.177.743.122,1.5.219,2.264.3h0a46.25,46.25,0,0,0,11.213-.13,36.462,36.462,0,0,0,12-3.7,22.426,22.426,0,0,0,7.69-6.344,13.055,13.055,0,0,0,2.775-7.436,13.911,13.911,0,0,0-2.08-7.4c-2.864-4.7-7.825-8.807-14.339-11.865a48.308,48.308,0,0,0-11.033-3.624,42.624,42.624,0,0,0-12.959-.595,31.613,31.613,0,0,0-11.656,3.541c-.117.065-.226.136-.341.2a21.259,21.259,0,0,1,2.545.575,21.088,21.088,0,0,0-2.546-.574,18.335,18.335,0,0,0-4.8,3.9c.229-.037.459-.071.691-.1-.232.033-.462.067-.691.1a13.89,13.89,0,0,0-1.669,2.381,13.556,13.556,0,0,0-1.628,6.777h0c0,.18,0,.359.009.538.017.429.07.854.117,1.278.433-.169.88-.328,1.337-.478q-.686.225-1.336.479a20.572,20.572,0,0,0,1.209,4.916c.272.059.545.115.819.162a9.766,9.766,0,0,1-.4-5.651h0c.047-.2.092-.409.153-.612.089-.3.2-.6.314-.9h0a15.108,15.108,0,0,1,3.776-5.278,27.8,27.8,0,0,1,5.125-3.74,22.578,22.578,0,0,0-4.855-.211q-.4.024-.784.06.387-.036.784-.06a22.513,22.513,0,0,1,4.855.211,31.847,31.847,0,0,1,3.323-1.636h0a36.618,36.618,0,0,1,7.292-2.218,40.191,40.191,0,0,1,10.464-.638,34.526,34.526,0,0,1,10.456,2.36,24.327,24.327,0,0,1,7.831,4.97,14.512,14.512,0,0,1,3.9,6.305,12.652,12.652,0,0,1,.02,6.488,14.41,14.41,0,0,1-3.187,5.927c-3.23,3.642-8.769,6.292-15.15,7.265-.07.01-.144.015-.215.026h0a36.908,36.908,0,0,1-5.021.4h0a41.259,41.259,0,0,1-4.667-.191,47.927,47.927,0,0,1-9.916-2.007,30.74,30.74,0,0,1-8.642-4.195,19.409,19.409,0,0,1-1.935-1.613c-.2,0-.4.009-.6,0-.325-.012-.647-.032-.968-.056a26.651,26.651,0,0,0,1.806,2.325,27.538,27.538,0,0,0,7.377,5.924A34.7,34.7,0,0,0,571.306-1447.4Zm3.479-1.32a14.659,14.659,0,0,0,3.331-2.153,14.651,14.651,0,0,1-3.33,2.153c-.422.2-.862.4-1.316.575Q574.151-1448.417,574.785-1448.724Z" fill="#85b8e4"/>
        </g>
      </g>
      <g id="Group_70727" data-name="Group 70727">
        <g id="Group_70726" data-name="Group 70726">
          <path id="Path_64526" data-name="Path 64526" d="M539.96-1468.84c-.133-.149-.233-.308-.347-.462-.21.077-.418.157-.625.238.207-.081.415-.161.625-.238a5.076,5.076,0,0,1-1.095-3.18,5.359,5.359,0,0,1,1.751-3.58,13.084,13.084,0,0,1,4.2-2.539,31.109,31.109,0,0,1,4.717-1.433c.6-.132,1.2-.242,1.806-.34a18.377,18.377,0,0,1,4.8-3.9c-.543-.087-1.094-.159-1.656-.2a21.332,21.332,0,0,0-7.79.791,12.8,12.8,0,0,0-5.486,3.158,9.963,9.963,0,0,0-2.366,4.047,17.507,17.507,0,0,0-.721,3.976,15.408,15.408,0,0,0,.231,3.846h0c.011.053.016.1.026.157a9.433,9.433,0,0,0,1.906,4.163c.02.024.044.047.063.072a17.924,17.924,0,0,1,2.78-2.431A10.5,10.5,0,0,1,539.96-1468.84Z" fill="#85b8e4"/>
        </g>
      </g>
      <g id="Group_70729" data-name="Group 70729">
        <g id="Group_70728" data-name="Group 70728">
          <path id="Path_64527" data-name="Path 64527" d="M544.988-1460.8a23.538,23.538,0,0,0,6.809,1.495h0c.322.025.644.045.967.057.2.008.4,0,.6,0h0a25.32,25.32,0,0,0,7.487-.982,19.635,19.635,0,0,0,6.17-2.991,10.573,10.573,0,0,0,3.494-4.024,6.715,6.715,0,0,0,.5-1.608h0a7.21,7.21,0,0,0,.134-1.72h0a8.523,8.523,0,0,0-.117-1.037,11.8,11.8,0,0,0-1.709-4.1,17.114,17.114,0,0,0-3.214-3.679,21.4,21.4,0,0,0-3.969-2.745,31.847,31.847,0,0,0-3.323,1.636c.15.025.3.038.448.067a12.9,12.9,0,0,1,4.918,1.913,7.1,7.1,0,0,1,2.705,3.229,5.138,5.138,0,0,1,.006,3.557c-.057.157-.135.309-.2.463h0a7.793,7.793,0,0,1-.408.784h0a11.7,11.7,0,0,1-1.432,1.909,13.689,13.689,0,0,1-3.166,2.507,17.715,17.715,0,0,1-8.621,2.036,18.915,18.915,0,0,1-3.213-.287h0c-.274-.047-.547-.1-.819-.162.083.223.162.447.247.67-.086-.223-.164-.447-.247-.67-.177-.039-.353-.07-.529-.113a25.3,25.3,0,0,1-4.61-1.538c-.378-.172-.752-.359-1.114-.558a17.97,17.97,0,0,0-2.78,2.431A12.255,12.255,0,0,0,544.988-1460.8Zm24.127-10.133c.566.088,1.133.189,1.7.3-.566-.107-1.133-.208-1.7-.3s-1.108-.163-1.661-.235C568.007-1471.1,568.56-1471.022,569.115-1470.936Zm-.954.971c-.4-.127-.811-.246-1.227-.356Q567.56-1470.156,568.161-1469.965Zm-18.088,6.227c-.037-.085-.07-.171-.1-.257.033.086.067.172.1.257a13.669,13.669,0,0,0,2.253,3.414A13.656,13.656,0,0,1,550.073-1463.738Z" fill="#85b8e4"/>
        </g>
      </g>
    </g>
  </g>
</svg>
