<svg xmlns="http://www.w3.org/2000/svg" width="309.478" height="290.77" viewBox="0 0 309.478 290.77">
  <g id="Group_70797" data-name="Group 70797" transform="translate(-1738.914 1518.084)">
    <path id="Path_64579" data-name="Path 64579" d="M1924.681-1227.314l-.442-.256-123.271-71.168,1.326-.764,122.384-70.66.442.257,123.272,71.167-1.327.764Zm-118.759-70.6,118.287,68.291a.944.944,0,0,0,.945,0l118.283-68.291a.945.945,0,0,0,0-1.637l-118.286-68.291a.944.944,0,0,0-.945,0l-118.284,68.291A.945.945,0,0,0,1805.922-1297.919Z" fill="#a6d7ee"/>
    <g id="Group_70780" data-name="Group 70780">
      <path id="Path_64580" data-name="Path 64580" d="M1921.988-1421.27l-82.317-47.527a.945.945,0,0,0-1.417.819v95.048a.946.946,0,0,0,.472.819l83.262,48.07a.944.944,0,0,0,.945,0l83.261-48.07a.945.945,0,0,0,.473-.819v-95.048a.946.946,0,0,0-1.418-.819l-82.316,47.527A.949.949,0,0,1,1921.988-1421.27Z" fill="#a6d7ee"/>
      <path id="Path_64581" data-name="Path 64581" d="M1921.043-1324.586l-82.317-47.525a.946.946,0,0,1-.472-.819v-95.048a.945.945,0,0,1,1.417-.819l82.317,47.526a.946.946,0,0,1,.472.818v95.049A.944.944,0,0,1,1921.043-1324.586Z" fill="#a6d7ee"/>
      <path id="Path_64582" data-name="Path 64582" d="M2006.195-1372.111l-82.317,47.525a.945.945,0,0,1-1.418-.818v-95.049a.944.944,0,0,1,.473-.818l82.317-47.526a.945.945,0,0,1,1.417.819v95.048A.946.946,0,0,1,2006.195-1372.111Z" fill="#75b3e1"/>
      <path id="Path_64583" data-name="Path 64583" d="M1921.988-1421.271l-82.317-47.526a.944.944,0,0,1,0-1.636l82.314-47.524a.944.944,0,0,1,.945,0l82.317,47.525a.945.945,0,0,1,0,1.637l-82.314,47.524A.944.944,0,0,1,1921.988-1421.271Z" fill="#a6d7ee"/>
      <path id="Path_64584" data-name="Path 64584" d="M1921.988-1421.27l-82.317-47.527a.945.945,0,0,0-1.417.819v2.034a.943.943,0,0,0,.472.818l83.262,48.072a.944.944,0,0,0,.945,0l83.259-48.07a.944.944,0,0,0,.473-.818v-2.035a.945.945,0,0,0-1.418-.819l-82.315,47.526A.949.949,0,0,1,1921.988-1421.27Z" fill="#fff"/>
    </g>
    <g id="Group_70795" data-name="Group 70795">
      <g id="Group_70782" data-name="Group 70782">
        <g id="Group_70781" data-name="Group 70781">
          <path id="Path_64585" data-name="Path 64585" d="M1938.951-1460.7a7.651,7.651,0,0,0-1.953-6.333,17.931,17.931,0,0,0-7.09-4.734,37.744,37.744,0,0,0-6.184-1.826.952.952,0,0,0-1.13.853l0,.017a.93.93,0,0,0,.537.927,22.315,22.315,0,0,1,3.575,2.145c3.566,2.717,5.622,5.625,5.927,8.764a7.329,7.329,0,0,1-1.242,4.781,9.742,9.742,0,0,1-1.381,1.624,37.08,37.08,0,0,0,5.02-.4l.008-.005a10.156,10.156,0,0,0,3.915-5.81" fill="#85b8e4"/>
        </g>
      </g>
      <g id="Group_70784" data-name="Group 70784">
        <g id="Group_70783" data-name="Group 70783">
          <path id="Path_64586" data-name="Path 64586" d="M1899.1-1447.737a48.274,48.274,0,0,0,10.136.692,56.793,56.793,0,0,0,16.765-3.109c-.763-.084-1.521-.181-2.264-.3-.321-.053-.634-.116-.95-.177a31.055,31.055,0,0,1-4.528.988,38.482,38.482,0,0,1-8.84.166,43.653,43.653,0,0,1-8.123-1.59,30.614,30.614,0,0,1-6.668-2.783c-3.816-2.255-5.831-5.231-5.738-8.191a7.456,7.456,0,0,1,1.687-4.372q.409-.539.9-1.075c-.02-.024-.043-.047-.063-.071a9.455,9.455,0,0,1-1.906-4.163c-.01-.053-.016-.1-.027-.157a18.271,18.271,0,0,0-5.264,3.352,10.053,10.053,0,0,0-3.313,6.3,8.98,8.98,0,0,0,2.256,6.492,20.1,20.1,0,0,0,6.741,5.032,34.875,34.875,0,0,0,9.2,2.972" fill="#85b8e4"/>
        </g>
      </g>
      <g id="Group_70786" data-name="Group 70786">
        <g id="Group_70785" data-name="Group 70785">
          <path id="Path_64587" data-name="Path 64587" d="M1899.3-1472.63c-.049-.425-.1-.849-.118-1.278-.007-.179-.007-.358-.009-.538a40.964,40.964,0,0,0-7.207,1.607c-.294.1-.583.2-.873.307.115.154.216.313.348.461a10.508,10.508,0,0,0,2.814,2.148c.249-.178.485-.36.753-.534a23.638,23.638,0,0,1,4.292-2.173" fill="#85b8e4"/>
        </g>
      </g>
      <g id="Group_70788" data-name="Group 70788">
        <g id="Group_70787" data-name="Group 70787">
          <path id="Path_64588" data-name="Path 64588" d="M1900.93-1473.2c.383-.121.757-.251,1.157-.357a32.635,32.635,0,0,1,8.966-1.028,32.61,32.61,0,0,1,6.711.87,7.982,7.982,0,0,0,.408-.783c-2.366-.285-4.728-.453-7.094-.535a76.316,76.316,0,0,0-9.585.313l-.1.011q-.178.444-.315.9c-.059.2-.1.408-.153.613" fill="#85b8e4"/>
        </g>
      </g>
      <g id="Group_70790" data-name="Group 70790">
        <g id="Group_70789" data-name="Group 70789">
          <path id="Path_64589" data-name="Path 64589" d="M1922.549-1450.681a.992.992,0,0,0,.478-.024q.588-.182,1.155-.383-.68.243-1.39.454c.316.06.63.124.95.177.743.122,1.5.219,2.264.3h0a46.237,46.237,0,0,0,11.213-.13,36.462,36.462,0,0,0,12-3.7,22.427,22.427,0,0,0,7.69-6.344,13.055,13.055,0,0,0,2.775-7.436,13.921,13.921,0,0,0-2.08-7.4c-2.864-4.7-7.825-8.807-14.339-11.865a48.3,48.3,0,0,0-11.034-3.624,42.585,42.585,0,0,0-12.958-.6,31.634,31.634,0,0,0-11.656,3.54c-.117.066-.226.136-.341.2a21.071,21.071,0,0,1,2.545.575,21.324,21.324,0,0,0-2.188-.514.99.99,0,0,0-.673.124,18.171,18.171,0,0,0-4.484,3.711q.344-.055.691-.1c-.232.033-.462.067-.691.1a13.889,13.889,0,0,0-1.669,2.381,13.555,13.555,0,0,0-1.628,6.777h0c0,.18,0,.359.009.538.017.429.07.854.117,1.278.433-.17.88-.328,1.337-.478q-.3.1-.6.205a.946.946,0,0,0-.634,1.027,21.034,21.034,0,0,0,1.108,4.163c.272.058.545.114.819.162a9.773,9.773,0,0,1-.4-5.651h0c.047-.2.092-.41.153-.613.089-.3.2-.6.314-.9h0a15.111,15.111,0,0,1,3.776-5.278,26.822,26.822,0,0,1,2.825-2.28.944.944,0,0,0-.522-1.709c-.7-.015-1.376,0-2.033.038q-.4.024-.784.059.387-.035.784-.059a22.893,22.893,0,0,1,4.548.164.912.912,0,0,0,.573-.1,32.56,32.56,0,0,1,3.057-1.485h0a36.559,36.559,0,0,1,7.292-2.219,40.187,40.187,0,0,1,10.463-.637,34.526,34.526,0,0,1,10.457,2.36,24.34,24.34,0,0,1,7.831,4.969,14.518,14.518,0,0,1,3.9,6.306,12.653,12.653,0,0,1,.02,6.488,14.4,14.4,0,0,1-3.188,5.927c-3.229,3.642-8.769,6.292-15.149,7.264-.07.011-.144.016-.215.027h0a37.241,37.241,0,0,1-5.021.4h0a41.288,41.288,0,0,1-4.667-.191,47.866,47.866,0,0,1-9.916-2.008,30.712,30.712,0,0,1-8.642-4.194,19.291,19.291,0,0,1-1.935-1.613c-.2,0-.4.009-.6,0-.324-.012-.646-.032-.967-.056a26.663,26.663,0,0,0,1.806,2.325,27.54,27.54,0,0,0,7.377,5.924A34.6,34.6,0,0,0,1922.549-1450.681Zm3.721-1.273a14.656,14.656,0,0,0,3.331-2.154,14.613,14.613,0,0,1-3.33,2.154c-.422.2-.862.4-1.316.575Q1925.636-1451.649,1926.27-1451.954Z" fill="#85b8e4"/>
        </g>
      </g>
      <g id="Group_70792" data-name="Group 70792">
        <g id="Group_70791" data-name="Group 70791">
          <path id="Path_64590" data-name="Path 64590" d="M1891.445-1472.07c-.133-.149-.233-.308-.347-.462-.211.077-.418.157-.625.238.207-.081.415-.161.625-.238a5.076,5.076,0,0,1-1.095-3.18,5.361,5.361,0,0,1,1.751-3.581,13.08,13.08,0,0,1,4.2-2.538,31.12,31.12,0,0,1,4.717-1.433c.6-.132,1.2-.242,1.806-.34a18.338,18.338,0,0,1,4.8-3.9c-.543-.087-1.094-.159-1.656-.2a21.347,21.347,0,0,0-7.79.79,12.8,12.8,0,0,0-5.486,3.159,9.959,9.959,0,0,0-2.366,4.047,17.456,17.456,0,0,0-.721,3.976,15.411,15.411,0,0,0,.231,3.846h0c.012.052.017.1.027.157a9.762,9.762,0,0,0,1.278,3.285l1.443.185q.454-.432.968-.853a.944.944,0,0,0-.08-1.512A9.051,9.051,0,0,1,1891.445-1472.07Z" fill="#85b8e4"/>
        </g>
      </g>
      <g id="Group_70794" data-name="Group 70794">
        <g id="Group_70793" data-name="Group 70793">
          <path id="Path_64591" data-name="Path 64591" d="M1896.472-1464.033a23.556,23.556,0,0,0,6.81,1.495h0q.483.037.967.057c.2.007.4-.005.6,0h0a25.32,25.32,0,0,0,7.487-.982,19.646,19.646,0,0,0,6.17-2.991,10.582,10.582,0,0,0,3.494-4.024,6.722,6.722,0,0,0,.5-1.608h0a7.207,7.207,0,0,0,.134-1.72h0a8.523,8.523,0,0,0-.117-1.037,11.811,11.811,0,0,0-1.709-4.1,17.16,17.16,0,0,0-3.214-3.679,21.507,21.507,0,0,0-3.546-2.511.976.976,0,0,0-.864-.042,30.98,30.98,0,0,0-2.882,1.445c.15.025.3.038.448.067a12.9,12.9,0,0,1,4.918,1.913,7.1,7.1,0,0,1,2.7,3.229,5.135,5.135,0,0,1,.006,3.556c-.057.158-.135.31-.2.464h0a7.805,7.805,0,0,1-.408.784h0a11.71,11.71,0,0,1-1.432,1.909,13.682,13.682,0,0,1-3.166,2.506,17.7,17.7,0,0,1-8.621,2.037,18.815,18.815,0,0,1-3.213-.288h0c-.274-.047-.547-.1-.819-.163.083.224.162.448.247.671-.086-.223-.164-.447-.247-.671-.177-.038-.353-.07-.529-.112a25.292,25.292,0,0,1-4.61-1.538q-.294-.135-.584-.28a.966.966,0,0,0-1.015.08,18.6,18.6,0,0,0-1.635,1.4.957.957,0,0,0-.026,1.371A12.818,12.818,0,0,0,1896.472-1464.033Zm24.128-10.133c.566.087,1.133.189,1.7.3-.566-.107-1.133-.208-1.7-.3s-1.108-.163-1.661-.235C1919.492-1474.329,1920.045-1474.252,1920.6-1474.166Zm-.954.971q-.6-.191-1.228-.356Q1919.043-1473.386,1919.646-1473.195Zm-18.088,6.227c-.037-.086-.071-.171-.1-.257.033.086.067.172.1.257a13.687,13.687,0,0,0,2.253,3.414A13.674,13.674,0,0,1,1901.558-1466.968Z" fill="#85b8e4"/>
        </g>
      </g>
    </g>
    <g id="Group_70796" data-name="Group 70796">
      <path id="Path_64592" data-name="Path 64592" d="M1738.914-1405.683l45.138,67.99v-26.267l89.262,51.533v-31.33l-89.262-51.533-.006-.005.006-26.257Z" fill="#455094"/>
      <path id="Path_64593" data-name="Path 64593" d="M1918.446-1377.477l-45.132-67.99v26.262l-89.262-51.528v31.33l89.257,51.533c.005,0,.005,0,.016.005l-.011,26.251Z" fill="#85b8e4"/>
    </g>
  </g>
</svg>
