<svg xmlns="http://www.w3.org/2000/svg" width="46" height="46" viewBox="0 0 46 46">
  <g id="Component_139_1" data-name="Component 139 – 1" transform="translate(1.5 1.5)">
    <g id="Ellipse_224" data-name="Ellipse 224" fill="none" stroke="#fff" stroke-width="1">
      <circle cx="21.5" cy="21.5" r="21.5" stroke="none"/>
      <circle cx="21.5" cy="21.5" r="21" fill="none"/>
    </g>
    <path id="Path_8534" data-name="Path 8534" d="M4670.313,2970.75a11.144,11.144,0,0,0-5.115-1.523l-.435,1.241c0-.009-1.392-.217-1.482-.226a14.236,14.236,0,0,0-2.423-.008c-.093.007-1.491.231-1.49.234l-.436-1.241a11.146,11.146,0,0,0-5.115,1.523c-4.679,7.226-3.417,13.167-3.417,13.167,1.566,1.654,6.072,3.09,6.072,3.09l1.2-2.089-1.916-.871.283-.565a13.8,13.8,0,0,0,5.368,1.372,14.019,14.019,0,0,0,4.887-.654q.463-.144.913-.322c.086-.035.863-.42.886-.4l.283.565-1.915.871,1.2,2.089s4.505-1.437,6.072-3.09C4673.73,2983.917,4674.993,2977.975,4670.313,2970.75Zm-12.142,10.49a2.326,2.326,0,1,1,2.128-2.318A2.228,2.228,0,0,1,4658.171,2981.24Zm7.789,0a2.326,2.326,0,1,1,2.127-2.318A2.229,2.229,0,0,1,4665.96,2981.24Z" transform="translate(-4640.585 -2956.976)" fill="#fff"/>
  </g>
</svg>
