<svg xmlns="http://www.w3.org/2000/svg" xmlns:xlink="http://www.w3.org/1999/xlink" width="46" height="46" viewBox="0 0 46 46">
  <defs>
    <clipPath id="clip-path">
      <rect id="Rectangle_291" data-name="Rectangle 291" width="11.743" height="22.091" transform="translate(0 0)" fill="none"/>
    </clipPath>
  </defs>
  <g id="Component_44_2" data-name="Component 44 – 2" transform="translate(1.5 1.5)">
    <g id="Ellipse_175" data-name="Ellipse 175" fill="none" stroke="#fff" stroke-width="1">
      <circle cx="21.5" cy="21.5" r="21.5" stroke="none"/>
      <circle cx="21.5" cy="21.5" r="21" fill="none"/>
    </g>
    <g id="Group_1467" data-name="Group 1467" transform="translate(15.522 10.654)">
      <g id="Group_1466" data-name="Group 1466" transform="translate(0 0)" clip-path="url(#clip-path)">
        <path id="Path_2414" data-name="Path 2414" d="M10.973,12.333l.609-3.968H7.775V5.79a1.984,1.984,0,0,1,2.237-2.144h1.731V.268A21.1,21.1,0,0,0,8.67,0C5.535,0,3.485,1.9,3.485,5.341V8.365H0v3.968H3.485v9.592a13.877,13.877,0,0,0,4.29,0V12.333Z" transform="translate(0 0)" fill="#fff"/>
      </g>
    </g>
  </g>
</svg>
