<svg xmlns="http://www.w3.org/2000/svg" width="46" height="46" viewBox="0 0 46 46">
  <g id="Component_138_1" data-name="Component 138 – 1" transform="translate(1.5 1.5)">
    <g id="Ellipse_177" data-name="Ellipse 177" fill="none" stroke="#fff" stroke-width="1">
      <circle cx="21.5" cy="21.5" r="21.5" stroke="none"/>
      <circle cx="21.5" cy="21.5" r="21" fill="none"/>
    </g>
    <g id="Group_2388" data-name="Group 2388" transform="translate(-1250.024 -547.825)">
      <g id="Group_2387" data-name="Group 2387" transform="translate(1260.749 558.55)">
        <path id="Path_8532" data-name="Path 8532" d="M1271.537,560.494c2.88,0,3.222.011,4.359.063a5.97,5.97,0,0,1,2,.371,3.576,3.576,0,0,1,2.047,2.047,5.964,5.964,0,0,1,.371,2c.052,1.137.063,1.479.063,4.359s-.011,3.222-.063,4.359a5.965,5.965,0,0,1-.371,2,3.573,3.573,0,0,1-2.047,2.047,5.97,5.97,0,0,1-2,.371c-1.137.052-1.479.063-4.359.063s-3.222-.011-4.359-.063a5.97,5.97,0,0,1-2-.371,3.572,3.572,0,0,1-2.047-2.047,5.97,5.97,0,0,1-.371-2c-.052-1.137-.063-1.479-.063-4.359s.011-3.222.063-4.359a5.969,5.969,0,0,1,.371-2,3.574,3.574,0,0,1,2.047-2.047,5.97,5.97,0,0,1,2-.371c1.137-.052,1.479-.063,4.359-.063m0-1.944c-2.93,0-3.3.012-4.448.065a7.921,7.921,0,0,0-2.619.5,5.517,5.517,0,0,0-3.155,3.155,7.917,7.917,0,0,0-.5,2.619c-.053,1.151-.065,1.518-.065,4.447s.012,3.3.065,4.448a7.917,7.917,0,0,0,.5,2.619,5.518,5.518,0,0,0,3.155,3.155,7.921,7.921,0,0,0,2.619.5c1.151.053,1.518.065,4.448.065s3.3-.012,4.448-.065a7.919,7.919,0,0,0,2.619-.5,5.517,5.517,0,0,0,3.155-3.155,7.923,7.923,0,0,0,.5-2.619c.052-1.151.065-1.518.065-4.448s-.012-3.3-.065-4.447a7.922,7.922,0,0,0-.5-2.619,5.516,5.516,0,0,0-3.155-3.155,7.919,7.919,0,0,0-2.619-.5c-1.151-.052-1.518-.065-4.448-.065Z" transform="translate(-1260.749 -558.55)" fill="#fff"/>
        <path id="Path_8533" data-name="Path 8533" d="M1286.964,579.226a5.54,5.54,0,1,0,5.54,5.539A5.54,5.54,0,0,0,1286.964,579.226Zm0,9.135a3.6,3.6,0,1,1,3.6-3.6A3.6,3.6,0,0,1,1286.964,588.361Z" transform="translate(-1276.177 -573.978)" fill="#fff"/>
        <circle id="Ellipse_223" data-name="Ellipse 223" cx="1.294" cy="1.294" r="1.294" transform="translate(15.251 3.735)" fill="#fff"/>
      </g>
    </g>
  </g>
</svg>
