<svg xmlns="http://www.w3.org/2000/svg" xmlns:xlink="http://www.w3.org/1999/xlink" width="47" height="46" viewBox="0 0 47 46">
  <defs>
    <clipPath id="clip-path">
      <rect id="Rectangle_292" data-name="Rectangle 292" width="21.894" height="18.062" fill="#fff"/>
    </clipPath>
  </defs>
  <g id="Component_45_1" data-name="Component 45 – 1" transform="translate(1.5 1.5)">
    <g id="Ellipse_176" data-name="Ellipse 176" fill="none" stroke="#fff" stroke-width="1">
      <ellipse cx="22" cy="21.5" rx="22" ry="21.5" stroke="none"/>
      <ellipse cx="22" cy="21.5" rx="21.5" ry="21" fill="none"/>
    </g>
    <g id="Group_1469" data-name="Group 1469" transform="translate(9.553 11.97)">
      <g id="Group_1468" data-name="Group 1468" transform="translate(0 0)" clip-path="url(#clip-path)">
        <path id="Path_2415" data-name="Path 2415" d="M21.851.389a.467.467,0,0,0-.318-.347A1.637,1.637,0,0,0,20.671.1S1.487,7,.391,7.762c-.236.165-.315.26-.354.372-.189.544.4.783.4.783l4.944,1.611a.541.541,0,0,0,.25-.015c1.125-.711,11.317-7.146,11.9-7.363.093-.028.161,0,.143.068-.236.826-9.088,8.694-9.088,8.694A.432.432,0,0,0,8.538,12L8.526,12l-.462,4.9s-.193,1.5,1.309,0c1.06-1.06,2.086-1.947,2.6-2.379,1.7,1.174,3.53,2.473,4.319,3.152a1.372,1.372,0,0,0,1,.386c.75-.028.959-.851.959-.851s3.5-14.07,3.613-15.955c.012-.185.027-.3.029-.429a1.587,1.587,0,0,0-.043-.436" transform="translate(0 0)" fill="#fff"/>
      </g>
    </g>
  </g>
</svg>
