<svg xmlns="http://www.w3.org/2000/svg" xmlns:xlink="http://www.w3.org/1999/xlink" width="46" height="46" viewBox="0 0 46 46">
  <defs>
    <clipPath id="clip-path">
      <rect id="Rectangle_290" data-name="Rectangle 290" width="23.496" height="19.095" fill="none"/>
    </clipPath>
  </defs>
  <g id="Component_43_1" data-name="Component 43 – 1" transform="translate(1.5 1.5)">
    <g id="Ellipse_174" data-name="Ellipse 174" fill="none" stroke="#fff" stroke-width="1">
      <circle cx="21.5" cy="21.5" r="21.5" stroke="none"/>
      <circle cx="21.5" cy="21.5" r="21" fill="none"/>
    </g>
    <g id="Group_1465" data-name="Group 1465" transform="translate(9.752 11.952)">
      <g id="Group_1464" data-name="Group 1464" clip-path="url(#clip-path)">
        <path id="Path_2413" data-name="Path 2413" d="M7.389,19.1A13.622,13.622,0,0,0,21.105,5.38q0-.313-.014-.623a9.814,9.814,0,0,0,2.4-2.5,9.622,9.622,0,0,1-2.768.759A4.838,4.838,0,0,0,22.848.353a9.663,9.663,0,0,1-3.061,1.17,4.825,4.825,0,0,0-8.215,4.4A13.686,13.686,0,0,1,1.635.883,4.824,4.824,0,0,0,3.128,7.318a4.787,4.787,0,0,1-2.183-.6c0,.02,0,.04,0,.062A4.823,4.823,0,0,0,4.811,11.5a4.816,4.816,0,0,1-2.177.083,4.826,4.826,0,0,0,4.5,3.348A9.672,9.672,0,0,1,1.15,17,9.786,9.786,0,0,1,0,16.93,13.646,13.646,0,0,0,7.389,19.1" fill="#fff"/>
      </g>
    </g>
  </g>
</svg>
