<?xml version="1.0" standalone="no"?>
<!DOCTYPE svg PUBLIC "-//W3C//DTD SVG 20010904//EN"
 "http://www.w3.org/TR/2001/REC-SVG-20010904/DTD/svg10.dtd">
<svg version="1.0" xmlns="http://www.w3.org/2000/svg"
 width="456.000000pt" height="456.000000pt" viewBox="0 0 456.000000 456.000000"
 preserveAspectRatio="xMidYMid meet">
<metadata>
Created by potrace 1.14, written by Peter Selinger 2001-2017
</metadata>
<g transform="translate(0.000000,456.000000) scale(0.100000,-0.100000)"
fill="#000000" stroke="none">
<path d="M2275 3569 c-4 -6 -5 -12 -2 -15 2 -3 7 2 10 11 7 17 1 20 -8 4z"/>
<path d="M1960 3526 c0 -2 8 -10 18 -17 15 -13 16 -12 3 4 -13 16 -21 21 -21
13z"/>
<path d="M2026 3522 c-3 -5 1 -9 9 -9 8 0 12 4 9 9 -3 4 -7 8 -9 8 -2 0 -6 -4
-9 -8z"/>
<path d="M2150 3520 c0 -5 5 -10 11 -10 5 0 7 5 4 10 -3 6 -8 10 -11 10 -2 0
-4 -4 -4 -10z"/>
<path d="M2011 3482 c0 -13 -6 -20 -11 -17 -6 4 -7 11 -4 17 4 7 2 8 -4 4 -6
-4 -8 -14 -5 -22 5 -14 3 -14 -15 -3 -17 11 -23 10 -37 -1 -14 -12 -18 -12
-27 1 -8 11 -9 11 -4 -3 6 -19 -9 -34 -17 -18 -3 6 -4 5 -3 -1 1 -7 13 -14 27
-16 19 -2 21 -1 9 7 -11 8 -7 9 18 5 21 -4 32 -1 32 7 0 6 6 4 13 -6 13 -18
52 -13 41 6 -3 5 -11 4 -20 -3 -10 -8 -14 -8 -14 0 0 6 3 11 8 12 4 0 15 2 25
4 10 2 14 -1 11 -7 -4 -6 -2 -8 4 -4 6 3 9 -1 8 -11 -2 -10 4 -24 13 -31 13
-11 12 -11 -9 -1 -34 18 -64 17 -72 -1 -5 -12 -7 -11 -7 3 -1 10 -5 15 -11 12
-5 -3 -10 -1 -10 5 0 6 -5 8 -10 5 -7 -4 -6 -14 1 -28 9 -20 9 -20 -4 -4 -15
18 -32 24 -22 7 3 -5 2 -10 -3 -10 -6 0 -12 7 -16 15 -3 8 -9 15 -14 15 -5 0
-9 -7 -9 -15 0 -8 4 -15 8 -15 4 0 7 -9 6 -19 0 -11 -5 -17 -9 -15 -5 3 -6 9
-3 14 3 5 1 11 -5 15 -6 4 -8 11 -5 16 4 5 2 9 -3 9 -17 0 -22 -13 -10 -29 10
-13 10 -14 -2 -4 -16 15 -54 -2 -44 -19 4 -7 2 -8 -5 -4 -9 6 -9 11 -1 21 9
11 7 14 -9 12 -24 -2 -24 -1 -10 -30 10 -21 10 -21 -5 -3 -14 17 -20 16 -18
-4 0 -3 -13 -6 -30 -5 -18 0 -33 -6 -36 -14 -3 -9 0 -11 8 -6 8 5 11 4 6 -3
-4 -6 -12 -9 -19 -6 -8 3 -25 -6 -40 -20 -26 -24 -39 -22 -15 2 16 16 -3 15
-25 -2 -12 -9 -14 -16 -8 -21 6 -3 11 -12 11 -18 0 -7 -5 -4 -11 5 -5 9 -16
15 -24 12 -8 -4 -12 -10 -9 -15 3 -5 10 -6 16 -3 7 4 8 2 4 -5 -4 -6 -11 -9
-16 -6 -4 3 -11 -1 -14 -7 -3 -7 -3 0 -1 16 2 16 10 34 16 40 9 8 10 7 4 -3
-5 -10 -4 -12 4 -7 6 4 9 12 6 17 -3 5 2 6 12 3 15 -5 16 -4 3 5 -12 8 -6 10
22 6 26 -3 37 0 35 8 -1 7 4 11 11 9 8 -1 11 2 6 9 -5 8 -3 9 6 4 9 -5 11 -4
6 4 -6 9 -14 8 -32 -3 -31 -21 -40 -20 -23 1 10 12 5 11 -14 -4 -15 -11 -35
-20 -45 -18 -9 1 -11 0 -4 -2 7 -3 10 -8 7 -13 -3 -5 -12 -7 -19 -4 -8 3 -20
-4 -28 -15 -8 -12 -18 -18 -23 -13 -5 4 -4 1 0 -7 6 -11 4 -13 -8 -8 -11 4
-14 2 -11 -8 4 -11 -1 -13 -23 -9 -19 3 -24 2 -14 -5 11 -7 10 -11 -8 -20 -11
-7 -21 -9 -21 -5 0 3 -6 2 -13 -5 -10 -8 -17 -7 -27 2 -12 10 -12 9 -2 -5 10
-13 10 -17 0 -21 -7 -3 2 -4 20 -2 22 3 32 0 29 -8 -2 -7 -11 -11 -21 -9 -9 2
-16 -1 -16 -7 0 -5 11 -8 24 -7 12 2 31 -3 41 -11 11 -7 14 -13 9 -13 -6 0
-14 4 -20 9 -9 10 -44 -9 -47 -26 -1 -4 -8 -6 -16 -5 -8 2 -10 -1 -5 -10 13
-21 13 -37 0 -32 -7 3 -30 -11 -51 -29 -35 -30 -38 -36 -26 -51 9 -10 10 -16
2 -16 -6 0 -11 5 -11 10 0 6 -4 10 -10 10 -5 0 -9 -3 -9 -7 3 -21 -3 -31 -26
-41 -14 -6 -25 -17 -25 -23 0 -8 4 -8 15 1 9 8 15 8 15 2 0 -6 -6 -12 -12 -15
-10 -3 -9 -8 2 -22 9 -11 10 -16 3 -11 -13 7 -17 -3 -14 -34 1 -11 -1 -10 -10
3 -8 13 -7 22 1 33 10 11 10 14 0 14 -8 0 -10 3 -7 7 4 3 2 12 -4 19 -9 11 -7
15 6 20 12 5 13 9 5 14 -9 5 -9 9 -1 14 6 4 11 2 11 -3 0 -6 5 -11 11 -11 5 0
7 5 3 12 -5 7 -3 8 6 3 9 -6 11 -4 5 5 -5 8 -4 11 2 7 15 -9 12 17 -4 31 -8 9
-13 9 -13 2 0 -6 -4 -9 -8 -6 -4 2 -14 0 -22 -5 -11 -7 -7 -8 13 -5 19 3 27 1
24 -7 -2 -7 -15 -12 -29 -12 -14 1 -25 -5 -25 -12 0 -7 4 -13 9 -13 5 0 6 -5
3 -10 -5 -8 -11 -7 -21 1 -23 19 -16 -2 8 -22 11 -11 19 -19 17 -20 -2 0 -13
-2 -24 -4 -11 -2 -21 -9 -23 -15 -2 -5 -8 -7 -14 -4 -6 4 -6 -2 1 -14 14 -26
14 -45 1 -37 -6 4 -17 1 -25 -5 -8 -6 -20 -8 -26 -4 -8 4 -9 3 -5 -5 5 -7 16
-9 29 -5 19 6 20 5 8 -9 -7 -9 -18 -15 -24 -14 -15 3 -17 -33 -3 -52 9 -12 7
-13 -6 -8 -10 3 -17 3 -16 -1 3 -15 -15 -42 -24 -36 -6 4 -5 -3 1 -15 7 -11
15 -21 20 -21 4 0 8 -7 8 -15 0 -8 -3 -15 -6 -15 -10 0 -40 38 -34 43 3 3 -2
4 -11 3 -8 -1 -19 -6 -23 -11 -4 -4 -3 -5 3 -2 6 4 22 -5 34 -18 22 -24 16
-37 -7 -14 -8 8 -13 7 -18 -2 -5 -7 -4 -10 3 -5 6 3 16 -2 21 -13 15 -27 14
-30 -6 -26 -10 1 -12 0 -5 -2 6 -3 12 -9 12 -14 0 -6 -6 -7 -12 -3 -10 6 -10
5 -1 -8 11 -12 9 -18 -7 -33 -16 -15 -18 -21 -7 -33 10 -13 9 -15 -5 -9 -10 3
-20 2 -23 -3 -3 -5 9 -7 26 -5 26 4 29 2 19 -10 -6 -7 -19 -11 -28 -8 -15 4
-15 3 -2 -6 14 -10 7 -16 -13 -12 -5 1 -6 -3 -2 -8 3 -6 12 -8 19 -5 18 7 16
-26 -2 -44 -7 -8 -9 -18 -6 -24 4 -6 0 -14 -7 -19 -12 -7 -11 -9 1 -10 10 0 9
-3 -5 -10 -16 -7 -14 -8 9 -4 26 6 28 4 16 -10 -8 -9 -21 -13 -34 -10 -17 5
-18 4 -5 -4 8 -5 24 -8 35 -6 10 2 24 4 29 4 6 1 3 6 -5 11 -13 9 -13 10 0 10
13 0 13 1 0 10 -13 9 -13 11 -1 19 20 13 64 -23 66 -54 0 -13 -3 -21 -8 -18
-5 3 -7 14 -4 24 6 21 -9 27 -16 7 -2 -7 -3 -5 -2 4 2 10 -4 23 -11 29 -13 10
-14 7 -10 -17 4 -25 0 -31 -28 -45 -30 -14 -35 -14 -45 0 -7 11 -7 7 1 -12 10
-23 13 -25 20 -12 5 8 14 15 20 15 7 0 7 -4 -1 -13 -6 -8 -8 -17 -4 -20 7 -7
-12 -11 -37 -7 -8 1 -13 0 -10 -2 3 -2 14 -10 24 -18 13 -10 17 -10 12 -2 -4
6 -3 12 3 12 5 0 12 -4 15 -8 7 -11 -30 -42 -40 -34 -4 4 -4 1 0 -6 6 -10 11
-10 21 -2 8 7 15 7 19 1 4 -5 -2 -12 -12 -15 -10 -4 -19 -13 -19 -21 0 -8 5
-12 10 -8 5 3 6 -4 3 -18 l-7 -24 14 24 c8 13 17 19 20 14 3 -5 -1 -20 -9 -32
-13 -19 -18 -20 -32 -9 -13 9 -12 7 1 -9 11 -12 16 -27 11 -34 -4 -8 -3 -10 5
-5 6 4 14 0 17 -9 4 -9 13 -14 20 -11 7 3 17 -1 21 -8 5 -7 17 -18 28 -24 11
-6 15 -12 9 -12 -21 0 -10 -32 20 -63 23 -22 25 -27 9 -19 -12 7 -27 20 -32
30 -10 16 -10 16 -11 -2 0 -14 -3 -16 -13 -7 -10 8 -19 7 -33 -4 -19 -15 -19
-15 0 -8 14 5 17 3 11 -7 -6 -10 -4 -11 6 -4 21 13 32 12 58 -8 13 -10 27 -15
32 -12 5 3 6 -2 3 -10 -5 -14 -8 -14 -21 0 -13 13 -18 13 -25 2 -7 -9 -8 -8
-4 5 4 12 2 16 -6 11 -7 -5 -8 -3 -3 5 6 10 3 11 -16 1 -33 -17 -38 -24 -14
-16 14 4 24 0 33 -14 7 -11 8 -20 3 -20 -6 0 -13 5 -16 10 -8 13 -25 13 -25
-1 0 -5 5 -7 10 -4 6 3 15 -6 20 -21 6 -15 12 -25 13 -23 2 2 9 13 17 23 8 11
10 17 4 13 -6 -3 -11 0 -11 8 0 18 13 20 20 3 6 -17 -7 -51 -27 -67 -14 -11
-16 -11 -16 3 0 19 -16 21 -26 4 -5 -7 -3 -8 6 -3 10 6 12 4 7 -7 -4 -11 -1
-15 11 -13 9 2 17 4 17 5 0 1 8 3 17 5 24 4 29 -7 12 -23 -10 -10 -14 -10 -14
-1 0 7 -2 10 -5 7 -3 -3 -3 -12 1 -21 5 -15 8 -14 24 6 14 17 16 25 7 36 -9
11 -9 13 0 8 6 -4 14 -3 18 3 3 5 12 10 18 10 8 0 7 -4 -2 -9 -19 -12 -24 -41
-6 -35 7 3 16 1 19 -4 3 -6 -1 -13 -10 -16 -9 -4 -13 -2 -8 5 4 8 0 7 -15 0
-13 -7 -20 -21 -20 -34 l2 -22 4 23 c6 32 18 27 19 -8 1 -17 -2 -27 -8 -24 -6
4 -5 -3 1 -15 15 -27 17 -27 16 7 -1 15 4 33 9 41 9 12 8 13 -4 6 -9 -5 -12
-4 -7 1 4 4 19 9 33 10 18 1 22 -2 14 -10 -7 -7 -3 -14 12 -23 19 -10 20 -12
6 -13 -10 0 -18 -4 -18 -9 0 -14 30 -7 41 10 5 9 9 10 9 2 0 -6 -4 -15 -10
-18 -5 -3 -10 -14 -10 -23 0 -13 7 -9 26 13 l26 30 -22 -33 c-18 -26 -25 -30
-36 -21 -8 6 -12 15 -9 18 2 4 -3 8 -11 8 -10 0 -8 -7 8 -25 l23 -24 -24 7
c-16 5 -21 4 -17 -4 4 -6 14 -11 22 -11 8 0 14 -5 14 -11 0 -5 -4 -7 -10 -4
-6 4 -7 -1 -3 -11 5 -15 7 -15 15 0 5 9 7 20 4 25 -9 14 24 22 45 11 10 -6 19
-13 19 -16 0 -3 -4 -3 -10 1 -5 3 -7 -7 -5 -26 3 -24 1 -29 -11 -25 -9 3 -18
6 -20 6 -2 0 -4 5 -4 10 0 6 4 9 9 8 5 -2 9 0 10 5 3 23 0 37 -9 37 -5 0 -7
-6 -4 -14 3 -8 1 -17 -5 -21 -18 -11 -12 -24 18 -40 19 -9 32 -11 36 -5 3 6
11 10 17 10 6 0 5 -7 -3 -17 -10 -11 -10 -14 -1 -9 6 4 12 2 12 -4 0 -8 6 -8
20 0 18 10 18 40 -1 40 -4 0 -6 -7 -3 -15 4 -8 1 -15 -6 -15 -6 0 -9 4 -5 9 7
12 -29 33 -40 23 -5 -4 -5 -1 -1 6 5 8 13 9 24 3 11 -6 25 -5 37 1 11 6 17 7
13 3 -13 -14 11 -45 30 -39 13 5 14 4 3 -4 -7 -5 -10 -15 -6 -22 6 -9 9 -9 15
1 7 10 12 10 22 1 10 -8 18 -8 25 -1 6 6 10 5 10 -5 0 -8 -4 -13 -9 -10 -17
11 -7 -14 13 -32 21 -19 22 -19 15 4 -4 12 -3 22 2 22 5 0 9 -6 9 -12 0 -7 4
-22 8 -33 5 -16 5 -17 -4 -5 -9 13 -11 13 -11 0 0 -11 -2 -12 -8 -3 -5 8 -13
9 -22 3 -13 -8 -12 -10 3 -10 12 0 16 -4 11 -12 -6 -10 -4 -10 8 0 10 8 19 9
22 4 3 -6 -1 -12 -9 -16 -8 -3 -15 -11 -15 -18 0 -9 3 -9 10 2 7 12 13 9 34
-13 14 -16 26 -24 26 -19 0 5 -7 15 -15 22 -15 13 -12 30 6 30 6 0 8 -4 5 -9
-3 -5 1 -14 9 -21 8 -7 12 -17 8 -23 -4 -6 -1 -7 7 -2 10 6 12 4 6 -11 -6 -15
-5 -16 5 -7 10 10 9 16 -1 28 -7 8 -10 18 -8 21 7 7 49 -46 44 -55 -3 -4 4 -7
14 -7 18 0 18 1 -2 20 -19 18 -20 20 -4 26 16 5 17 7 2 19 -14 11 -16 11 -16
-3 0 -10 -5 -14 -10 -11 -6 4 -7 11 -4 17 4 6 2 8 -3 5 -6 -4 -13 0 -17 8 -3
8 0 17 6 21 7 4 8 3 4 -4 -7 -12 5 -16 32 -13 6 1 12 -3 12 -9 0 -5 5 -10 11
-10 5 0 7 5 3 12 -4 6 -3 8 4 4 5 -3 13 0 16 6 3 7 4 4 3 -7 -1 -13 3 -19 13
-17 12 3 13 1 3 -9 -7 -7 -13 -18 -13 -23 1 -6 10 0 22 14 12 15 19 18 15 8
-3 -9 -3 -19 1 -21 4 -2 2 -2 -5 -1 -7 2 -15 -1 -18 -6 -3 -5 -12 -7 -21 -3
-11 4 -12 9 -4 18 6 7 7 16 2 18 -4 3 -13 -3 -20 -13 -10 -16 -8 -20 11 -27
31 -11 71 -10 80 2 5 6 7 3 3 -7 -5 -18 9 -26 16 -9 2 5 10 2 18 -7 13 -14 12
-15 -3 -9 -9 3 -23 0 -31 -8 -7 -8 -17 -11 -21 -7 -5 4 -5 2 -1 -5 4 -7 -2
-14 -15 -18 -11 -4 -18 -9 -15 -12 3 -3 20 4 38 15 18 11 41 18 51 17 15 -3
22 7 18 28 -1 5 3 6 8 2 16 -9 -9 -54 -30 -52 -10 1 -15 6 -11 12 3 5 -1 4
-10 -3 -19 -16 -20 -59 -1 -66 9 -4 11 -2 6 7 -4 6 -9 20 -10 31 -3 16 -1 17
12 6 8 -7 12 -16 9 -21 -3 -5 -2 -9 3 -8 22 4 34 -2 27 -14 -6 -9 -4 -9 7 0
23 22 33 14 13 -9 -16 -20 -15 -19 10 2 l28 25 -7 -24 c-6 -20 -4 -23 9 -18
17 7 40 -25 28 -38 -4 -5 -2 -5 5 -1 7 4 10 12 7 19 -3 8 4 13 17 14 17 2 18
-1 8 -13 -15 -19 -4 -31 15 -15 12 10 16 8 21 -8 5 -16 10 -19 23 -12 33 17
82 2 96 -29 3 -8 4 -1 0 15 -4 23 -3 27 7 18 9 -9 17 -8 35 3 20 14 23 14 32
-3 9 -14 6 -20 -11 -30 -21 -11 -21 -11 5 -10 20 2 25 6 22 23 -3 19 0 21 30
19 38 -3 62 8 52 24 -4 6 -12 8 -18 5 -7 -5 -8 -2 -3 6 5 9 2 10 -13 6 -23 -8
-51 27 -32 39 6 4 10 3 9 -2 -4 -22 3 -31 24 -30 12 0 30 -3 40 -8 13 -5 16
-3 12 7 -3 8 3 22 14 32 11 10 18 23 14 29 -4 6 -1 7 6 2 9 -5 10 -10 2 -18
-6 -6 -11 -16 -11 -21 1 -6 9 -1 20 12 11 13 24 21 29 18 5 -3 14 1 21 9 11
13 8 14 -19 11 -17 -2 -28 1 -25 6 3 5 12 7 19 4 7 -2 22 2 33 9 10 8 23 11
27 7 5 -4 5 2 2 13 -7 20 -7 20 8 1 8 -11 15 -18 16 -15 6 33 10 43 25 54 10
7 24 11 31 8 7 -3 13 1 13 9 0 7 10 19 23 27 22 14 22 14 3 -8 -11 -11 -15
-21 -10 -21 5 0 2 -5 -6 -11 -13 -10 -13 -10 1 -6 9 3 16 -1 16 -9 0 -7 -4
-11 -9 -8 -4 3 -23 -6 -41 -20 -19 -14 -37 -23 -42 -18 -5 4 -5 1 -1 -5 4 -7
3 -13 -3 -13 -5 0 -11 3 -14 8 -2 4 -2 0 0 -8 2 -11 -1 -10 -11 3 -8 11 -17
14 -20 8 -4 -5 3 -16 15 -24 13 -9 16 -17 10 -22 -6 -3 -14 1 -17 9 -3 9 -10
13 -15 10 -5 -3 -7 -9 -4 -14 3 -5 -3 -7 -15 -5 -11 2 -22 -1 -26 -6 -4 -7 6
-9 27 -5 19 3 40 0 48 -7 12 -9 13 -9 7 1 -4 7 -2 12 4 12 7 0 10 7 6 15 -7
18 5 20 22 3 15 -15 16 -31 0 -22 -7 5 -8 3 -3 -6 6 -10 10 -10 20 3 9 13 15
14 25 4 12 -10 12 -9 1 6 -13 16 -8 22 14 17 6 -1 6 2 2 6 -4 4 3 14 15 21 13
7 18 12 11 13 -6 0 -24 -11 -40 -24 -24 -20 -30 -21 -41 -10 -12 13 -8 18 12
15 13 -3 36 20 30 30 -3 5 11 7 30 4 21 -2 36 0 36 6 0 6 -5 7 -10 4 -17 -10
-5 33 15 55 10 11 13 20 7 20 -6 0 -17 -9 -25 -21 -8 -11 -17 -17 -20 -12 -6
9 57 57 77 59 6 0 17 2 24 2 7 1 17 12 23 25 8 19 9 18 4 -8 l-5 -30 19 23
c12 13 22 18 26 12 3 -5 1 -10 -5 -10 -6 0 -8 -5 -4 -12 5 -7 11 -5 21 7 7 11
13 13 13 6 0 -7 4 -10 10 -6 5 3 7 13 4 23 -4 13 -2 12 7 -3 12 -19 12 -19 20
0 7 18 8 18 8 2 1 -10 5 -16 11 -12 5 3 7 12 3 20 -3 8 -3 15 0 15 15 0 57
-24 57 -32 0 -5 -4 -7 -8 -4 -4 2 -14 1 -22 -5 -13 -7 -13 -9 0 -9 13 0 13 -1
0 -10 -8 -5 -11 -12 -7 -16 3 -4 16 4 27 17 l21 24 -5 -25 c-3 -14 -3 -19 0
-12 3 6 15 12 25 12 11 0 17 -4 14 -10 -3 -5 -1 -10 4 -10 19 0 12 22 -9 27
-11 3 -17 10 -13 16 3 6 1 7 -5 3 -7 -4 -12 -2 -12 3 0 6 5 11 11 11 5 0 7 5
4 10 -4 6 -3 10 2 9 21 -4 34 2 27 13 -5 7 -3 8 5 4 7 -5 10 -11 7 -14 -3 -3
1 -13 10 -23 14 -16 14 -17 -3 -14 -10 1 -17 8 -15 14 3 13 -15 15 -23 2 -5
-9 17 -27 37 -30 4 -1 15 -4 23 -8 9 -3 19 -3 22 1 4 3 -1 6 -11 6 -9 0 -14 5
-11 10 4 6 15 8 26 5 21 -7 26 9 7 21 -6 4 -8 3 -5 -2 3 -5 -3 -10 -13 -10
-10 0 -16 4 -14 8 3 4 0 8 -5 8 -6 0 -11 5 -11 12 0 9 3 9 12 0 18 -18 33 -15
18 4 -11 12 -11 15 1 12 8 -2 13 2 12 9 -1 6 5 17 14 25 14 11 16 11 8 -2 -13
-21 -15 -39 -4 -46 5 -3 9 3 10 13 0 16 1 16 9 -2 7 -18 8 -19 15 -2 9 22 17
22 44 -2 13 -11 29 -17 38 -14 11 5 12 7 2 14 -7 4 -17 5 -22 2 -5 -3 -4 4 2
15 8 15 8 22 -2 25 -6 3 3 4 21 3 18 -2 35 0 38 5 3 5 0 9 -5 9 -6 0 -11 5
-11 12 0 9 3 9 12 0 17 -17 33 -15 18 3 -9 10 -9 15 -1 15 6 0 11 -3 11 -8 0
-4 9 -13 19 -19 15 -10 20 -9 25 2 3 8 0 17 -6 21 -7 5 -8 2 -3 -7 8 -12 6
-12 -9 0 -9 8 -22 24 -27 35 -9 20 -9 20 5 3 14 -18 15 -18 26 0 10 16 11 16
6 1 -3 -11 2 -22 14 -28 18 -10 19 -13 5 -33 -10 -16 -11 -26 -4 -37 9 -13 10
-13 6 1 -7 22 21 61 36 52 7 -4 7 0 -1 10 -12 15 -11 16 17 12 30 -3 58 16 47
33 -7 12 23 54 35 47 5 -4 9 -1 9 5 0 6 -11 8 -24 6 -38 -7 -38 3 0 49 31 38
33 44 17 49 -15 4 -15 4 2 3 24 -2 45 10 45 26 0 8 -3 8 -12 -1 -7 -7 -17 -12
-23 -12 -5 0 5 10 22 21 18 12 31 25 28 30 -7 11 14 51 32 62 12 8 12 11 -2
27 -12 14 -13 20 -4 26 7 4 10 3 5 -4 -3 -6 -2 -13 4 -17 5 -3 10 -1 10 4 0 6
5 11 11 11 8 0 8 -5 -1 -15 -10 -12 -10 -15 1 -15 9 -1 8 -4 -4 -11 -9 -6 -14
-15 -11 -21 4 -6 2 -8 -4 -4 -6 3 -14 1 -18 -5 -5 -8 -2 -10 7 -5 8 4 6 1 -3
-7 -10 -8 -18 -18 -18 -22 0 -4 8 -4 18 -1 15 5 15 5 2 -6 -14 -12 -14 -15 2
-30 10 -10 18 -14 18 -9 0 6 -5 13 -10 16 -12 7 -4 25 11 25 6 0 7 -4 4 -10
-4 -6 1 -7 11 -3 16 6 15 8 -4 16 -25 11 -30 30 -6 20 20 -8 36 17 22 34 -11
14 2 18 18 6 5 -5 1 -1 -8 9 -24 22 -23 29 5 24 12 -2 21 -10 19 -17 -2 -8 0
-10 4 -6 11 10 14 38 4 32 -4 -3 -11 2 -14 11 -3 8 -10 13 -15 10 -5 -4 -11
-3 -14 1 -2 5 -2 3 -1 -4 2 -7 -3 -10 -11 -6 -8 3 -13 9 -10 13 3 5 2 10 -2
13 -5 2 -3 3 3 1 6 -1 12 8 12 22 0 13 -4 21 -9 18 -5 -3 -9 0 -9 6 0 7 7 9
16 6 9 -3 17 -6 19 -6 2 0 2 -11 -1 -25 -2 -14 -1 -25 3 -25 16 1 46 30 38 37
-4 5 -10 2 -12 -5 -3 -6 -9 -9 -15 -6 -6 4 -1 12 12 19 13 7 25 20 26 29 1 9
-2 14 -7 10 -5 -3 -7 -9 -4 -14 3 -4 -2 -11 -11 -14 -23 -9 -26 -8 -18 7 4 6
4 9 -1 5 -4 -4 -16 -3 -27 3 -20 11 -19 11 3 35 18 20 20 26 9 39 -7 9 -9 15
-4 14 20 -4 35 2 29 11 -3 5 -13 6 -23 3 -14 -5 -14 -3 2 9 19 15 19 15 0 26
-14 9 -15 12 -4 13 8 1 18 1 23 0 16 -2 6 18 -13 24 -16 5 -18 10 -10 25 16
30 12 35 -12 14 l-23 -19 22 25 22 26 -22 14 c-12 8 -25 13 -29 12 -5 -1 -8 2
-8 8 0 15 16 12 30 -5 7 -8 16 -15 20 -15 12 0 4 41 -11 51 -10 6 -10 9 -1 9
18 0 27 -4 25 -12 -2 -4 9 -4 24 -2 22 4 24 3 14 -10 -7 -8 -19 -12 -27 -9 -8
3 -14 0 -14 -7 0 -6 4 -9 8 -6 4 2 8 -11 8 -30 0 -19 -4 -34 -8 -34 -4 0 -8
-7 -8 -15 0 -8 5 -15 11 -15 5 0 8 4 4 9 -3 5 -2 12 3 15 4 2 8 -13 8 -34 0
-23 -4 -36 -9 -33 -6 3 -7 1 -3 -6 5 -8 12 -9 19 -3 7 5 20 8 29 7 9 -2 25 7
35 18 17 21 17 21 -1 7 -10 -8 -24 -15 -32 -16 -23 -4 -28 18 -8 34 16 12 16
14 2 9 -10 -3 -20 -2 -23 3 -4 6 0 10 7 10 8 0 9 3 3 8 -13 9 -17 32 -6 32 5
0 12 -6 14 -12 4 -10 6 -10 6 -1 1 7 -8 17 -20 24 l-21 11 22 23 c15 16 18 25
10 30 -6 4 -9 13 -6 21 3 8 2 13 -2 13 -19 -3 -23 2 -12 16 10 12 9 16 -4 21
-9 3 -13 10 -10 15 3 5 0 9 -5 9 -6 0 -11 -5 -11 -11 0 -5 -4 -8 -9 -4 -12 7
-6 42 11 64 12 14 11 15 -4 2 -11 -8 -18 -9 -18 -3 0 6 5 14 10 17 7 4 6 14
-2 28 -7 12 -13 25 -14 30 -1 4 -2 10 -3 13 0 4 -8 1 -16 -6 -9 -8 -15 -9 -15
-2 0 6 5 14 10 17 15 9 12 22 -6 29 -14 5 -15 4 -4 -9 10 -12 9 -16 -3 -21
-15 -5 -15 -8 -1 -29 10 -16 12 -25 4 -30 -6 -3 -7 -11 -4 -17 10 -16 24 14
18 37 -6 19 -5 19 11 3 11 -10 14 -21 9 -30 -8 -13 -9 -16 -13 -48 0 -9 -8 -3
-20 15 -12 20 -15 34 -9 42 7 8 2 20 -16 38 -22 22 -20 31 8 26 5 -1 2 9 -7
22 -10 16 -12 28 -6 40 8 13 6 15 -7 10 -12 -4 -15 -3 -10 5 4 7 2 12 -3 12
-6 0 -11 5 -11 11 0 5 6 7 13 3 16 -10 -14 28 -31 39 -9 6 -9 14 -1 30 9 19 8
19 -10 -3 -11 -14 -23 -21 -28 -16 -4 5 -3 11 4 13 9 3 10 9 1 23 -9 14 -15
16 -29 7 -16 -10 -16 -12 -1 -25 12 -10 13 -12 2 -7 -10 4 -9 2 2 -8 10 -8 14
-18 10 -22 -4 -4 3 -3 14 3 18 9 25 8 39 -8 10 -11 14 -20 8 -20 -5 0 -10 -7
-10 -15 0 -8 4 -12 9 -9 4 3 8 0 8 -5 0 -6 -5 -11 -11 -11 -5 0 -8 -4 -5 -9 4
-5 -4 -6 -16 -3 -21 6 -21 7 -4 10 15 3 16 6 5 13 -8 5 -20 2 -30 -7 -14 -12
-16 -12 -16 0 0 8 3 14 6 13 10 -3 12 7 5 27 -7 17 -8 17 -21 -5 -13 -22 -12
-11 4 28 5 12 3 14 -8 8 -8 -4 -11 -5 -7 0 4 4 2 17 -4 29 -18 31 -19 50 -4
36 10 -7 17 -6 27 7 13 17 13 17 -5 3 -18 -14 -19 -13 -13 2 5 15 3 16 -18 6
-13 -6 -21 -16 -19 -23 3 -7 -2 -15 -12 -19 -13 -5 -14 -4 -6 7 9 10 8 17 0
25 -19 19 -32 14 -17 -5 12 -16 12 -17 -2 -6 -9 7 -20 9 -24 5 -5 -4 -5 -2 -2
4 4 7 0 15 -9 18 -13 5 -14 9 -4 21 9 11 8 14 -7 14 -43 1 -51 5 -45 19 3 9 1
13 -5 9 -14 -9 -24 18 -16 41 5 13 1 12 -19 -5 -13 -13 -28 -23 -32 -23 -5 0
2 9 15 20 13 10 19 19 14 20 -6 0 -16 -5 -23 -12 -9 -9 -12 -9 -12 0 0 7 5 12
11 12 5 0 7 5 4 10 -4 6 -11 7 -17 4 -16 -10 -28 17 -17 38 5 10 22 24 37 32
15 9 22 15 17 16 -6 0 -20 -7 -32 -15 -12 -8 -24 -11 -27 -6 -3 5 1 11 9 15 8
3 15 10 15 16 0 6 -10 2 -22 -10 -23 -21 -51 -29 -30 -8 7 7 12 16 12 22 0 5
-6 2 -14 -9 -12 -17 -14 -16 -32 13 -18 32 -46 48 -73 43 -8 -1 -10 2 -5 10 4
7 3 10 -4 5 -6 -3 -13 -2 -17 4 -3 5 0 10 7 10 9 0 9 3 -2 10 -8 5 -10 10 -5
10 6 0 3 5 -5 10 -8 5 -24 7 -35 4 -19 -6 -19 -5 -3 12 15 15 20 15 35 4 17
-13 17 -13 1 4 -10 12 -21 15 -29 10 -8 -4 -20 -9 -29 -11 -60 -10 -69 -10
-64 -2 8 14 -20 11 -35 -3 -8 -7 -6 -1 3 13 14 22 14 28 3 38 -8 6 -17 8 -21
4 -4 -4 -4 0 -1 9 5 14 2 16 -15 13 -18 -3 -20 -2 -10 10 15 18 6 19 -21 5
-10 -6 -19 -8 -19 -6 0 3 9 10 21 16 16 9 24 8 39 -5 10 -9 23 -14 29 -11 6 4
8 -2 6 -14 -2 -11 0 -18 5 -15 5 3 11 1 14 -4 4 -5 1 -13 -4 -16 -7 -5 -5 -12
7 -21 26 -19 39 -17 21 4 -16 19 -17 30 -5 50 5 7 4 12 -2 12 -6 0 -11 -5 -11
-11 0 -5 -4 -8 -10 -4 -5 3 -7 11 -4 18 2 7 -6 17 -18 22 -16 7 -22 18 -21 35
l2 25 -11 -22 c-6 -13 -16 -23 -21 -23 -6 0 -7 3 -4 6 3 4 2 15 -3 24 -8 15
-14 16 -34 7 -13 -6 -21 -17 -19 -24 3 -7 -1 -13 -8 -13 -7 0 -9 3 -6 7 4 3 0
15 -10 25 -9 10 -13 18 -8 18 4 0 2 7 -5 15 -16 20 1 19 26 -1 10 -8 14 -13 7
-10 -6 4 -14 3 -17 -2 -2 -4 4 -8 13 -9 13 -1 19 5 19 23 0 13 -4 27 -9 30 -5
3 -6 -2 -3 -11 5 -11 2 -14 -9 -9 -9 3 -14 13 -10 22 4 15 3 15 -6 2 -9 -13
-12 -12 -24 4 -13 17 -14 17 -20 2 -4 -9 -3 -14 2 -11 5 3 12 1 16 -5 3 -5 -1
-10 -9 -10 -8 0 -18 -5 -22 -11 -4 -8 1 -9 17 -5 20 6 20 4 -5 -10 -21 -12
-31 -13 -40 -4 -8 8 -6 9 9 4 18 -7 19 -6 5 11 -12 15 -12 17 -1 10 11 -6 13
-4 8 7 -3 9 0 21 6 27 8 8 8 11 -2 11 -7 0 -9 5 -6 10 3 6 1 10 -5 10 -7 0 -9
-8 -5 -19 7 -22 -10 -37 -21 -20 -5 8 -3 9 7 4 12 -8 12 -6 0 9 -11 13 -11 20
-3 28 7 7 12 19 12 28 0 8 -7 3 -14 -13 -15 -27 -14 -55 1 -80 4 -6 -5 -4 -20
6 -15 10 -32 15 -37 12 -5 -3 -7 0 -4 8 3 8 -2 14 -11 14 -10 0 -14 -6 -10
-15 4 -12 2 -12 -8 -4 -8 7 -17 9 -20 5 -4 -3 -15 5 -25 17 -23 28 -52 35 -53
12 0 -12 -3 -10 -9 6 -12 29 -22 28 -16 -2 3 -19 1 -23 -11 -19 -8 3 -11 9 -6
12 7 5 8 28 4 68 0 7 -8 10 -18 6 -11 -4 -14 -3 -9 5 4 7 2 12 -3 12 -19 0
-12 -22 9 -27 11 -3 17 -9 14 -14 -3 -5 -14 -5 -25 1 -10 6 -19 7 -19 3 0 -4
-4 -1 -10 7 -6 9 -5 17 3 22 9 6 9 8 0 8 -7 0 -16 -7 -21 -16 -8 -14 -10 -14
-21 0 -16 19 -40 21 -43 4 0 -7 -2 -17 -2 -23 -3 -16 -24 -50 -28 -45 -2 3
-12 18 -21 33 -10 15 -22 25 -27 22 -5 -3 -11 5 -13 17 l-4 23 -2 -23z m138
-14 c6 -7 16 -14 22 -14 5 -1 11 -3 14 -4 3 -1 10 -3 15 -4 6 0 10 -5 11 -11
1 -5 5 -19 11 -30 9 -20 9 -20 -6 -1 -18 22 -62 34 -50 14 6 -10 4 -10 -7 -2
-8 6 -21 10 -29 9 -11 -2 -15 5 -14 24 1 14 2 27 3 29 3 6 18 1 30 -10z m-183
-15 c-10 -11 -37 -12 -30 -2 3 5 12 9 21 9 9 0 13 -3 9 -7z m277 -28 c-3 -9
-8 -14 -10 -11 -3 3 -2 9 2 15 9 16 15 13 8 -4z m-123 -19 c0 -2 -7 -9 -15
-16 -13 -11 -14 -10 -9 4 5 14 24 23 24 12z m79 -10 c8 -10 9 -16 1 -21 -6 -4
-9 -1 -8 7 2 7 -3 12 -10 10 -8 -1 -11 2 -7 8 8 13 10 13 24 -4z m-194 -5 c3
-5 2 -12 -3 -15 -5 -3 -9 1 -9 9 0 17 3 19 12 6z m324 -4 c8 -10 7 -14 -4 -14
-8 0 -12 4 -9 8 2 4 -2 10 -8 12 -8 4 -9 6 -2 6 6 1 17 -5 23 -12z m-489 -21
c0 -3 -4 -8 -10 -11 -5 -3 -10 -1 -10 4 0 6 5 11 10 11 6 0 10 -2 10 -4z m605
-25 c3 -5 0 -13 -6 -17 -7 -4 -9 -3 -5 4 3 5 0 13 -6 15 -9 4 -10 6 -1 6 6 1
14 -3 18 -8z m-676 -14 c-2 -2 -11 -8 -20 -15 -12 -9 -16 -9 -16 1 0 7 9 14
20 14 11 1 18 1 16 0z m791 -1 c0 -9 -32 -36 -42 -36 -6 0 0 9 13 20 25 21 29
23 29 16z m85 -45 c2 -11 0 -21 -6 -21 -5 0 -9 5 -9 11 0 5 -4 7 -10 4 -14 -9
-12 3 3 19 14 17 16 15 22 -13z m-1091 4 c-4 -8 -9 -15 -13 -15 -11 0 -10 -33
2 -47 6 -9 6 -13 -2 -13 -6 0 -11 5 -11 10 0 6 -5 10 -11 10 -5 0 -7 -4 -4
-10 3 -5 1 -10 -4 -10 -6 0 -11 5 -11 11 0 5 -5 7 -12 3 -7 -5 -5 -12 8 -22
16 -12 16 -14 2 -9 -19 7 -43 -24 -30 -39 4 -5 -1 -2 -10 5 -20 15 -25 26 -7
15 7 -4 10 -1 7 7 -3 8 -11 13 -17 12 -6 -2 -11 0 -11 5 0 8 42 37 51 35 4 -1
21 13 38 32 34 38 44 43 35 20z m131 6 c3 -5 2 -12 -3 -15 -5 -3 -9 1 -9 9 0
17 3 19 12 6z m885 -5 c0 -2 -7 -7 -16 -10 -8 -3 -12 -2 -9 4 6 10 25 14 25 6z
m121 -33 c13 -16 12 -17 -3 -4 -17 13 -22 21 -14 21 2 0 10 -8 17 -17z m-79 0
c-6 -2 -9 -10 -6 -15 4 -7 2 -8 -5 -4 -13 9 -5 26 12 25 9 0 8 -2 -1 -6z m85
-69 c-3 -3 -12 -4 -19 -1 -8 3 -5 6 6 6 11 1 17 -2 13 -5z m-1203 -20 c3 -8 2
-12 -4 -9 -6 3 -10 10 -10 16 0 14 7 11 14 -7z m1306 -24 c-13 -9 -13 -10 0
-10 11 -1 11 -3 -3 -11 -10 -6 -21 -8 -24 -5 -8 8 17 36 31 36 6 0 4 -5 -4
-10z m-46 -18 c2 -4 -4 -8 -14 -8 -10 0 -16 4 -14 8 3 4 9 8 14 8 5 0 11 -4
14 -8z m96 -2 c0 -22 2 -26 22 -48 13 -13 24 -18 28 -12 4 7 17 3 34 -11 15
-12 25 -24 22 -26 -6 -7 39 -44 51 -42 20 3 25 -2 13 -16 -7 -8 -18 -15 -24
-15 -6 0 -4 5 4 11 12 9 11 10 -7 6 -15 -3 -20 -1 -17 8 3 8 -2 12 -13 12 -10
-1 -17 4 -15 11 1 6 -2 12 -8 12 -5 0 -10 -7 -10 -15 0 -12 -4 -11 -20 5 -10
10 -28 17 -40 15 -11 -2 -20 1 -20 6 0 5 7 9 16 7 10 -2 19 4 22 12 3 8 1 12
-3 7 -5 -4 -17 1 -28 10 -19 17 -20 17 -14 1 3 -10 2 -20 -3 -23 -4 -3 -7 6
-5 20 1 17 -4 29 -16 36 -12 6 -19 6 -19 0 0 -5 6 -12 13 -14 9 -4 9 -6 0 -6
-24 -2 -25 22 -2 40 27 21 39 24 39 9z m-1403 -16 c-3 -3 -12 -4 -19 -1 -8 3
-5 6 6 6 11 1 17 -2 13 -5z m588 -44 c3 -6 -1 -7 -9 -4 -18 7 -21 14 -7 14 6
0 13 -4 16 -10z m30 0 c3 -5 1 -10 -4 -10 -6 0 -11 5 -11 10 0 6 2 10 4 10 3
0 8 -4 11 -10z m730 0 c3 -6 -1 -7 -9 -4 -18 7 -21 14 -7 14 6 0 13 -4 16 -10z
m-855 -19 c-7 -13 -7 -22 0 -26 5 -3 10 -1 10 6 0 7 3 9 7 5 4 -3 13 4 20 16
7 13 12 17 13 11 0 -7 -9 -22 -20 -33 -10 -10 -15 -22 -10 -25 5 -3 15 4 24
16 9 13 19 18 27 13 9 -5 10 -2 6 10 -4 11 -3 15 4 11 13 -9 6 -30 -11 -30 -7
0 -15 -6 -18 -14 -3 -8 0 -11 6 -7 15 9 34 -28 25 -50 -4 -12 -3 -15 5 -10 9
5 9 1 2 -18 -9 -24 -6 -30 11 -28 3 1 6 -6 6 -13 0 -12 -3 -12 -16 -2 -12 10
-14 9 -8 -6 4 -11 3 -16 -3 -12 -5 3 -8 21 -5 40 3 26 1 33 -10 29 -8 -3 -12
-15 -9 -30 3 -16 -1 -27 -11 -30 -8 -3 -12 -10 -9 -15 3 -6 0 -16 -6 -24 -10
-12 -10 -15 1 -15 8 0 1 -10 -14 -21 -22 -17 -25 -24 -16 -35 9 -11 8 -15 -5
-20 -9 -3 -13 -11 -10 -16 4 -6 -4 -3 -17 6 -17 10 -29 12 -39 6 -8 -5 -11
-10 -5 -10 5 0 -1 -7 -13 -16 -12 -8 -28 -12 -35 -8 -9 6 -9 4 1 -7 9 -10 15
-10 24 -1 7 7 17 12 23 12 5 -1 0 -9 -13 -20 l-23 -19 41 4 c23 2 38 0 35 -6
-4 -5 -13 -9 -21 -9 -8 0 -14 -2 -14 -4 0 -2 -3 -12 -6 -20 -4 -11 -2 -15 8
-11 9 4 19 -4 26 -22 10 -23 10 -25 0 -12 -7 9 -21 15 -31 13 -9 -1 -15 2 -12
6 3 5 0 12 -5 15 -8 5 -5 14 7 28 12 13 13 17 3 11 -8 -5 -18 -9 -22 -10 -5
-1 -11 -2 -15 -3 -3 0 1 -9 10 -19 10 -10 14 -22 11 -25 -4 -4 -13 1 -21 11
-12 15 -13 14 -2 -7 10 -21 9 -26 -7 -38 -19 -14 -13 -17 34 -15 17 1 22 -3
18 -13 -3 -10 1 -15 11 -15 27 0 8 -10 -27 -14 l-34 -4 25 20 c18 14 19 17 4
10 -11 -5 -26 -8 -33 -6 -7 1 -8 0 -3 -2 6 -3 7 -13 4 -21 -5 -12 -2 -15 10
-10 9 3 19 2 22 -3 3 -5 13 -7 23 -4 14 5 14 3 -2 -6 -14 -10 -20 -10 -26 0
-5 8 -9 4 -13 -11 -5 -20 -8 -21 -24 -8 -16 12 -16 11 1 -9 21 -25 12 -30 -14
-7 -14 13 -16 12 -16 -5 0 -10 4 -16 9 -13 4 2 14 -1 22 -7 11 -9 18 -9 32 0
17 11 17 11 0 6 -11 -4 -16 -2 -12 5 4 5 15 7 25 4 13 -4 17 -1 16 11 0 9 5
18 12 20 7 1 8 0 2 -3 -5 -2 -10 -9 -10 -14 0 -6 6 -7 13 -3 6 4 9 4 5 -1 -4
-4 -2 -15 5 -24 11 -14 10 -14 -5 -2 -10 7 -18 12 -19 10 -4 -20 -10 -62 -13
-97 -3 -34 -1 -41 9 -32 10 8 15 8 21 -1 4 -7 3 -9 -3 -6 -6 4 -17 -1 -24 -10
-12 -14 -11 -15 11 -10 14 4 19 4 12 1 -6 -3 -10 -10 -7 -15 4 -5 -1 -6 -10
-3 -11 5 -14 2 -9 -10 3 -9 1 -16 -4 -16 -6 0 -9 9 -7 20 2 11 0 22 -6 25 -5
4 -5 14 2 26 6 12 8 23 5 27 -3 3 -6 0 -6 -7 0 -7 -5 -9 -11 -5 -7 4 -8 9 0
17 7 7 7 16 0 28 -7 15 -6 17 6 13 8 -4 15 -1 15 6 0 6 -5 8 -12 4 -7 -4 -8
-3 -4 5 4 6 12 9 17 6 5 -4 9 -1 9 4 0 16 -7 14 -48 -15 -25 -17 -30 -24 -14
-19 13 4 22 2 22 -4 0 -10 -14 -15 -33 -12 -5 1 -6 -3 -2 -8 3 -6 11 -8 18 -5
9 3 13 -5 12 -26 0 -25 -4 -30 -17 -26 -10 2 -16 0 -12 -5 3 -5 11 -9 18 -9
17 0 38 -25 29 -33 -3 -4 -11 1 -18 10 -10 14 -12 13 -11 -8 1 -16 -4 -23 -14
-21 -8 2 -12 0 -8 -4 4 -4 3 -13 -3 -20 -8 -9 -5 -16 12 -24 22 -12 21 -13
-17 -32 -36 -18 -22 -20 19 -3 12 5 17 3 15 -6 -4 -19 24 -18 30 1 4 12 3 13
-10 3 -12 -10 -15 -10 -15 2 0 8 4 12 8 9 4 -2 11 1 15 7 4 7 3 9 -3 6 -5 -3
-10 0 -10 7 0 8 6 12 14 9 7 -3 13 0 13 5 0 6 -9 9 -19 7 -19 -3 -36 17 -24
29 10 10 25 7 18 -3 -3 -5 -1 -12 4 -16 6 -3 8 4 6 15 -2 11 0 18 6 15 5 -4 7
-10 4 -15 -3 -5 -1 -11 5 -15 5 -3 10 2 11 12 0 10 3 13 5 6 3 -6 -2 -25 -10
-41 -8 -16 -12 -32 -9 -35 3 -4 0 -14 -8 -24 -12 -15 -12 -16 4 -10 11 4 16 3
12 -4 -4 -5 -15 -7 -26 -4 -14 5 -17 2 -13 -8 3 -8 -2 -17 -10 -20 -20 -8 -37
15 -26 33 8 12 10 10 10 -9 0 -25 12 -22 16 4 4 26 -24 23 -46 -5 -14 -18 -28
-27 -38 -24 -10 3 -5 -2 9 -10 20 -11 26 -22 23 -41 -1 -18 2 -25 10 -22 24 9
10 -32 -18 -54 -29 -23 -79 -33 -73 -14 2 5 13 9 23 7 13 -2 15 0 6 6 -9 6 -6
12 13 20 19 9 25 9 25 -1 0 -8 3 -7 9 2 6 9 4 22 -6 37 -8 13 -11 29 -7 35 4
7 3 9 -4 5 -6 -3 -18 4 -26 16 -9 12 -16 17 -16 11 0 -6 7 -16 15 -23 15 -13
21 -35 7 -26 -4 3 -7 -9 -6 -25 1 -19 -2 -29 -9 -26 -7 2 -11 13 -9 23 2 15 1
16 -7 4 -6 -9 -6 -19 -1 -25 7 -8 1 -19 -15 -33 -13 -12 -27 -17 -30 -12 -4 6
-12 10 -18 10 -7 0 -3 -6 8 -12 30 -18 97 -17 118 0 16 14 17 14 12 0 -4 -9
-20 -21 -37 -27 -28 -10 -30 -13 -16 -29 25 -29 29 -40 17 -48 -7 -4 -9 -3 -6
3 4 6 -2 20 -12 32 -21 24 -36 28 -28 7 4 -11 1 -13 -10 -9 -11 4 -14 2 -9 -5
7 -11 -5 -16 -31 -13 -6 1 -21 -11 -32 -25 -20 -25 -26 -21 -22 14 1 6 -3 12
-9 12 -5 0 -10 -6 -11 -12 0 -7 -5 -3 -11 10 -10 20 -29 31 -27 15 3 -20 -2
-33 -12 -33 -8 0 -8 4 1 15 10 12 7 14 -19 10 -34 -4 -42 10 -11 20 20 6 23
24 5 37 -19 14 -27 8 -14 -9 7 -10 9 -15 5 -11 -5 4 -15 0 -23 -10 -8 -9 -12
-12 -9 -6 3 7 -1 15 -10 18 -9 4 -14 9 -11 12 3 3 -11 21 -31 41 -21 19 -31
32 -24 28 6 -3 12 -1 12 4 0 6 -6 11 -14 11 -17 0 -29 27 -15 35 11 7 2 25
-12 25 -6 0 -7 -4 -4 -10 3 -6 -1 -7 -10 -4 -18 7 -18 7 14 24 19 10 22 9 16
-1 -6 -8 -4 -10 4 -4 22 13 -4 28 -27 16 -11 -6 -24 -11 -29 -11 -4 1 4 8 20
16 15 8 27 20 27 27 0 7 10 -3 21 -20 12 -18 26 -33 32 -32 8 0 8 2 -1 6 -6 2
-10 9 -6 14 3 5 1 9 -4 9 -6 0 -19 15 -30 33 -14 25 -17 39 -10 52 8 12 7 20
-3 26 -7 4 -16 6 -20 4 -3 -3 -6 6 -6 20 0 14 3 22 8 19 5 -3 9 -1 9 4 0 5
-14 9 -31 9 l-31 0 23 -18 c13 -10 18 -19 11 -19 -7 0 -11 -4 -7 -9 3 -5 -1
-16 -9 -24 -8 -8 -12 -18 -9 -21 4 -4 13 4 21 16 8 14 11 16 8 5 -4 -12 -2
-16 6 -11 7 5 8 3 3 -6 -5 -8 -4 -11 3 -6 11 7 11 -12 -1 -31 -5 -8 -4 -13 2
-13 6 0 11 -5 11 -12 0 -6 -3 -8 -7 -5 -3 4 -12 2 -19 -4 -8 -7 -14 -6 -20 2
-4 7 -3 9 4 5 6 -3 13 -2 17 4 6 10 -6 14 -35 11 -13 -2 -13 0 -1 8 8 5 19 7
26 5 6 -3 12 2 12 11 0 9 -6 14 -12 11 -7 -2 -18 1 -25 7 -10 9 -12 8 -7 -5 4
-10 2 -18 -3 -18 -17 0 -11 23 12 47 12 13 17 23 10 23 -14 0 -42 -28 -42 -42
0 -6 -3 -9 -6 -6 -3 4 0 17 7 30 7 12 12 27 11 31 -5 17 20 48 34 43 10 -4 12
-2 8 6 -5 8 -2 9 9 5 9 -3 19 -1 23 5 4 7 3 8 -4 4 -7 -4 -12 -2 -12 5 0 6 8
9 18 7 11 -3 19 0 19 7 0 10 -7 11 -24 4 -14 -5 -23 -5 -23 1 0 6 8 10 18 10
14 1 12 3 -6 13 -12 7 -20 16 -16 19 3 4 -3 11 -14 17 -16 8 -21 7 -26 -5 -5
-12 -1 -14 17 -9 17 5 19 4 7 -4 -13 -10 -13 -11 0 -11 13 0 13 -2 0 -11 -13
-9 -12 -10 3 -5 15 5 16 3 6 -15 -9 -17 -8 -20 2 -14 8 5 10 4 5 -3 -10 -17
-29 -15 -23 3 4 8 2 17 -3 20 -6 4 -11 0 -12 -7 0 -7 -2 -17 -3 -23 -2 -5 -3
-16 -4 -22 0 -7 -5 -13 -10 -13 -5 0 -8 11 -5 26 4 23 3 24 -18 14 -22 -11
-22 -10 -4 4 13 11 15 16 6 16 -7 0 -10 3 -7 6 4 4 13 1 22 -6 9 -8 15 -9 15
-2 0 6 -8 16 -17 21 -10 6 -13 11 -6 11 6 0 15 -5 18 -10 4 -6 11 -7 17 -4 6
4 1 12 -13 20 -13 7 -18 13 -11 14 9 0 11 7 7 23 -5 17 -4 19 4 7 7 -10 11
-11 11 -2 0 6 7 12 16 12 8 0 12 5 9 10 -4 6 -10 8 -15 5 -16 -10 -39 6 -33
22 5 12 3 14 -7 8 -9 -5 -11 -4 -6 4 9 14 26 5 26 -15 0 -8 5 -14 11 -14 5 0
8 4 5 9 -4 5 5 4 19 -2 25 -12 25 -12 5 -28 -19 -16 -19 -17 -1 -22 24 -6 48
7 32 17 -6 4 -9 12 -5 17 3 6 12 3 20 -8 13 -16 13 -15 2 10 -8 20 -14 24 -20
15 -6 -11 -8 -10 -8 0 0 7 -4 11 -8 8 -4 -2 -23 9 -42 26 -26 22 -29 29 -14
24 26 -8 56 20 35 33 -10 7 -10 14 3 37 8 16 15 25 16 21 0 -5 -4 -16 -9 -25
-6 -12 -5 -24 5 -37 14 -18 14 -18 14 6 1 61 2 69 11 64 5 -4 9 1 9 10 0 9 -4
13 -10 10 -5 -3 -10 -1 -10 5 0 7 8 9 22 4 20 -6 21 -5 9 10 -7 9 -10 16 -5
17 5 0 0 4 -11 9 -15 6 -16 9 -4 9 21 1 54 -35 40 -44 -18 -10 -45 -69 -29
-60 7 3 4 -1 -6 -9 -11 -9 -15 -16 -10 -16 6 0 11 -7 11 -15 0 -8 -4 -15 -8
-15 -4 0 -6 -9 -4 -20 3 -14 0 -18 -8 -13 -19 12 -38 12 -35 1 5 -14 58 -20
58 -7 0 6 6 7 13 3 9 -6 9 -4 1 7 -13 16 -15 49 -2 49 4 0 17 -9 28 -20 11
-11 20 -15 20 -10 0 6 -13 18 -30 29 -16 10 -27 21 -23 24 3 4 17 0 29 -8 15
-9 25 -11 29 -5 4 6 3 10 -2 9 -20 -3 -25 2 -14 15 10 11 8 16 -8 21 -24 7
-28 22 -6 22 8 0 15 -3 15 -6 0 -4 9 -12 21 -19 21 -13 21 -13 3 12 -11 14
-23 26 -27 26 -5 0 -6 4 -2 10 3 5 12 7 20 3 9 -3 15 1 15 11 0 9 -5 16 -11
16 -5 0 -7 5 -4 10 5 8 11 7 21 -1 12 -10 17 -9 27 1 9 10 9 13 0 17 -7 3 -13
9 -13 14 0 6 5 7 10 4 6 -3 10 -2 10 3 0 6 -7 13 -16 16 -10 4 -13 2 -8 -6 5
-7 3 -8 -7 -2 -10 5 -8 0 4 -19 18 -28 11 -37 -11 -15 -10 10 -15 10 -22 -2
-5 -8 -7 -17 -4 -21 2 -4 0 -10 -6 -14 -5 -3 -10 0 -10 8 0 8 -10 19 -22 25
-21 10 -21 11 -3 9 11 -1 24 -6 28 -12 5 -5 5 1 2 13 -6 20 -4 23 12 18 23 -7
28 20 6 28 -7 3 -13 11 -13 18 0 10 2 10 9 -1 7 -11 11 -9 21 9 11 20 10 22
-4 17 -9 -4 -16 -2 -16 3 0 14 24 12 38 -2 7 -7 12 -9 12 -5 0 4 10 3 21 -4
14 -7 19 -7 15 0 -4 5 2 15 13 21 16 8 22 6 30 -7 9 -16 10 -16 8 4 0 12 -5
19 -10 16 -5 -3 -8 0 -5 7 2 7 12 14 22 16 27 4 40 20 25 29 -8 5 -10 4 -5 -3
4 -7 2 -12 -3 -12 -6 0 -11 6 -11 13 0 6 -7 3 -16 -8 -8 -11 -19 -21 -24 -21
-23 -3 -24 -5 -13 -12 9 -6 6 -11 -8 -21 -15 -8 -19 -9 -14 -1 5 8 2 10 -11 6
-11 -3 -26 -1 -34 5 -12 8 -9 9 9 4 14 -5 21 -3 17 3 -3 5 1 9 10 8 9 0 23 10
32 24 15 21 15 23 1 18 -10 -4 -16 -1 -16 8 0 12 4 12 23 -1 21 -14 24 -13 43
11 20 25 41 25 41 1 0 -8 -3 -8 -9 2 -6 9 -11 10 -15 2 -4 -6 -2 -12 3 -12 6
-1 16 -3 21 -4 6 -1 13 -3 18 -4 4 -1 0 -6 -8 -12 -13 -9 -13 -10 0 -6 8 2 14
10 13 16 -2 6 2 11 7 11 6 0 10 5 10 11 0 8 -5 8 -15 -1 -12 -10 -15 -10 -15
3 0 22 28 29 40 9 11 -16 11 -16 6 1 -6 19 9 24 18 5 3 -7 4 -5 3 4 -1 9 7 23
17 31 19 14 19 14 -5 12 -43 -4 -44 -5 -29 -16 13 -9 13 -10 0 -7 -8 1 -25 -3
-37 -10 -16 -9 -24 -9 -29 0 -4 6 -3 8 3 5 6 -4 14 0 17 8 3 8 11 14 18 13 8
-2 13 6 12 19 0 12 3 20 7 17 4 -2 10 2 13 8 3 7 3 2 0 -12 -7 -25 -6 -25 14
-7 11 11 25 16 31 13 5 -4 12 -2 16 4 6 10 -7 14 -32 11 -6 -1 -14 3 -18 9 -4
6 1 7 11 3 13 -5 15 -3 9 8 -7 10 -2 9 17 -3 25 -17 27 -16 42 5 8 12 15 17
15 10 1 -6 -4 -15 -9 -18 -8 -5 -8 -11 0 -20 9 -10 6 -16 -10 -25 -11 -6 -24
-9 -28 -6 -4 2 -8 -6 -8 -18 -2 -23 -2 -23 23 2 25 25 26 25 41 6 11 -15 13
-15 9 -2 -7 19 38 54 48 38 3 -6 12 -10 18 -10 7 0 3 7 -7 15 -11 8 -16 15
-10 15 12 1 -27 30 -39 30 -6 0 -3 -8 6 -18 10 -10 14 -22 10 -25 -13 -13 -22
-7 -16 11 5 14 3 13 -10 -3 -9 -11 -17 -15 -17 -8 0 6 5 15 10 18 6 4 8 10 6
14 -3 4 -1 13 4 21 7 11 11 10 24 -3 9 -9 25 -19 36 -22 11 -3 19 -9 19 -13
-4 -27 1 -32 21 -20 11 7 18 19 15 25 -9 24 4 13 18 -14 8 -16 12 -34 10 -40
-3 -7 1 -13 9 -13 7 -1 2 -8 -12 -16 -23 -14 -13 -13 25 2 8 3 15 1 15 -4 0
-11 -39 -28 -54 -23 -5 1 -2 -8 6 -21 12 -19 13 -26 3 -35 -15 -14 -26 -7 -18
13 3 8 1 14 -5 14 -12 0 -11 -18 2 -39 6 -9 3 -19 -10 -29 -15 -11 -15 -13 -2
-9 9 3 19 3 22 -1 4 -3 16 -7 28 -9 18 -3 19 -1 7 13 -8 10 -15 12 -17 5 -2
-6 -8 -9 -12 -6 -5 3 -7 12 -3 21 4 11 9 12 18 4 9 -8 15 -8 20 0 3 5 -1 10
-10 10 -9 0 -14 4 -10 9 3 6 14 8 24 6 10 -2 18 3 18 10 0 8 -5 11 -10 8 -6
-4 -7 -1 -2 7 4 7 2 16 -6 22 -10 7 -9 8 6 3 11 -3 16 -3 12 1 -4 4 -2 13 4
21 9 10 8 13 -2 13 -12 0 -11 2 0 9 8 5 16 20 18 33 2 16 0 19 -6 10 -4 -8
-12 -14 -17 -15 -5 -1 -8 -8 -8 -15 1 -7 -3 -11 -10 -9 -6 3 -9 11 -7 18 2 8
4 19 5 24 1 6 6 16 10 24 7 10 6 12 -4 6 -9 -6 -11 -4 -5 4 6 10 3 11 -11 3
-22 -12 -64 11 -44 23 6 4 8 16 5 28 -3 12 2 7 12 -10 18 -35 30 -42 30 -18 0
8 -4 15 -9 15 -4 0 -8 5 -8 11 0 5 4 8 9 5 5 -3 11 1 15 9 3 8 8 15 11 15 3 0
1 -9 -5 -19z m-565 -1 c-3 -5 -11 -10 -16 -10 -6 0 -7 5 -4 10 3 6 11 10 16
10 6 0 7 -4 4 -10z m452 -12 c-3 -8 -6 -5 -6 6 -1 11 2 17 5 13 3 -3 4 -12 1
-19z m-482 -8 c3 -5 1 -10 -4 -10 -6 0 -11 5 -11 10 0 6 2 10 4 10 3 0 8 -4
11 -10z m522 -12 c0 -13 2 -29 4 -37 2 -7 -2 -16 -10 -19 -8 -2 -11 0 -7 6 3
5 -9 19 -26 31 -27 17 -29 20 -11 18 12 0 19 -5 17 -9 -3 -4 -1 -8 4 -8 5 0
12 9 15 20 7 27 15 25 14 -2z m174 -9 c-5 -13 -10 -19 -10 -12 -1 15 10 45 15
40 3 -2 0 -15 -5 -28z m-716 1 c3 -5 1 -10 -4 -10 -6 0 -11 5 -11 10 0 6 2 10
4 10 3 0 8 -4 11 -10z m403 -10 c-7 -10 -14 -17 -17 -15 -4 4 18 35 25 35 2 0
-1 -9 -8 -20z m345 -11 c-8 -8 -13 -7 -18 2 -6 8 -4 10 5 4 10 -6 12 -4 6 11
-6 15 -5 17 5 7 9 -10 10 -16 2 -24z m-146 -24 c0 -8 -4 -12 -9 -9 -4 3 -8 9
-8 15 0 5 4 9 8 9 5 0 9 -7 9 -15z m127 -1 c3 -8 2 -12 -4 -9 -6 3 -10 10 -10
16 0 14 7 11 14 -7z m926 -10 c0 -8 -19 -13 -24 -6 -3 5 1 9 9 9 8 0 15 -2 15
-3z m30 -19 c0 -8 -4 -15 -8 -15 -5 0 -9 7 -9 15 0 8 4 15 9 15 4 0 8 -7 8
-15z m-1045 -5 c3 -5 1 -10 -4 -10 -6 0 -11 5 -11 10 0 6 2 10 4 10 3 0 8 -4
11 -10z m115 4 c0 -8 -19 -13 -24 -6 -3 5 1 9 9 9 8 0 15 -2 15 -3z m-495 -24
c-3 -5 -14 -8 -25 -7 -10 1 -17 5 -14 9 3 4 12 4 21 1 12 -5 14 -3 8 7 -5 9
-4 11 4 6 6 -4 9 -11 6 -16z m-305 6 c0 -2 -7 -7 -16 -10 -8 -3 -12 -2 -9 4 6
10 25 14 25 6z m1755 -6 c-3 -5 -12 -10 -18 -10 -7 0 -6 4 3 10 19 12 23 12
15 0z m-1836 -27 c-9 -10 -8 -17 2 -29 11 -14 10 -18 -6 -30 -17 -12 -18 -16
-5 -24 8 -5 18 -6 24 -3 5 3 6 1 2 -6 -4 -6 -12 -9 -17 -5 -5 3 -21 8 -36 10
-24 5 -25 3 -12 -12 9 -12 10 -15 2 -10 -8 4 -13 2 -13 -4 0 -6 -4 -9 -9 -5
-5 3 -12 1 -15 -4 -4 -5 5 -8 18 -7 19 2 23 -1 18 -13 -7 -19 -34 -41 -43 -35
-4 2 -12 -2 -18 -9 -8 -10 -7 -14 4 -14 8 0 12 4 9 9 -3 4 1 5 9 2 8 -3 18 -1
22 5 3 6 12 11 18 11 7 0 4 -5 -6 -11 -15 -9 -16 -13 -5 -27 10 -12 10 -14 1
-8 -8 4 -13 1 -13 -8 0 -9 5 -16 10 -16 6 0 10 -5 10 -11 0 -8 -4 -9 -13 0
-14 11 -27 5 -27 -11 0 -5 4 -7 9 -4 5 3 12 -1 15 -10 3 -8 2 -12 -4 -9 -5 3
-20 8 -31 10 -21 4 -21 4 -3 -14 10 -10 22 -17 25 -15 11 6 6 -31 -7 -51 -8
-11 -14 -14 -14 -8 0 7 5 15 10 18 6 3 10 11 10 17 0 6 -8 4 -18 -5 -20 -18
-25 -47 -8 -47 5 0 1 -7 -10 -16 -18 -15 -18 -15 5 -8 16 4 21 3 17 -5 -4 -6
-14 -11 -22 -11 -8 0 -14 -5 -14 -11 0 -5 4 -8 9 -4 6 3 15 -4 21 -16 8 -15 9
-19 1 -15 -6 4 -11 2 -11 -3 0 -6 -5 -11 -12 -11 -9 0 -9 3 0 12 7 7 12 17 12
22 -1 13 -40 -32 -40 -45 0 -5 5 -8 12 -7 7 2 12 -3 13 -11 0 -8 5 -16 12 -18
7 -3 10 3 6 15 -2 11 0 23 5 26 12 7 10 -39 -1 -51 -4 -3 -18 4 -32 17 -20 19
-28 21 -38 11 -9 -10 -8 -11 6 -6 23 9 22 -7 -1 -22 -15 -9 -18 -8 -17 7 1 10
6 24 11 32 6 7 9 24 8 38 -1 14 5 33 13 42 13 15 12 18 -8 29 -21 11 -21 13
-5 24 9 7 19 23 21 35 2 12 9 28 15 35 8 10 7 14 -2 17 -8 3 1 12 20 22 17 9
32 21 32 27 0 7 -6 6 -17 -2 -10 -8 -14 -9 -10 -2 4 6 0 16 -8 21 -19 10 -10
38 16 53 12 6 17 15 12 22 -11 18 -14 49 -4 43 12 -8 43 29 34 39 -5 4 -3 5 4
1 6 -3 15 -1 18 5 4 5 14 8 22 5 9 -4 13 -1 11 6 -3 7 -10 13 -15 13 -19 0
-26 14 -15 28 7 8 18 14 27 14 11 0 12 -4 4 -14z m323 -35 c-7 -7 -12 -8 -12
-2 0 14 12 26 19 19 2 -3 -1 -11 -7 -17z m414 -12 c2 -14 0 -15 -12 -5 -17 14
-19 32 -2 27 6 -2 12 -12 14 -22z m74 -6 c0 -5 -4 -10 -10 -10 -5 0 -10 5 -10
10 0 6 5 10 10 10 6 0 10 -4 10 -10z m495 0 c3 -5 1 -10 -4 -10 -6 0 -11 5
-11 10 0 6 2 10 4 10 3 0 8 -4 11 -10z m-1040 -20 c3 -5 1 -10 -4 -10 -6 0
-11 5 -11 10 0 6 2 10 4 10 3 0 8 -4 11 -10z m989 2 c3 -5 -1 -9 -9 -9 -8 0
-12 4 -9 9 3 4 7 8 9 8 2 0 6 -4 9 -8z m-46 -27 c-3 -3 -9 2 -12 12 -6 14 -5
15 5 6 7 -7 10 -15 7 -18z m137 16 c3 -5 0 -13 -6 -17 -8 -5 -9 -3 -4 6 6 10
4 12 -9 7 -10 -4 -15 -3 -11 3 8 13 22 13 30 1z m-35 -31 c0 -3 9 -6 20 -7 11
-1 20 2 20 8 0 5 5 9 10 9 6 0 9 -3 8 -7 -5 -14 24 -73 36 -73 6 0 4 -5 -4
-10 -13 -8 -12 -10 3 -10 9 0 17 5 17 12 0 6 3 9 6 5 6 -6 -11 -42 -20 -42
-11 0 -34 40 -29 49 4 5 1 6 -5 2 -8 -5 -10 -1 -5 9 3 10 0 21 -8 26 -25 16
-32 9 -13 -13 12 -14 14 -18 4 -13 -8 4 -4 -5 10 -20 l25 -29 -25 16 c-14 9
-24 23 -24 32 1 9 -3 13 -9 9 -6 -4 -7 -1 -2 7 6 9 4 11 -4 6 -7 -5 -10 -14
-7 -22 3 -7 -3 -18 -12 -23 -9 -6 -12 -11 -6 -11 5 0 15 5 21 11 7 7 17 2 32
-19 15 -22 18 -32 9 -35 -7 -2 -9 -8 -5 -13 10 -10 28 16 20 29 -3 5 0 8 8 5
19 -6 18 -30 -1 -45 -8 -6 -12 -15 -7 -19 4 -4 7 -2 7 4 0 7 4 12 10 12 5 0 7
-7 4 -15 -4 -8 -1 -15 6 -15 9 0 9 -4 -1 -17 -10 -11 -10 -14 -1 -9 7 4 12 2
12 -5 0 -6 -8 -9 -18 -7 -11 3 -19 0 -19 -7 0 -7 6 -11 14 -8 15 6 43 -14 43
-30 0 -5 -9 -2 -20 8 -11 10 -20 14 -20 9 0 -5 9 -16 19 -24 21 -14 19 -31 -2
-26 -7 1 -9 1 -4 -1 13 -8 7 -19 -12 -20 -14 -1 -18 3 -15 15 4 12 2 11 -7 -3
-12 -19 -12 -19 -21 0 -6 15 -7 12 -3 -9 6 -26 4 -28 -10 -16 -9 8 -13 21 -10
34 5 19 5 19 -5 3 -9 -15 -8 -22 4 -36 9 -10 13 -20 10 -23 -3 -3 0 -9 7 -14
8 -4 10 -3 5 5 -5 7 -2 10 6 9 7 -2 12 4 10 14 -2 12 2 16 11 12 14 -5 12 -44
-2 -42 -18 2 -24 -3 -12 -11 16 -10 51 -3 51 11 0 5 -4 7 -9 4 -16 -10 -7 18
16 49 11 17 21 35 22 40 1 6 8 10 17 10 8 0 19 7 24 15 7 12 9 10 7 -7 0 -12
-5 -19 -9 -17 -4 3 -8 -1 -9 -8 0 -10 -2 -10 -6 0 -2 6 -9 12 -14 12 -6 0 -5
-9 2 -21 10 -19 7 -25 -17 -46 -24 -20 -26 -23 -9 -21 11 2 23 7 27 13 4 5 10
6 15 2 9 -9 -17 -28 -29 -21 -4 3 -17 -10 -29 -28 -12 -18 -19 -25 -15 -15 3
9 1 17 -4 17 -6 0 -10 -6 -10 -12 0 -9 -4 -8 -10 2 -9 13 -11 13 -20 0 -6 -10
-10 -11 -10 -2 0 6 -4 12 -10 12 -5 0 -8 -6 -6 -12 1 -7 1 -9 -2 -5 -2 4 -11
0 -19 -10 -8 -10 -11 -12 -7 -4 11 22 13 61 3 61 -6 0 -7 5 -3 11 4 8 9 7 15
-2 5 -8 9 -9 9 -3 0 23 -27 36 -50 24 -12 -6 -19 -14 -16 -17 3 -4 -3 -12 -14
-20 -12 -8 -17 -20 -13 -31 5 -14 3 -14 -9 2 -11 14 -21 17 -34 11 -31 -13
-44 -14 -41 -2 1 7 -6 11 -15 9 -20 -3 -23 6 -7 28 9 12 10 11 5 -5 -6 -19 -5
-19 8 -2 10 13 16 15 21 7 6 -9 10 -9 16 1 7 11 9 11 9 1 0 -7 5 -10 12 -6 7
4 8 3 4 -4 -4 -7 -2 -12 3 -12 6 0 11 7 11 15 0 14 -18 20 -49 15 -12 -1 -13
1 -2 14 10 12 18 13 32 5 13 -6 19 -6 19 1 0 9 -23 14 -35 8 -2 -2 -11 6 -18
17 -14 18 -15 18 -12 -8 2 -15 -1 -29 -6 -33 -5 -3 -9 -1 -9 4 0 6 -6 12 -13
15 -8 3 -14 -1 -14 -9 0 -7 5 -11 10 -7 5 3 3 -5 -3 -18 -18 -35 -23 -38 -16
-9 7 25 7 25 -10 5 -13 -15 -15 -16 -11 -3 8 22 -20 45 -35 30 -7 -7 -17 -12
-22 -12 -6 0 0 9 14 20 14 11 19 20 13 20 -7 0 -22 -9 -33 -20 -11 -11 -20
-16 -20 -11 0 6 9 16 20 24 25 17 15 30 -14 16 -20 -10 -20 -10 -2 5 11 9 16
16 11 16 -4 0 0 9 10 20 10 11 15 20 11 20 -4 0 -4 5 -1 10 5 8 11 8 19 1 7
-6 16 -8 19 -4 4 3 7 1 7 -5 0 -7 -4 -12 -10 -12 -5 0 -9 -3 -9 -7 1 -5 1 -15
0 -22 -1 -12 -4 -12 -13 -3 -18 18 -33 15 -18 -3 7 -9 19 -14 27 -11 8 3 12 2
9 -2 -2 -4 -1 -14 5 -22 7 -13 9 -13 9 -1 0 11 4 10 16 -5 8 -10 13 -13 9 -7
-8 17 13 55 27 47 7 -4 8 -3 4 4 -4 7 -2 12 5 12 7 0 9 3 6 6 -4 4 -14 1 -23
-6 -18 -16 -54 -21 -54 -8 0 4 9 8 19 8 11 0 23 5 27 11 4 8 -1 9 -17 4 -23
-7 -23 -7 -6 18 10 15 15 38 12 57 -3 24 0 30 10 26 8 -3 19 3 25 14 8 15 6
21 -11 30 -19 11 -20 10 -10 -9 14 -26 14 -31 -2 -25 -7 2 -21 -2 -32 -10 -11
-9 -14 -16 -7 -16 6 0 12 -4 12 -9 0 -5 -8 -8 -17 -6 -10 2 -21 4 -25 4 -5 1
-8 6 -8 12 0 5 4 8 9 4 5 -3 12 -1 16 5 6 9 -8 14 -28 11 -5 -1 -6 3 -2 8 3 6
13 7 22 4 12 -5 14 -3 8 8 -6 11 -5 12 6 2 21 -20 31 -15 18 8 -9 17 -8 20 2
14 9 -6 11 -3 6 8 -3 9 -1 19 5 23 6 4 8 3 5 -3 -3 -5 9 -17 28 -26 26 -12 36
-13 41 -4 4 7 4 9 -1 5 -4 -4 -14 0 -22 10 -8 9 -12 11 -8 5 4 -9 1 -11 -9 -7
-18 7 -19 13 -6 34 8 12 10 12 10 1 0 -18 13 -6 16 14 2 14 -8 19 -28 16 -5 0
-8 4 -8 9 0 12 10 13 30 0 16 -10 43 6 34 21 -3 5 0 9 5 9 6 0 11 -5 11 -11 0
-5 5 -7 10 -4 6 3 10 1 10 -5 0 -6 4 -9 10 -5 5 3 6 13 3 23 -4 13 -2 13 10
-3 14 -17 16 -18 17 -3 0 9 6 18 13 21 12 4 47 -13 47 -23z m94 14 c3 -8 2
-12 -4 -9 -6 3 -10 10 -10 16 0 14 7 11 14 -7z m-631 -15 c-8 -8 -13 -7 -18 2
-5 8 -4 10 3 5 7 -4 12 -2 12 5 0 7 3 9 7 6 4 -4 2 -12 -4 -18z m-790 -6 c-6
-16 -5 -17 13 -3 18 14 18 14 5 -2 -7 -10 -17 -15 -22 -12 -12 7 -11 34 1 34
5 0 6 -8 3 -17z m1427 -9 c0 -8 -19 -13 -24 -6 -3 5 1 9 9 9 8 0 15 -2 15 -3z
m720 -4 c0 -5 -2 -10 -4 -10 -3 0 -8 5 -11 10 -3 6 -1 10 4 10 6 0 11 -4 11
-10z m-52 -18 c2 -7 -1 -12 -8 -12 -6 0 -9 4 -6 9 4 5 1 12 -4 14 -6 3 -5 4 2
3 6 -1 14 -8 16 -14z m-1367 -24 c8 -15 8 -19 0 -13 -7 4 -18 1 -26 -5 -11 -9
-15 -9 -15 -1 0 6 6 11 13 11 8 0 7 4 -3 10 -11 7 -11 10 -2 10 7 0 10 5 6 12
-4 7 -3 8 4 4 7 -4 17 -16 23 -28z m707 18 c-7 -8 -15 -12 -17 -11 -5 6 10 25
20 25 5 0 4 -6 -3 -14z m-664 -14 c3 -5 -1 -9 -9 -9 -8 0 -12 4 -9 9 3 4 7 8
9 8 2 0 6 -4 9 -8z m-580 -20 c-5 -4 -12 -11 -15 -15 -3 -5 -9 -2 -12 5 -3 9
3 14 15 15 11 1 16 -1 12 -5z m547 -35 c-10 -9 -11 -8 -5 6 3 10 9 15 12 12 3
-3 0 -11 -7 -18z m716 0 c-6 -15 18 -39 29 -29 4 4 0 -5 -9 -20 -17 -27 -13
-37 23 -51 11 -5 9 -6 -5 -6 -37 2 -45 -1 -45 -18 0 -13 3 -14 12 -5 16 16 28
15 28 -3 0 -9 -8 -14 -20 -12 -27 4 -34 13 -36 45 -1 15 -2 27 -4 27 -1 0 -3
16 -4 36 -2 27 1 36 11 32 7 -3 13 0 13 6 0 6 3 11 6 11 3 0 4 -6 1 -13z
m-718 -41 c-3 -3 -11 5 -18 17 -13 21 -12 21 5 5 10 -10 16 -20 13 -22z m1487
6 c-3 -3 -1 -11 5 -18 7 -8 6 -14 -2 -20 -8 -4 -9 -3 -5 4 4 7 2 12 -3 12 -6
0 -11 9 -11 21 0 12 4 17 11 14 6 -4 8 -10 5 -13z m-2096 -7 c0 -2 -10 -9 -22
-15 -22 -11 -22 -10 -4 4 21 17 26 19 26 11z m2040 1 c0 -2 -7 -7 -16 -10 -8
-3 -12 -2 -9 4 6 10 25 14 25 6z m-1149 -29 c-10 -9 -11 -8 -5 6 3 10 9 15 12
12 3 -3 0 -11 -7 -18z m505 11 c5 4 6 3 1 -2 -4 -6 -18 -11 -30 -12 -12 -2
-16 0 -9 2 6 3 9 11 5 17 -5 8 -2 8 9 0 8 -7 19 -9 24 -5z m666 5 c-6 -2 -10
-9 -6 -14 3 -5 0 -9 -5 -9 -12 0 -14 13 -4 23 3 4 11 7 17 6 6 0 5 -3 -2 -6z
m-1502 -25 c0 -5 -4 -6 -10 -3 -5 3 -10 2 -10 -3 0 -5 -7 -9 -16 -9 -15 0 -15
1 0 12 8 7 13 15 9 19 -4 4 0 4 10 0 9 -3 17 -10 17 -16z m1510 -25 c-11 -17
-11 -17 -6 0 3 10 6 24 7 30 0 9 2 9 5 0 3 -7 0 -20 -6 -30z m-1478 3 c7 4 8
2 4 -5 -10 -15 -26 -4 -25 17 1 15 2 15 6 -1 2 -9 9 -14 15 -11z m328 14 c0
-5 -4 -10 -10 -10 -5 0 -10 5 -10 10 0 6 5 10 10 10 6 0 10 -4 10 -10z m58 -8
c-4 -20 -35 -24 -42 -5 -3 8 -1 11 4 8 6 -3 10 -2 10 3 0 5 7 9 15 9 9 0 15
-7 13 -15z m-918 -23 c0 -14 -17 -10 -23 5 -4 10 -1 13 9 9 7 -3 14 -9 14 -14z
m1331 -2 c-10 -9 -11 -8 -5 6 3 10 9 15 12 12 3 -3 0 -11 -7 -18z m-494 -9
c-3 -8 -6 -5 -6 6 -1 11 2 17 5 13 3 -3 4 -12 1 -19z m798 13 c3 -5 2 -12 -3
-15 -5 -3 -9 1 -9 9 0 17 3 19 12 6z m425 -21 c0 -5 -5 -12 -12 -16 -8 -5 -9
-2 -5 10 5 13 3 17 -6 13 -8 -3 -14 1 -14 8 0 10 5 11 19 4 10 -5 18 -14 18
-19z m-354 8 c5 -7 3 -8 -6 -3 -10 6 -12 4 -6 -11 5 -14 4 -16 -5 -7 -6 6 -8
16 -5 22 9 14 13 14 22 -1z m0 -33 c17 23 20 24 20 6 0 -11 -3 -18 -7 -16 -10
7 -36 -28 -36 -48 0 -10 5 -16 11 -14 6 2 10 12 8 21 -4 21 30 19 34 -2 1 -7
0 -8 -3 -2 -7 15 -20 12 -20 -5 0 -8 5 -15 10 -15 5 0 7 -7 4 -15 -4 -9 5 -21
23 -32 23 -13 27 -20 18 -30 -8 -10 -6 -19 8 -36 14 -16 15 -19 2 -9 -15 12
-17 11 -15 -7 1 -13 6 -19 14 -17 7 3 10 -1 7 -9 -3 -7 0 -23 6 -35 9 -17 9
-25 0 -34 -8 -8 -9 -6 -4 9 7 18 6 19 -10 6 -16 -13 -16 -16 -3 -26 17 -12 6
-42 -11 -31 -6 3 -13 2 -17 -4 -3 -5 1 -10 10 -10 9 0 15 -6 12 -12 -2 -7 -9
-12 -15 -11 -6 2 -10 -6 -9 -17 1 -20 17 -29 17 -10 0 6 5 10 10 10 15 0 12
-17 -5 -24 -18 -7 -45 3 -45 16 0 5 6 6 13 2 8 -5 8 -2 -2 9 -9 12 -10 17 -2
17 13 0 11 31 -3 41 -4 4 -3 10 3 13 6 4 11 1 11 -6 0 -10 3 -9 9 2 6 8 7 19
3 25 -11 17 -11 35 0 29 7 -5 8 -2 3 7 -8 12 -6 12 8 0 18 -14 20 -12 11 13
-3 9 -11 13 -17 9 -6 -4 -7 -1 -2 7 6 9 4 11 -6 5 -11 -7 -11 -5 1 10 8 10 10
16 4 12 -6 -3 -11 0 -11 8 0 8 5 15 11 15 6 0 4 5 -4 11 -11 8 -12 12 -2 16 6
2 12 9 12 15 0 6 -7 4 -17 -3 -9 -8 -14 -9 -11 -4 4 6 3 17 -3 25 -6 11 -9 12
-9 2 0 -7 -5 -10 -11 -6 -8 4 -7 9 2 15 12 7 11 9 -1 10 -8 1 -19 1 -23 0 -5
-1 -5 4 -1 11 5 8 1 7 -11 -2 -10 -8 -21 -14 -24 -12 -3 2 -12 -6 -20 -17 -11
-18 -11 -21 0 -21 11 0 11 -2 -1 -10 -12 -7 -12 -11 3 -28 16 -18 16 -20 1
-33 -13 -11 -15 -11 -13 2 5 24 -11 58 -33 70 -16 9 -19 8 -15 -3 2 -7 9 -12
15 -11 5 1 13 -4 16 -12 3 -8 0 -13 -7 -11 -7 1 -9 1 -4 -1 4 -3 -3 -14 -15
-25 -13 -11 -17 -17 -10 -13 6 3 12 2 12 -2 0 -5 -6 -15 -12 -23 -11 -12 -10
-12 6 0 16 13 20 12 37 -9 18 -22 58 -23 44 -1 -3 5 -2 10 4 10 5 0 12 -5 14
-10 3 -6 4 -5 3 2 -2 7 -9 13 -17 13 -8 0 -13 -6 -11 -12 3 -20 -13 -15 -34 9
-18 20 -18 21 0 15 13 -5 24 0 38 18 11 14 24 22 29 19 6 -3 2 -12 -8 -21 -17
-13 -17 -13 3 -4 17 8 25 7 33 -3 8 -10 9 -16 1 -21 -5 -3 -10 -1 -10 4 0 6
-5 11 -10 11 -6 0 -5 -8 2 -20 13 -21 35 -21 31 -1 -4 13 13 15 22 2 9 -15
-33 -39 -61 -35 -14 1 -23 0 -20 -3 3 -3 -1 -11 -8 -17 -10 -8 -11 -17 -5 -31
9 -19 9 -19 6 1 -3 13 3 25 14 32 26 16 34 15 19 -3 -9 -10 -9 -15 -1 -15 6 0
11 5 11 11 0 5 5 7 12 3 7 -4 8 -3 4 4 -4 7 -3 12 3 12 18 0 23 -20 6 -26 -9
-4 -13 -13 -10 -24 3 -9 -3 -24 -15 -35 -11 -10 -20 -22 -20 -26 0 -15 -34
-49 -48 -49 -7 0 -15 -7 -18 -15 -4 -8 -10 -13 -14 -10 -5 3 -11 1 -15 -5 -4
-6 -11 -8 -16 -5 -5 4 -9 1 -9 -5 0 -6 11 -8 25 -6 13 3 27 1 30 -4 3 -5 14
-8 24 -7 16 1 18 5 10 19 -6 10 -14 16 -20 13 -5 -4 -9 -1 -9 4 0 15 25 14 37
-1 6 -7 9 -21 8 -30 -2 -10 1 -18 7 -18 6 0 8 7 5 15 -4 8 -2 17 4 21 6 4 4
13 -7 25 -9 10 -12 19 -6 19 6 0 14 -5 17 -10 5 -8 11 -7 21 1 7 6 11 16 7 22
-3 6 -1 7 6 3 6 -4 8 -12 5 -18 -4 -6 2 -8 17 -3 19 5 21 4 9 -4 -14 -10 -7
-15 13 -12 5 1 5 -4 2 -10 -5 -8 -10 -8 -18 0 -6 6 -16 11 -21 11 -6 0 -5 -5
2 -12 7 -7 12 -16 12 -21 0 -5 -9 1 -20 14 -22 27 -25 22 -9 -15 7 -14 17 -23
23 -19 6 3 7 2 3 -2 -9 -11 -37 -16 -36 -7 3 22 -2 42 -9 38 -13 -8 -7 -47 9
-57 8 -5 10 -9 6 -9 -4 0 -19 7 -32 16 -23 15 -25 15 -31 0 -4 -10 -13 -15
-21 -12 -9 4 -13 1 -10 -6 2 -7 10 -12 16 -10 7 1 10 -2 6 -8 -3 -5 -1 -10 6
-10 7 0 9 -3 6 -7 -4 -3 -15 1 -24 10 -10 8 -24 17 -32 19 -7 2 -24 12 -36 23
-18 15 -21 23 -13 33 6 7 8 15 5 18 -3 3 -12 -3 -19 -15 -7 -12 -17 -21 -22
-21 -5 0 -6 3 -3 7 4 3 1 13 -5 22 -10 13 -10 14 2 4 14 -13 40 -1 40 19 0 6
-7 5 -15 -2 -8 -7 -15 -11 -16 -9 -7 37 -7 40 6 29 8 -7 16 -7 19 -2 3 6 -2
13 -11 16 -14 6 -15 9 -4 15 7 5 12 11 12 15 -1 3 1 6 4 6 3 0 9 0 15 0 10 0
9 -28 -2 -45 -4 -6 2 -16 13 -23 10 -7 19 -8 19 -3 0 5 15 16 33 25 17 8 25
16 17 16 -9 0 -21 -5 -28 -12 -9 -9 -16 -8 -30 6 -16 17 -16 18 6 11 14 -4 22
-2 22 5 0 6 4 9 8 6 5 -3 9 2 9 11 0 9 -9 18 -19 21 -10 2 -18 9 -18 14 0 5 6
6 13 2 9 -5 9 -4 0 6 -9 10 -9 19 2 41 18 34 10 62 -15 54 -10 -3 -21 -1 -25
5 -7 11 -25 4 -25 -10 0 -5 8 -7 18 -4 10 4 13 3 6 -3 -14 -10 -13 -55 1 -66
6 -5 3 -7 -7 -4 -12 4 -16 1 -13 -13 5 -23 -18 -32 -40 -16 -16 11 -16 14 -2
28 9 9 13 19 9 23 -4 5 -2 5 4 2 7 -4 18 1 25 10 12 15 12 16 -4 10 -11 -4
-16 -3 -12 3 3 6 -1 10 -9 10 -8 0 -17 4 -20 9 -4 5 3 7 14 4 12 -3 20 0 20 6
0 7 -5 9 -12 5 -7 -4 -8 -3 -4 5 4 6 11 9 16 6 5 -3 11 -1 15 5 3 5 1 10 -6
10 -7 0 -9 3 -6 6 4 4 13 1 22 -6 9 -8 15 -8 15 -2 0 15 -21 27 -45 25 -16 -1
-17 -1 -2 3 9 3 15 9 12 14 -3 5 8 7 24 5 21 -3 28 0 27 10 -3 20 -16 32 -16
15 0 -7 -3 -11 -6 -8 -4 5 8 35 28 70 1 2 -4 14 -11 28 -11 22 -10 23 2 8 13
-17 15 -17 32 2 10 11 21 17 25 15 4 -3 11 2 14 11 9 24 8 26 -14 14 -23 -12
-22 -13 -25 17 -1 12 1 20 6 17 4 -2 5 -12 2 -20 -5 -14 -3 -15 16 -5 12 7 25
20 28 29 6 13 9 11 18 -12 l12 -28 19 27z m-1812 0 c3 -8 1 -15 -4 -15 -6 0
-10 7 -10 15 0 8 2 15 4 15 2 0 6 -7 10 -15z m906 -5 c0 -5 -5 -10 -11 -10 -5
0 -7 5 -4 10 3 6 8 10 11 10 2 0 4 -4 4 -10z m971 -13 c-10 -9 -11 -8 -5 6 3
10 9 15 12 12 3 -3 0 -11 -7 -18z m-851 -5 c0 -5 -7 -9 -15 -9 -8 0 -12 4 -9
9 3 4 9 8 15 8 5 0 9 -4 9 -8z m1140 4 c0 -3 -4 -8 -10 -11 -5 -3 -10 -1 -10
4 0 6 5 11 10 11 6 0 10 -2 10 -4z m-1580 -10 c0 -2 -7 -7 -16 -10 -8 -3 -12
-2 -9 4 6 10 25 14 25 6z m833 -16 c-3 -12 -8 -19 -11 -16 -5 6 5 36 12 36 2
0 2 -9 -1 -20z m36 -4 c9 -11 9 -16 -1 -22 -7 -4 -10 -4 -6 1 4 4 3 14 -3 22
-6 7 -9 13 -6 13 2 0 10 -6 16 -14z m251 4 c0 -5 -4 -10 -10 -10 -5 0 -10 5
-10 10 0 6 5 10 10 10 6 0 10 -4 10 -10z m167 -12 c-3 -8 -6 -5 -6 6 -1 11 2
17 5 13 3 -3 4 -12 1 -19z m304 -10 c-10 -11 -11 -9 -5 6 6 15 4 17 -6 11 -9
-6 -11 -4 -5 4 5 9 10 10 18 2 8 -8 7 -14 -2 -23z m-948 -10 c-6 -7 -9 -22 -7
-32 1 -11 -2 -27 -7 -35 -8 -12 -8 -10 -4 9 l6 25 -21 -24 c-19 -22 -20 -22
-17 -3 2 11 9 27 16 36 7 9 10 16 5 16 -11 0 18 20 30 20 5 0 4 -6 -1 -12z
m432 -31 c-9 -46 -14 -45 -12 1 1 22 5 38 10 35 4 -2 5 -18 2 -36z m555 33
c-8 -5 -19 -10 -25 -10 -5 0 -3 5 5 10 8 5 20 10 25 10 6 0 3 -5 -5 -10z
m-1220 -4 c0 -2 -7 -7 -16 -10 -8 -3 -12 -2 -9 4 6 10 25 14 25 6z m444 -4 c3
-5 -1 -9 -9 -9 -8 0 -12 4 -9 9 3 4 7 8 9 8 2 0 6 -4 9 -8z m443 -22 c-1 -15
-4 -17 -17 -7 -25 19 -26 20 -6 13 14 -5 17 -2 12 9 -3 9 -2 13 3 10 6 -3 9
-14 8 -25z m349 -6 c-3 -7 -1 -16 4 -19 6 -4 10 3 10 14 0 14 5 19 15 15 11
-5 13 -10 5 -19 -8 -9 -8 -15 0 -20 5 -3 10 -13 10 -22 0 -14 -2 -14 -19 1
-10 9 -25 14 -35 10 -9 -3 -16 -1 -16 6 0 6 4 9 9 6 5 -3 9 6 9 21 l0 27 -19
-23 c-11 -13 -19 -19 -19 -13 0 16 31 43 41 36 6 -3 8 -12 5 -20z m-1611 -23
c2 -11 0 -21 -4 -21 -5 0 -8 11 -8 25 0 30 6 28 12 -4z m1179 18 c-5 -8 21
-31 28 -24 2 3 5 -1 6 -7 1 -7 3 -28 5 -45 5 -40 -5 -42 -32 -7 -15 19 -24 24
-33 16 -9 -7 -17 -6 -25 3 -8 9 -9 16 -3 20 6 4 8 11 4 16 -11 18 3 35 29 35
14 0 24 -3 21 -7z m-814 -11 c0 -4 -4 -8 -9 -8 -6 0 -12 4 -15 8 -3 5 1 9 9 9
8 0 15 -4 15 -9z m35 -6 c-3 -3 -11 0 -18 7 -9 10 -8 11 6 5 10 -3 15 -9 12
-12z m376 1 c13 -17 13 -17 -6 -3 -11 8 -22 16 -24 17 -2 2 0 3 6 3 6 0 17 -8
24 -17z m524 7 c3 -5 1 -10 -4 -10 -6 0 -11 5 -11 10 0 6 2 10 4 10 3 0 8 -4
11 -10z m-1960 -20 c-3 -5 -12 -10 -18 -10 -7 0 -6 4 3 10 19 12 23 12 15 0z
m1102 -5 c0 -8 -4 -12 -9 -9 -5 3 -6 10 -3 15 9 13 12 11 12 -6z m80 9 c-3 -3
-12 -4 -19 -1 -8 3 -5 6 6 6 11 1 17 -2 13 -5z m163 -24 c0 -5 -4 -10 -10 -10
-5 0 -10 5 -10 10 0 6 5 10 10 10 6 0 10 -4 10 -10z m90 4 c0 -8 -19 -13 -24
-6 -3 5 1 9 9 9 8 0 15 -2 15 -3z m250 -4 c0 -4 -7 -7 -15 -6 -23 3 -26 12 -5
13 11 1 20 -2 20 -7z m280 -2 c0 -3 -9 -6 -20 -5 -11 1 -20 5 -20 9 0 3 9 6
20 5 11 -1 20 -5 20 -9z m-1282 -23 c-3 -3 -9 2 -12 12 -6 14 -5 15 5 6 7 -7
10 -15 7 -18z m1279 -25 c-2 -23 -10 -17 -12 10 -1 10 2 17 6 14 4 -2 7 -13 6
-24z m-207 5 c-7 -8 -17 -12 -22 -9 -6 4 -5 10 3 15 22 14 33 10 19 -6z
m-1079 -28 c-10 -9 -11 -8 -5 6 3 10 9 15 12 12 3 -3 0 -11 -7 -18z m-816 4
c6 -1 2 -8 -8 -16 -11 -7 -26 -11 -35 -7 -15 5 -15 4 -3 -11 10 -13 17 -14 26
-7 16 13 30 -4 19 -22 -4 -7 -9 -23 -10 -36 -2 -20 1 -23 19 -19 22 6 22 6 2
-9 -11 -8 -20 -28 -21 -44 -2 -30 10 -41 19 -17 4 9 6 9 6 0 1 -7 -8 -17 -19
-23 -11 -6 -20 -15 -20 -21 0 -6 4 -8 9 -5 4 3 17 -2 27 -10 10 -9 14 -13 7
-10 -6 4 -14 0 -16 -6 -4 -8 -6 -7 -6 4 -1 11 -8 16 -21 13 -12 -2 -25 4 -34
17 -13 18 -12 23 10 47 24 26 33 48 15 36 -5 -3 -12 -1 -16 5 -4 6 -11 8 -16
5 -5 -4 -9 -2 -9 3 0 6 7 13 16 16 13 5 14 9 5 20 -8 10 -9 16 -1 21 6 3 7 12
3 18 -11 18 -12 36 -2 43 5 3 7 9 4 13 -4 7 14 8 50 2z m2376 -24 c-10 -9 -11
-8 -5 6 3 10 9 15 12 12 3 -3 0 -11 -7 -18z m-271 -7 c0 -5 -2 -10 -4 -10 -3
0 -8 5 -11 10 -3 6 -1 10 4 10 6 0 11 -4 11 -10z m-1950 -15 c0 -1 -6 -7 -13
-13 -10 -8 -13 -6 -13 7 0 11 6 17 13 14 7 -3 13 -6 13 -8z m1719 -28 c-12
-25 -28 -36 -30 -19 0 4 -2 15 -4 24 -4 20 25 41 38 29 4 -4 3 -20 -4 -34z
m-1149 -1 c14 -18 14 -18 -7 -6 -12 8 -19 18 -16 23 3 4 6 7 7 5 1 -2 8 -12
16 -22z m1034 12 c-5 -8 -1 -9 12 -4 14 5 16 4 7 -5 -13 -13 -37 -3 -28 12 4
5 8 9 11 9 3 0 2 -5 -2 -12z m337 -21 c-10 -9 -11 -8 -5 6 3 10 9 15 12 12 3
-3 0 -11 -7 -18z m-1846 -7 c3 -5 1 -10 -4 -10 -6 0 -11 5 -11 10 0 6 2 10 4
10 3 0 8 -4 11 -10z m2165 6 c0 -2 -7 -7 -16 -10 -8 -3 -12 -2 -9 4 6 10 25
14 25 6z m-1617 -33 c-3 -7 -6 -13 -8 -13 -2 0 -5 6 -8 13 -3 8 1 14 8 14 7 0
11 -6 8 -14z m1284 -5 c-1 -15 3 -22 11 -20 8 1 11 -2 7 -7 -6 -11 -35 -3 -35
9 0 12 11 40 16 40 2 0 3 -10 1 -22z m-227 -8 c-6 -11 -7 -20 -3 -19 4 1 16 1
27 0 15 -1 16 -4 6 -16 -11 -13 -14 -13 -27 0 -8 8 -19 15 -24 15 -11 0 -7 23
6 32 19 14 26 8 15 -12z m153 -2 c-4 -7 -9 -20 -11 -28 -6 -32 -8 -35 -17 -38
-5 -2 -11 0 -12 5 -3 9 34 73 42 73 4 0 3 -6 -2 -12z m404 6 c-3 -3 -12 -4
-19 -1 -8 3 -5 6 6 6 11 1 17 -2 13 -5z m-648 -26 c-3 -27 1 -39 13 -32 7 5 8
3 3 -5 -4 -8 -11 -9 -16 -4 -14 14 -19 53 -8 53 5 0 9 -6 8 -12z m-1073 -44
c-3 -7 -1 -16 4 -19 6 -4 10 -1 10 4 0 6 8 11 18 11 13 0 14 -2 3 -9 -11 -7
-10 -11 5 -20 11 -6 14 -11 9 -11 -6 0 -17 6 -24 13 -11 10 -13 9 -8 -6 6 -15
4 -16 -14 -6 -11 6 -18 13 -15 16 3 4 1 12 -5 19 -6 7 -8 18 -4 24 9 14 28 1
21 -16z m1702 -10 c-12 -12 -17 -13 -23 -3 -5 8 -4 10 4 5 6 -4 14 0 17 9 4 9
9 13 12 10 3 -3 -1 -13 -10 -21z m-2215 1 c-3 -9 -8 -14 -10 -11 -3 3 -2 9 2
15 9 16 15 13 8 -4z m1901 -15 c-6 -6 -10 -3 -10 10 0 13 4 16 10 10 7 -7 7
-13 0 -20z m-219 10 c3 -5 1 -10 -4 -10 -6 0 -11 5 -11 10 0 6 2 10 4 10 3 0
8 -4 11 -10z m96 -17 c13 -16 12 -17 -3 -4 -17 13 -22 21 -14 21 2 0 10 -8 17
-17z m-671 3 c0 -3 -4 -8 -10 -11 -5 -3 -10 -1 -10 4 0 6 5 11 10 11 6 0 10
-2 10 -4z m480 -10 c-7 -7 -13 -7 -20 0 -6 6 -3 10 10 10 13 0 16 -4 10 -10z
m-527 -11 c-3 -9 -8 -14 -10 -11 -3 3 -2 9 2 15 9 16 15 13 8 -4z m-1013 -1
c0 -8 -19 -13 -24 -6 -3 5 1 9 9 9 8 0 15 -2 15 -3z m427 -14 c10 -13 8 -16
-10 -17 -12 0 -17 1 -10 4 7 2 9 12 6 21 -6 18 -5 17 14 -8z m1273 8 c0 -4 -4
-8 -9 -8 -6 0 -12 4 -15 8 -3 5 1 9 9 9 8 0 15 -4 15 -9z m-1680 -33 c14 -19
14 -19 -2 -6 -10 7 -18 18 -18 24 0 6 1 8 3 6 1 -2 9 -13 17 -24z m474 9 c3
-8 2 -12 -4 -9 -6 3 -10 10 -10 16 0 14 7 11 14 -7z m-679 -4 c3 -6 -1 -7 -9
-4 -18 7 -21 14 -7 14 6 0 13 -4 16 -10z m1222 -5 c0 -8 -5 -11 -10 -8 -7 4
-8 -1 -4 -13 6 -17 6 -17 -5 -3 -7 9 -19 14 -25 12 -7 -3 -13 0 -13 6 0 5 9 8
20 6 11 -2 22 0 25 6 9 13 12 11 12 -6z m-142 -13 c-3 -3 -11 0 -18 7 -9 10
-8 11 6 5 10 -3 15 -9 12 -12z m75 13 c0 -2 -6 -8 -13 -14 -10 -8 -14 -7 -14
2 0 8 6 14 14 14 7 0 13 -1 13 -2z m101 -12 c13 -16 12 -17 -3 -4 -10 7 -18
15 -18 17 0 8 8 3 21 -13z m-1258 -20 c-5 -12 -3 -14 7 -8 9 6 11 4 5 -4 -5
-9 -11 -9 -17 -3 -6 6 -7 15 -4 21 11 17 16 13 9 -6z m663 -3 c0 -12 -4 -16
-9 -11 -5 5 -6 14 -3 20 10 15 12 14 12 -9z m664 10 c0 -5 -5 -10 -11 -10 -5
0 -7 5 -4 10 3 6 8 10 11 10 2 0 4 -4 4 -10z m460 0 c0 -5 -5 -10 -11 -10 -5
0 -7 5 -4 10 3 6 8 10 11 10 2 0 4 -4 4 -10z m140 -6 c0 -2 -7 -4 -15 -4 -8 0
-15 4 -15 10 0 5 7 7 15 4 8 -4 15 -8 15 -10z m-863 -19 c0 -8 -4 -12 -9 -9
-5 3 -6 10 -3 15 9 13 12 11 12 -6z m218 -3 c-3 -3 -11 0 -18 7 -9 10 -8 11 6
5 10 -3 15 -9 12 -12z m690 9 c-9 -8 -36 -10 -30 -2 2 4 11 8 20 8 8 0 13 -3
10 -6z m-848 -31 c2 -11 -1 -20 -5 -20 -4 0 -8 11 -8 25 0 28 8 24 13 -5z
m743 6 c0 -2 -9 -2 -20 1 -11 3 -20 9 -20 15 0 5 9 4 20 -2 11 -6 20 -12 20
-14z m-1840 4 c0 -5 -5 -10 -11 -10 -5 0 -7 5 -4 10 3 6 8 10 11 10 2 0 4 -4
4 -10z m234 2 c3 -5 -1 -9 -9 -9 -8 0 -12 4 -9 9 3 4 7 8 9 8 2 0 6 -4 9 -8z
m986 -7 c-5 -6 -7 -24 -4 -40 3 -16 2 -27 -1 -24 -3 4 -8 19 -11 35 -3 15 -7
30 -9 34 -2 3 5 6 15 6 13 0 16 -4 10 -11z m-405 -25 c-3 -4 1 -10 7 -13 7 -3
3 -4 -9 -4 -15 1 -19 5 -13 13 6 6 6 15 2 19 -4 5 -1 5 6 1 7 -4 10 -11 7 -16z
m41 4 c-1 -8 -6 -17 -12 -21 -5 -4 -6 -4 -2 1 4 5 3 14 -2 21 -7 8 -5 12 4 12
8 0 13 -6 12 -13z m1435 -1 c12 -16 12 -17 -2 -6 -9 7 -20 9 -24 5 -5 -4 -5
-1 -1 6 9 16 11 15 27 -5z m-1151 3 c0 -2 -8 -10 -17 -17 -16 -13 -17 -12 -4
4 13 16 21 21 21 13z m-364 -31 c-1 -8 -8 -21 -16 -28 -10 -10 -11 -9 -4 3 5
8 9 18 10 23 3 14 4 17 8 17 2 0 3 -7 2 -15z m1498 0 c-4 -8 -11 -15 -16 -15
-6 0 -5 6 2 15 7 8 14 15 16 15 2 0 1 -7 -2 -15z m-1394 -5 c0 -5 -4 -10 -10
-10 -5 0 -10 5 -10 10 0 6 5 10 10 10 6 0 10 -4 10 -10z m67 4 c-3 -3 -12 -4
-19 -1 -8 3 -5 6 6 6 11 1 17 -2 13 -5z m63 -9 c0 -2 -6 -5 -13 -8 -8 -3 -14
1 -14 8 0 7 6 11 14 8 7 -3 13 -6 13 -8z m1332 0 c0 -5 -5 -11 -10 -13 -5 -1
-9 4 -9 13 0 9 4 14 9 13 5 -2 10 -8 10 -13z m-2297 -15 c3 -6 -1 -7 -9 -4
-18 7 -21 14 -7 14 6 0 13 -4 16 -10z m489 -6 c3 -8 2 -12 -4 -9 -6 3 -10 10
-10 16 0 14 7 11 14 -7z m388 7 c-8 -4 -13 -11 -12 -15 1 -4 -1 -12 -4 -19 -3
-9 -1 26 3 41 1 1 7 2 14 2 9 0 9 -2 -1 -9z m47 -33 c-11 -21 -15 -22 -25 -6
-4 7 -3 8 4 4 12 -7 16 4 13 34 -2 13 0 13 8 1 6 -10 6 -21 0 -33z m191 38 c0
-3 -4 -8 -10 -11 -5 -3 -10 -1 -10 4 0 6 5 11 10 11 6 0 10 -2 10 -4z m40 0
c0 -3 -4 -8 -10 -11 -5 -3 -10 -1 -10 4 0 6 5 11 10 11 6 0 10 -2 10 -4z
m-817 -19 c3 -8 -1 -14 -8 -14 -7 0 -11 6 -8 14 3 7 6 13 8 13 2 0 5 -6 8 -13z
m124 6 c-4 -3 -2 -12 4 -19 7 -8 7 -14 -1 -19 -6 -4 -9 -1 -8 7 2 8 -6 13 -19
12 -13 -1 -23 3 -23 8 0 6 7 8 15 5 8 -4 17 -2 20 3 4 6 9 10 12 10 4 0 3 -3
0 -7z m311 -18 c0 -14 -4 -25 -7 -25 -4 0 -7 11 -7 25 0 14 3 25 7 25 3 0 7
-11 7 -25z m37 6 c-3 -6 -11 -11 -16 -11 -5 0 -4 6 3 14 14 16 24 13 13 -3z
m25 -11 c-6 -12 -14 -20 -17 -17 -2 3 1 14 8 26 7 11 15 18 17 16 2 -2 -2 -13
-8 -25z m138 5 c-3 -3 -9 2 -12 12 -6 14 -5 15 5 6 7 -7 10 -15 7 -18z m1238
5 c0 -12 -4 -16 -9 -11 -5 5 -6 14 -3 20 10 15 12 14 12 -9z m-2236 -4 c0 -7
-11 -21 -25 -30 -25 -16 -25 -16 -13 3 6 11 16 17 22 14 5 -4 7 1 3 10 -3 10
-2 17 3 17 6 0 10 -6 10 -14z m435 -15 c3 -5 2 -12 -3 -15 -5 -3 -9 1 -9 9 0
17 3 19 12 6z m330 -20 c-9 -8 -36 -10 -30 -2 2 4 11 8 20 8 8 0 13 -3 10 -6z
m69 1 c2 -4 0 -14 -6 -22 -8 -12 -9 -11 -4 4 5 14 2 17 -9 12 -9 -3 -13 -2
-10 4 7 12 22 13 29 2z m44 -8 c-2 -8 -7 -15 -13 -16 -5 -1 -16 -8 -23 -17
-11 -14 -11 -13 -2 7 6 13 16 20 22 16 7 -5 9 -1 5 9 -3 10 -2 17 4 17 6 0 9
-7 7 -16z m42 6 c0 -5 -7 -7 -15 -4 -8 4 -15 8 -15 10 0 2 7 4 15 4 8 0 15 -4
15 -10z m-139 -23 c-10 -9 -11 -8 -5 6 3 10 9 15 12 12 3 -3 0 -11 -7 -18z
m-744 7 c-3 -3 -12 -4 -19 -1 -8 3 -5 6 6 6 11 1 17 -2 13 -5z m920 -14 c1
-11 -2 -20 -7 -20 -6 0 -7 17 -1 38 3 8 7 -1 8 -18z m63 16 c0 -3 -4 -8 -10
-11 -5 -3 -10 -1 -10 4 0 6 5 11 10 11 6 0 10 -2 10 -4z m-956 -28 c-3 -4 -9
-8 -15 -8 -5 0 -9 4 -9 8 0 5 7 9 15 9 8 0 12 -4 9 -9z m755 -11 c0 -9 -2 -9
-5 0 -3 7 -13 9 -22 6 -14 -4 -14 -3 -2 5 16 12 30 7 29 -11z m81 15 c0 -5 -7
-9 -15 -9 -8 0 -12 4 -9 9 3 4 9 8 15 8 5 0 9 -4 9 -8z m1265 -28 c-8 -6 -12
-14 -8 -17 3 -4 1 -7 -5 -7 -17 0 -15 20 2 26 8 3 12 13 9 22 -4 15 -3 15 6 2
8 -11 7 -18 -4 -26z m-1245 6 c0 -5 -5 -10 -11 -10 -5 0 -7 5 -4 10 3 6 8 10
11 10 2 0 4 -4 4 -10z m1203 -67 c-7 -2 -19 -2 -25 0 -7 3 -2 5 12 5 14 0 19
-2 13 -5z m-1983 -28 c4 3 11 -2 14 -10 4 -13 2 -14 -14 -5 -11 6 -20 16 -19
23 0 9 2 9 6 -1 2 -6 8 -10 13 -7z m1972 -9 c7 4 6 9 -2 14 -7 4 4 7 23 6 32
-1 34 -3 22 -20 -8 -10 -11 -24 -9 -31 3 -7 1 -16 -5 -19 -6 -4 -9 7 -7 29 2
19 0 32 -5 29 -5 -3 -6 -10 -3 -16 4 -6 2 -8 -4 -4 -7 4 -9 -2 -6 -19 2 -14 0
-25 -6 -25 -5 0 -10 8 -10 17 0 15 -2 14 -14 -2 -8 -11 -12 -24 -8 -30 3 -5
-2 -4 -12 4 -11 10 -14 17 -7 24 7 7 6 14 -4 21 -11 8 -12 15 -4 26 9 12 10
12 5 -4 -5 -14 -2 -17 9 -12 9 3 13 2 10 -4 -3 -6 -2 -10 4 -10 15 0 23 18 11
25 -5 3 -10 12 -10 18 0 7 5 4 11 -6 6 -9 15 -15 21 -11z m-1931 -46 c6 0 7 5
3 12 -5 7 -3 8 5 3 9 -5 9 -11 3 -17 -12 -12 -32 -2 -31 15 0 9 2 9 6 0 2 -7
9 -13 14 -13z m1756 -42 c-3 -8 -6 -5 -6 6 -1 11 2 17 5 13 3 -3 4 -12 1 -19z
m-77 -28 c0 -5 -5 -10 -11 -10 -5 0 -7 5 -4 10 3 6 8 10 11 10 2 0 4 -4 4 -10z
m34 -1 c-2 -4 2 -10 8 -12 8 -4 9 -6 2 -6 -6 -1 -17 5 -23 12 -8 10 -7 14 4
14 8 0 12 -4 9 -8z m-1527 -51 c-3 -8 -6 -5 -6 6 -1 11 2 17 5 13 3 -3 4 -12
1 -19z m1164 -1 c-10 -9 -11 -8 -5 6 3 10 9 15 12 12 3 -3 0 -11 -7 -18z m162
8 c-3 -9 -8 -14 -10 -11 -3 3 -2 9 2 15 9 16 15 13 8 -4z m-1302 -18 c-16 -16
-14 -27 5 -27 8 0 12 5 9 10 -3 6 -2 10 3 10 5 0 9 -13 9 -30 0 -16 -4 -30 -9
-30 -5 0 -7 4 -3 9 9 15 -15 24 -30 11 -12 -10 -13 -8 -10 10 2 12 9 28 15 34
5 7 6 17 2 21 -4 5 -1 5 6 0 10 -5 11 -10 3 -18z m763 5 c3 -5 -1 -9 -9 -9 -8
0 -12 4 -9 9 3 4 7 8 9 8 2 0 6 -4 9 -8z m406 -2 c0 -5 -5 -10 -11 -10 -5 0
-7 5 -4 10 3 6 8 10 11 10 2 0 4 -4 4 -10z m-1097 -27 c-3 -7 -6 -13 -8 -13
-2 0 -5 6 -8 13 -3 8 1 14 8 14 7 0 11 -6 8 -14z m837 7 c0 -5 -5 -10 -11 -10
-5 0 -7 5 -4 10 3 6 8 10 11 10 2 0 4 -4 4 -10z m115 -20 c-3 -5 -14 -10 -23
-9 -14 0 -13 2 3 9 27 11 27 11 20 0z m-810 -60 c3 -6 -1 -7 -9 -4 -18 7 -21
14 -7 14 6 0 13 -4 16 -10z m720 -70 c-3 -5 -12 -10 -18 -10 -7 0 -6 4 3 10
19 12 23 12 15 0z m-650 -20 c-2 -12 1 -20 8 -19 26 3 38 -1 31 -12 -4 -8 -9
-7 -15 2 -7 12 -9 12 -9 0 0 -10 -3 -11 -14 -2 -10 9 -15 9 -18 1 -2 -7 -13
-4 -28 10 -22 19 -23 20 -3 11 26 -13 33 -14 32 -3 -3 17 2 32 10 32 6 0 8 -9
6 -20z m90 -70 c-4 -7 -27 -7 -45 0 -3 1 -9 2 -15 1 -5 -1 0 7 12 18 12 10 21
20 20 23 -1 2 6 -5 15 -15 10 -11 16 -23 13 -27z m13 25 c-3 -3 -9 2 -12 12
-6 14 -5 15 5 6 7 -7 10 -15 7 -18z m346 13 c-3 -4 -9 -8 -15 -8 -5 0 -9 4 -9
8 0 5 7 9 15 9 8 0 12 -4 9 -9z m-253 -26 c-7 -2 -18 1 -23 6 -8 8 -4 9 13 5
13 -4 18 -8 10 -11z m229 -3 c0 -6 -4 -7 -10 -4 -5 3 -10 11 -10 16 0 6 5 7
10 4 6 -3 10 -11 10 -16z m-268 -13 c-3 -5 2 -7 11 -3 12 4 14 2 10 -11 -5
-14 -3 -14 17 3 13 11 20 14 15 6 -5 -9 -3 -12 6 -9 8 3 13 10 12 15 -1 5 5
10 13 10 12 0 12 -3 -1 -17 -8 -9 -15 -23 -15 -31 0 -8 6 -5 16 9 11 16 20 20
32 13 16 -8 48 10 36 21 -2 3 3 5 11 5 8 0 12 -3 10 -7 -6 -9 35 -30 62 -33
35 -2 15 -12 -27 -13 -26 0 -41 5 -45 14 -4 12 -10 11 -29 -7 -22 -21 -25 -21
-34 -6 -8 16 -10 16 -16 -1 -7 -18 -8 -18 -21 -1 -9 12 -15 14 -20 7 -5 -8
-11 -8 -21 1 -10 8 -14 8 -14 0 0 -17 -27 -13 -34 5 -5 14 -9 14 -24 3 -14
-11 -15 -11 -5 0 6 7 9 19 7 26 -4 9 4 12 25 11 16 0 27 -5 23 -10z"/>
<path d="M2120 3465 c0 -5 5 -17 10 -25 9 -13 10 -13 10 0 0 13 1 13 11 0 7
-10 9 -11 7 -2 -2 8 -7 13 -12 12 -5 -1 -13 4 -17 12 -5 7 -9 9 -9 3z"/>
<path d="M1509 3243 c-13 -16 -12 -17 4 -4 16 13 21 21 13 21 -2 0 -10 -8 -17
-17z"/>
<path d="M1461 3216 c-8 -10 -9 -16 -1 -21 5 -3 10 -5 11 -3 4 18 7 38 4 38
-1 0 -8 -6 -14 -14z"/>
<path d="M2826 3112 c-3 -5 9 -22 27 -38 l32 -29 -25 28 c-14 16 -23 31 -22
34 2 2 1 7 -1 9 -3 3 -8 1 -11 -4z"/>
<path d="M2897 3036 c-7 -17 19 -29 38 -19 10 6 10 11 -3 23 -14 13 -15 12 -9
-5 7 -19 6 -19 -7 -2 -11 15 -15 15 -19 3z"/>
<path d="M1890 3001 c0 -6 4 -13 10 -16 6 -3 7 1 4 9 -7 18 -14 21 -14 7z"/>
<path d="M1941 2995 c9 -11 14 -26 12 -33 -3 -9 2 -12 13 -10 13 2 19 -3 18
-14 -1 -10 4 -14 12 -11 11 4 10 10 -4 31 -9 14 -12 23 -5 19 6 -4 14 -3 17 1
3 5 -5 8 -17 8 -12 -1 -31 5 -42 13 -19 15 -19 15 -4 -4z"/>
<path d="M2000 2960 c0 -5 5 -10 10 -10 6 0 10 5 10 10 0 6 -4 10 -10 10 -5 0
-10 -4 -10 -10z"/>
<path d="M1710 2935 c-11 -13 -10 -14 4 -9 9 3 16 10 16 15 0 13 -6 11 -20 -6z"/>
<path d="M1891 2924 c0 -11 3 -14 6 -6 3 7 2 16 -1 19 -3 4 -6 -2 -5 -13z"/>
<path d="M1670 2919 c0 -5 5 -7 10 -4 6 3 10 8 10 11 0 2 -4 4 -10 4 -5 0 -10
-5 -10 -11z"/>
<path d="M1792 2921 c-11 -6 -10 -10 4 -15 9 -3 19 -4 22 -1 3 3 0 5 -7 5 -7
0 -9 5 -6 10 7 12 4 12 -13 1z"/>
<path d="M1835 2911 c-6 -11 13 -26 22 -17 4 3 1 6 -6 6 -7 0 -9 5 -6 10 3 6
4 10 1 10 -3 0 -7 -4 -11 -9z"/>
<path d="M1979 2905 c-1 -3 -2 -8 -3 -12 -1 -5 -5 -14 -9 -20 -6 -9 -3 -11 7
-7 8 3 14 14 13 25 -1 18 -5 25 -8 14z"/>
<path d="M1732 2893 c-7 -2 -17 -14 -23 -26 -9 -20 -9 -20 4 -5 9 11 17 14 23
8 6 -6 10 -2 10 10 0 11 0 20 -1 19 0 0 -6 -3 -13 -6z"/>
<path d="M1875 2890 c-3 -6 1 -7 9 -4 18 7 21 14 7 14 -6 0 -13 -4 -16 -10z"/>
<path d="M1866 2857 c3 -10 9 -15 12 -12 3 3 0 11 -7 18 -10 9 -11 8 -5 -6z"/>
<path d="M1715 2820 c3 -5 8 -10 11 -10 2 0 4 5 4 10 0 6 -5 10 -11 10 -5 0
-7 -4 -4 -10z"/>
<path d="M1790 2820 c0 -5 5 -10 11 -10 5 0 7 5 4 10 -3 6 -8 10 -11 10 -2 0
-4 -4 -4 -10z"/>
<path d="M1540 2762 c0 -5 10 -8 23 -7 12 1 29 -3 37 -9 13 -9 13 -8 3 4 -12
16 -63 25 -63 12z"/>
<path d="M1827 2759 c7 -9 10 -19 6 -22 -3 -4 -1 -7 5 -7 17 0 15 16 -5 31
-16 12 -17 12 -6 -2z"/>
<path d="M1795 2740 c3 -5 8 -10 11 -10 2 0 4 5 4 10 0 6 -5 10 -11 10 -5 0
-7 -4 -4 -10z"/>
<path d="M1496 2725 c4 -8 10 -15 15 -15 4 0 6 7 3 15 -4 8 -10 15 -15 15 -4
0 -6 -7 -3 -15z"/>
<path d="M1416 2713 c-8 -21 -8 -22 12 -18 9 1 23 -2 30 -8 8 -6 12 -6 12 2 0
7 5 9 10 6 6 -3 10 -1 10 5 0 7 -8 9 -20 5 -13 -4 -20 -2 -18 5 4 18 -30 21
-36 3z"/>
<path d="M1790 2676 c0 -2 8 -10 18 -17 15 -13 16 -12 3 4 -13 16 -21 21 -21
13z"/>
<path d="M1790 2640 c0 -5 5 -10 11 -10 5 0 7 5 4 10 -3 6 -8 10 -11 10 -2 0
-4 -4 -4 -10z"/>
<path d="M1456 2615 c-9 -26 -7 -32 5 -12 6 10 9 21 6 23 -2 3 -7 -2 -11 -11z"/>
<path d="M1430 2580 c0 -5 5 -10 11 -10 5 0 7 5 4 10 -3 6 -8 10 -11 10 -2 0
-4 -4 -4 -10z"/>
<path d="M1774 2569 c-3 -6 -2 -15 3 -20 5 -5 9 -1 9 11 0 23 -2 24 -12 9z"/>
<path d="M1786 2497 c3 -10 9 -15 12 -12 3 3 0 11 -7 18 -10 9 -11 8 -5 -6z"/>
<path d="M1286 2462 c-3 -5 1 -9 9 -9 8 0 12 4 9 9 -3 4 -7 8 -9 8 -2 0 -6 -4
-9 -8z"/>
<path d="M1350 2460 c0 -5 5 -10 11 -10 5 0 7 5 4 10 -3 6 -8 10 -11 10 -2 0
-4 -4 -4 -10z"/>
<path d="M1705 2440 c-3 -6 1 -7 9 -4 18 7 21 14 7 14 -6 0 -13 -4 -16 -10z"/>
<path d="M1355 2420 c-16 -7 -17 -9 -3 -9 9 -1 20 4 23 9 7 11 7 11 -20 0z"/>
<path d="M1773 2394 c0 -7 6 -10 14 -7 7 3 13 8 13 12 0 4 -6 8 -13 8 -8 0
-14 -6 -14 -13z"/>
<path d="M1355 2391 c-3 -5 -2 -12 3 -15 5 -3 9 1 9 9 0 17 -3 19 -12 6z"/>
<path d="M1726 2382 c-3 -5 1 -9 9 -9 8 0 12 4 9 9 -3 4 -7 8 -9 8 -2 0 -6 -4
-9 -8z"/>
<path d="M1334 2335 c-4 -8 -10 -12 -15 -9 -5 3 -9 3 -9 0 0 -3 9 -10 19 -15
16 -9 18 -8 13 11 -4 16 -2 19 8 13 9 -5 11 -4 6 3 -10 16 -15 15 -22 -3z"/>
<path d="M1396 2342 c-3 -5 1 -9 9 -9 8 0 12 4 9 9 -3 4 -7 8 -9 8 -2 0 -6 -4
-9 -8z"/>
<path d="M1733 2275 c0 -8 4 -12 9 -9 5 3 6 10 3 15 -9 13 -12 11 -12 -6z"/>
<path d="M1770 2260 c0 -5 5 -10 11 -10 5 0 7 5 4 10 -3 6 -8 10 -11 10 -2 0
-4 -4 -4 -10z"/>
<path d="M1340 2238 c0 -4 4 -8 9 -8 6 0 12 4 15 8 3 5 -1 9 -9 9 -8 0 -15 -4
-15 -9z"/>
<path d="M1755 2220 c3 -5 8 -10 11 -10 2 0 4 5 4 10 0 6 -5 10 -11 10 -5 0
-7 -4 -4 -10z"/>
<path d="M1260 2200 c0 -5 7 -10 16 -10 8 0 12 5 9 10 -3 6 -10 10 -16 10 -5
0 -9 -4 -9 -10z"/>
<path d="M1335 2201 c-3 -5 0 -13 6 -17 7 -4 9 -3 5 4 -3 6 2 13 11 15 16 4
16 5 1 6 -9 0 -19 -3 -23 -8z"/>
<path d="M1713 2195 c0 -8 4 -12 9 -9 5 3 6 10 3 15 -9 13 -12 11 -12 -6z"/>
<path d="M1739 2153 c-12 -16 -12 -17 2 -6 9 7 19 10 22 6 4 -3 7 -1 7 5 0 17
-16 15 -31 -5z"/>
<path d="M1350 2131 c0 -5 7 -12 16 -15 8 -3 12 -11 8 -17 -4 -8 -3 -9 4 -5 9
5 8 12 -1 26 -12 21 -27 26 -27 11z"/>
<path d="M1714 2112 c0 -19 19 -24 31 -9 3 4 2 5 -2 2 -3 -3 -11 2 -17 11 -10
13 -12 13 -12 -4z"/>
<path d="M1386 2082 c-3 -5 1 -9 9 -9 8 0 12 4 9 9 -3 4 -7 8 -9 8 -2 0 -6 -4
-9 -8z"/>
<path d="M1358 2023 c10 -4 9 -8 -4 -17 -14 -11 -13 -14 12 -31 16 -11 34 -20
39 -20 6 -1 9 -7 7 -14 -1 -7 2 -10 9 -5 8 5 9 3 5 -5 -6 -9 -13 -8 -27 5 -11
9 -22 15 -25 11 -3 -3 8 -15 25 -28 17 -12 28 -26 25 -31 -3 -4 3 -8 12 -8 10
0 14 3 11 7 -4 3 -2 12 4 19 8 10 16 10 35 2 18 -9 21 -14 13 -25 -9 -10 -8
-13 2 -13 8 -1 3 -8 -11 -16 -23 -14 -13 -13 25 2 9 4 17 -1 21 -11 5 -13 9
-14 15 -3 7 11 11 10 19 -2 5 -8 7 -22 4 -30 -3 -8 8 -2 24 13 17 16 31 25 33
20 2 -4 18 6 36 23 22 22 26 30 14 29 -9 0 -21 -4 -28 -8 -6 -4 -16 0 -23 8
-7 8 -18 15 -26 15 -17 0 -46 -29 -39 -41 12 -19 -11 -8 -34 16 -13 14 -28 25
-33 25 -6 0 -4 7 3 17 13 15 12 15 -11 3 -14 -7 -27 -12 -30 -9 -29 22 -49 43
-45 47 2 3 10 0 18 -6 8 -7 18 -8 27 -1 13 9 13 10 0 7 -8 -1 -25 3 -37 10
-12 7 -28 9 -36 6 -8 -3 -18 0 -23 7 -4 7 -3 10 4 5 6 -3 13 -2 17 4 4 6 11 8
16 5 5 -4 9 -1 9 5 0 7 -7 10 -15 7 -8 -4 -17 -2 -20 3 -4 6 -12 10 -18 9 -8
0 -8 -2 1 -6z m86 -114 c-3 -5 -10 -7 -15 -3 -5 3 -7 10 -3 15 3 5 10 7 15 3
5 -3 7 -10 3 -15z m186 -24 c10 -12 16 -13 29 -3 10 8 9 5 -3 -10 -11 -12 -21
-20 -24 -17 -3 3 -11 0 -19 -6 -7 -6 -13 -8 -13 -3 0 5 -4 3 -9 -4 -7 -11 -9
-10 -14 3 -4 9 -3 13 3 10 6 -3 10 -1 10 5 0 7 6 10 13 7 8 -3 14 1 14 8 0 10
-5 11 -18 4 -26 -13 -33 -11 -19 6 16 19 34 19 50 0z m-94 -16 c19 -22 19 -22
-3 -8 -13 8 -23 17 -23 21 0 12 6 9 26 -13z"/>
<path d="M1420 2001 c0 -5 7 -12 16 -15 14 -5 15 -4 4 9 -14 17 -20 19 -20 6z"/>
<path d="M1520 1960 c-9 -6 -10 -10 -3 -10 6 0 15 5 18 10 8 12 4 12 -15 0z"/>
<path d="M1640 1955 c-9 -10 -9 -15 -1 -15 6 0 11 5 11 11 0 5 5 7 12 3 7 -4
8 -3 4 4 -9 15 -11 15 -26 -3z"/>
<path d="M1468 1943 c7 -3 16 -2 19 1 4 3 -2 6 -13 5 -11 0 -14 -3 -6 -6z"/>
<path d="M1713 1935 c0 -11 4 -12 14 -4 7 6 13 13 13 15 0 2 -6 4 -13 4 -8 0
-14 -7 -14 -15z"/>
<path d="M1570 1919 c0 -5 5 -7 10 -4 6 3 10 8 10 11 0 2 -4 4 -10 4 -5 0 -10
-5 -10 -11z"/>
<path d="M1521 1917 c2 -1 13 -9 24 -17 19 -14 19 -14 6 3 -7 9 -18 17 -24 17
-6 0 -8 -1 -6 -3z"/>
<path d="M1165 2809 c-4 -6 -5 -12 -2 -15 2 -3 7 2 10 11 7 17 1 20 -8 4z"/>
<path d="M1123 2733 c4 -3 1 -13 -6 -22 -11 -14 -10 -14 5 -2 16 12 16 31 1
31 -4 0 -3 -3 0 -7z"/>
<path d="M1096 2658 c3 -4 11 -5 19 -1 21 7 19 12 -4 10 -11 0 -18 -5 -15 -9z"/>
<path d="M1075 2571 c-3 -6 -8 -21 -10 -33 -3 -13 -11 -28 -19 -34 -12 -9 -12
-12 4 -22 21 -13 29 -6 24 22 -1 11 6 27 17 37 16 14 17 18 5 28 -10 8 -16 9
-21 2z m6 -24 c-10 -9 -11 -8 -5 6 3 10 9 15 12 12 3 -3 0 -11 -7 -18z m-14
-52 c0 -8 -4 -12 -9 -9 -5 3 -6 10 -3 15 9 13 12 11 12 -6z"/>
<path d="M1055 2450 c-4 -6 -8 -23 -11 -38 -4 -25 -3 -25 8 -7 11 18 19 55 12
55 -2 0 -6 -5 -9 -10z"/>
<path d="M2461 2761 c-7 -11 -15 -20 -19 -20 -4 1 -10 0 -14 -1 -5 -1 -14 -3
-20 -4 -7 -1 -12 -8 -10 -15 1 -7 -2 -10 -7 -6 -6 3 -7 13 -4 23 6 15 4 15
-15 -2 -12 -11 -20 -21 -17 -24 3 -3 0 -11 -6 -18 -7 -8 -6 -14 2 -19 13 -9
31 14 22 28 -3 5 0 7 8 5 8 -3 13 -11 12 -17 -2 -6 2 -11 7 -11 6 0 11 5 11
10 1 6 2 16 3 22 0 7 10 14 21 16 12 2 16 0 9 -5 -9 -6 -7 -12 4 -23 14 -13
15 -12 9 3 -3 9 -2 19 3 22 6 4 10 2 10 -3 0 -5 7 -9 16 -9 14 0 14 2 -2 14
-18 13 -17 14 7 8 18 -4 29 -2 35 7 4 7 3 10 -1 5 -5 -4 -19 2 -31 14 l-22 21
-11 -21z m35 -13 c4 -7 3 -8 -5 -4 -6 4 -20 2 -29 -6 -15 -12 -16 -11 -3 5 16
20 27 22 37 5z"/>
<path d="M2470 2690 c0 -5 7 -7 15 -4 8 4 15 8 15 10 0 2 -7 4 -15 4 -8 0 -15
-4 -15 -10z"/>
<path d="M2380 2665 c0 -7 30 -13 34 -7 3 4 -4 9 -15 9 -10 1 -19 0 -19 -2z"/>
<path d="M2433 2655 c0 -8 4 -12 9 -9 4 3 8 9 8 15 0 5 -4 9 -8 9 -5 0 -9 -7
-9 -15z"/>
<path d="M2519 2668 c-7 -23 -4 -35 7 -35 8 0 14 4 14 9 0 4 -5 8 -11 8 -5 0
-7 5 -4 10 3 6 4 10 1 10 -3 0 -6 -1 -7 -2z"/>
<path d="M2376 2633 c-6 -14 -5 -15 5 -6 7 7 10 15 7 18 -3 3 -9 -2 -12 -12z"/>
<path d="M2340 2602 c0 -4 9 -8 19 -8 11 0 17 4 15 8 -3 4 -12 8 -20 8 -8 0
-14 -4 -14 -8z"/>
<path d="M2310 2581 c0 -6 4 -12 8 -15 5 -3 9 1 9 9 0 8 -4 15 -9 15 -4 0 -8
-4 -8 -9z"/>
<path d="M2495 2551 c-3 -5 -2 -12 3 -15 5 -3 9 1 9 9 0 17 -3 19 -12 6z"/>
<path d="M2310 2546 c0 -2 7 -7 16 -10 8 -3 12 -2 9 4 -6 10 -25 14 -25 6z"/>
<path d="M2233 2510 c-1 -11 2 -20 7 -20 4 0 7 7 6 15 -3 23 -12 26 -13 5z"/>
<path d="M2406 2498 c3 -5 10 -6 15 -3 13 9 11 12 -6 12 -8 0 -12 -4 -9 -9z"/>
<path d="M2456 2502 c-3 -4 4 -9 15 -9 23 -2 25 3 4 10 -8 4 -16 3 -19 -1z"/>
<path d="M2563 2485 c-9 -10 -6 -12 14 -12 14 0 21 2 17 6 -5 3 -11 9 -14 13
-3 3 -10 0 -17 -7z"/>
<path d="M2384 2462 c4 -3 14 -7 22 -8 9 -1 13 0 10 4 -4 3 -14 7 -22 8 -9 1
-13 0 -10 -4z"/>
<path d="M2310 2450 c0 -5 5 -10 10 -10 6 0 10 5 10 10 0 6 -4 10 -10 10 -5 0
-10 -4 -10 -10z"/>
<path d="M2438 2443 c6 -2 10 -9 7 -14 -4 -5 1 -6 10 -2 13 5 14 7 3 14 -7 5
-17 8 -23 8 -5 0 -4 -3 3 -6z"/>
<path d="M2616 2423 l-20 -27 27 20 c14 10 27 22 27 27 0 15 -16 6 -34 -20z"/>
<path d="M2423 2420 c2 -8 0 -23 -5 -32 -5 -10 -6 -18 -4 -18 13 0 24 37 15
51 -9 12 -10 12 -6 -1z"/>
<path d="M2350 2375 c7 -8 16 -12 21 -9 16 9 10 20 -12 21 -17 2 -18 -1 -9
-12z"/>
<path d="M2516 2381 c-3 -5 3 -11 15 -14 16 -4 18 -3 8 9 -13 16 -16 17 -23 5z"/>
<path d="M2613 2615 c0 -8 4 -12 8 -9 5 2 6 -8 5 -24 -3 -20 0 -29 10 -29 9 0
11 4 4 12 -6 7 -6 15 2 23 8 8 8 15 -2 27 -16 19 -27 19 -27 0z"/>
<path d="M3027 2483 c-4 -7 -3 -14 3 -18 10 -6 -8 -32 -20 -31 -12 2 -54 -45
-56 -62 -2 -10 6 -23 17 -31 12 -7 18 -8 15 -3 -7 12 31 62 46 59 6 -1 12 6
13 16 2 9 -1 17 -7 17 -7 0 -7 4 0 13 5 6 6 21 2 31 -4 13 -9 16 -13 9z m7
-69 c3 -8 2 -13 -3 -9 -5 3 -21 -8 -34 -25 -14 -17 -29 -26 -32 -20 -3 5 -1
10 5 10 6 0 9 4 6 9 -7 11 18 33 27 24 4 -3 9 2 13 11 8 20 10 20 18 0z"/>
<path d="M3070 2400 c0 -5 5 -10 11 -10 5 0 7 5 4 10 -3 6 -8 10 -11 10 -2 0
-4 -4 -4 -10z"/>
<path d="M2915 2280 c3 -5 8 -10 11 -10 2 0 4 5 4 10 0 6 -5 10 -11 10 -5 0
-7 -4 -4 -10z"/>
<path d="M2881 2146 c-19 -20 -20 -24 -6 -30 9 -3 13 -2 10 4 -3 6 -1 10 6 10
7 0 9 3 6 7 -4 3 -2 12 4 20 19 22 4 14 -20 -11z"/>
<path d="M2977 2156 c-3 -8 -3 -17 0 -20 10 -10 33 -7 33 4 0 5 -8 6 -17 3
-16 -6 -16 -5 -4 10 7 9 9 17 3 17 -5 0 -12 -6 -15 -14z"/>
<path d="M3050 2151 c0 -5 5 -13 10 -16 6 -3 10 -2 10 4 0 5 -4 13 -10 16 -5
3 -10 2 -10 -4z"/>
<path d="M3025 2119 c-4 -6 -4 -13 -1 -16 3 -4 6 -1 6 6 0 7 5 9 10 6 6 -3 10
-1 10 4 0 14 -17 14 -25 0z"/>
<path d="M2904 2076 c1 -8 5 -18 8 -22 4 -3 5 1 4 10 -1 8 -5 18 -8 22 -4 3
-5 -1 -4 -10z"/>
<path d="M3000 2080 c0 -5 5 -10 10 -10 6 0 10 5 10 10 0 6 -4 10 -10 10 -5 0
-10 -4 -10 -10z"/>
<path d="M2917 1983 c-3 -5 7 -17 24 -27 27 -16 30 -16 35 -1 5 11 9 13 14 5
5 -7 11 -6 21 6 9 12 10 15 2 10 -7 -4 -19 -4 -25 1 -20 12 -37 12 -44 1 -4
-7 -9 -6 -14 2 -4 7 -10 8 -13 3z m58 -12 c-9 -8 -36 -10 -30 -2 2 4 11 8 20
8 8 0 13 -3 10 -6z"/>
<path d="M2459 2373 c-13 -16 -12 -17 4 -4 9 7 17 15 17 17 0 8 -8 3 -21 -13z"/>
<path d="M3020 2363 c0 -6 5 -15 10 -18 8 -5 7 -12 -2 -23 -10 -14 -10 -15 2
-5 10 9 17 10 27 2 10 -9 13 -8 13 2 0 11 2 11 10 -1 6 -9 5 -17 -1 -21 -7 -4
-5 -8 4 -12 12 -4 15 0 12 15 -6 28 -26 50 -41 44 -8 -3 -18 3 -23 12 -6 9
-11 12 -11 5z"/>
<path d="M1050 2239 c0 -5 5 -7 10 -4 6 3 10 8 10 11 0 2 -4 4 -10 4 -5 0 -10
-5 -10 -11z"/>
<path d="M1040 2198 c6 -7 6 -16 -1 -24 -7 -8 -7 -14 1 -19 8 -5 8 -11 -1 -21
-6 -8 -10 -14 -8 -15 34 -7 36 -5 36 22 0 16 -5 29 -11 29 -6 0 -3 5 7 11 9 5
17 15 17 21 0 7 -4 7 -13 -1 -9 -7 -18 -7 -25 -1 -9 7 -9 7 -2 -2z"/>
<path d="M1052 2077 c-7 -8 -9 -17 -5 -20 3 -4 0 -7 -8 -7 -12 0 -12 -2 1 -9
19 -13 34 -3 20 14 -8 10 -7 14 2 18 7 2 10 7 7 11 -3 4 -11 0 -17 -7z"/>
<path d="M1910 1179 c0 -5 -6 -7 -12 -3 -7 4 -9 3 -5 -1 13 -15 36 -14 30 1
-6 17 -13 18 -13 3z"/>
<path d="M1975 1139 c10 -10 22 -16 27 -13 12 8 -6 27 -28 30 -14 2 -14 0 1
-17z"/>
<path d="M2160 1146 c0 -3 9 -10 20 -16 11 -6 20 -8 20 -6 0 3 -9 10 -20 16
-11 6 -20 8 -20 6z"/>
<path d="M2107 1125 c3 -8 9 -12 14 -9 12 7 11 11 -5 17 -10 4 -13 1 -9 -8z"/>
<path d="M2035 3490 c-5 -8 -4 -11 2 -7 6 4 16 -7 23 -23 7 -17 16 -30 21 -30
13 0 20 18 9 25 -8 5 -8 11 0 20 8 9 8 15 0 20 -9 6 -14 -1 -11 -17 2 -14 -11
-9 -24 9 -9 13 -14 13 -20 3z"/>
<path d="M2301 3483 c15 -24 29 -30 29 -12 0 5 5 7 12 3 7 -4 8 -3 4 5 -4 6
-12 9 -17 5 -5 -3 -17 0 -26 8 -15 12 -15 11 -2 -9z"/>
<path d="M1876 3475 c-3 -8 -1 -15 4 -15 6 0 10 7 10 15 0 8 -2 15 -4 15 -2 0
-6 -7 -10 -15z"/>
<path d="M2271 3474 c0 -11 3 -14 6 -6 3 7 2 16 -1 19 -3 4 -6 -2 -5 -13z"/>
<path d="M2396 3468 c5 -8 2 -9 -10 -5 -9 4 -15 3 -11 -2 3 -6 14 -9 25 -8 14
1 16 4 8 14 -13 16 -22 17 -12 1z"/>
<path d="M1786 3462 c-3 -5 1 -9 9 -9 8 0 12 4 9 9 -3 4 -7 8 -9 8 -2 0 -6 -4
-9 -8z"/>
<path d="M2282 3454 c-16 -18 -8 -33 16 -29 9 1 30 -9 46 -24 27 -25 29 -25
24 -4 -4 15 -2 20 8 16 8 -3 12 -9 9 -13 -3 -5 3 -7 12 -5 10 1 28 -7 41 -19
l23 -21 -9 25 c-5 14 -7 30 -5 37 2 6 -1 14 -6 18 -7 4 -8 -1 -4 -12 6 -17 5
-17 -14 0 -11 9 -23 14 -26 10 -4 -3 -16 2 -27 12 -11 10 -23 15 -27 12 -3 -4
-1 -7 6 -7 7 0 9 -5 6 -10 -5 -8 -11 -7 -21 1 -8 6 -14 8 -14 3 0 -5 -6 -2
-13 7 -10 14 -14 14 -25 3z m22 -12 c3 -5 -1 -9 -9 -9 -8 0 -12 4 -9 9 3 4 7
8 9 8 2 0 6 -4 9 -8z m52 -11 c8 7 14 7 19 -1 4 -6 1 -9 -7 -8 -7 2 -12 -3
-10 -9 3 -18 -2 -16 -24 10 -10 12 -12 16 -4 10 9 -9 17 -9 26 -2z m69 -21
c17 -19 17 -19 -8 -7 -14 6 -23 15 -21 19 7 11 9 10 29 -12z"/>
<path d="M1755 3450 c-4 -6 -11 -7 -17 -4 -7 4 -8 2 -4 -5 6 -9 11 -9 22 0 14
11 18 19 10 19 -3 0 -8 -5 -11 -10z"/>
<path d="M1833 3452 c16 -7 16 -8 -1 -23 -10 -8 -23 -14 -30 -11 -7 2 -12 -1
-12 -8 0 -6 -5 -8 -10 -5 -8 5 -7 12 2 23 9 11 5 10 -14 -3 -14 -11 -25 -21
-23 -23 8 -9 46 -9 51 0 4 6 9 5 15 -3 7 -11 14 -8 36 14 24 23 26 29 13 37
-8 5 -22 9 -30 9 -11 0 -10 -2 3 -7z m27 -15 c0 -2 -10 -12 -22 -23 l-23 -19
19 23 c18 21 26 27 26 19z"/>
<path d="M1696 3437 c3 -10 9 -15 12 -12 3 3 0 11 -7 18 -10 9 -11 8 -5 -6z"/>
<path d="M1707 3389 c-4 -14 -10 -18 -19 -13 -20 13 -46 15 -53 4 -4 -6 1 -7
11 -3 13 5 15 3 9 -8 -7 -12 -6 -12 7 -1 14 11 18 10 27 -5 8 -14 10 -15 11
-3 0 12 2 12 9 1 7 -10 13 -11 30 -2 21 12 21 31 0 31 -6 0 -8 -4 -4 -9 3 -5
1 -12 -4 -15 -5 -4 -8 5 -6 19 3 30 -10 33 -18 4z"/>
<path d="M2550 3396 c7 -7 13 -7 20 0 6 6 3 10 -10 10 -13 0 -16 -4 -10 -10z"/>
<path d="M1576 3372 c-2 -4 -1 -14 4 -22 7 -11 9 -9 7 8 -1 24 -3 26 -11 14z"/>
<path d="M1606 3363 c-6 -14 -5 -15 5 -6 7 7 10 15 7 18 -3 3 -9 -2 -12 -12z"/>
<path d="M2634 3363 c2 -10 -2 -22 -8 -26 -7 -6 -6 -7 3 -5 16 5 24 35 11 43
-5 3 -7 -3 -6 -12z"/>
<path d="M2657 3337 c-3 -8 -2 -20 3 -26 5 -9 8 -4 8 13 0 29 -3 32 -11 13z"/>
<path d="M1386 3298 c3 -5 10 -6 15 -3 13 9 11 12 -6 12 -8 0 -12 -4 -9 -9z"/>
<path d="M1435 3300 c-3 -5 -1 -10 4 -10 6 0 11 5 11 10 0 6 -2 10 -4 10 -3 0
-8 -4 -11 -10z"/>
<path d="M1465 3279 c-11 -16 -1 -19 13 -3 7 8 8 14 3 14 -5 0 -13 -5 -16 -11z"/>
<path d="M2700 3279 c0 -4 6 -9 13 -12 8 -3 14 0 14 7 0 7 -6 13 -14 13 -7 0
-13 -4 -13 -8z"/>
<path d="M1410 3240 c0 -5 5 -10 10 -10 6 0 10 5 10 10 0 6 -4 10 -10 10 -5 0
-10 -4 -10 -10z"/>
<path d="M2762 3206 c-8 -19 -8 -27 3 -36 10 -8 15 -8 20 1 4 6 2 15 -6 19
-10 7 -10 11 0 24 8 9 9 16 4 16 -5 0 -15 -11 -21 -24z"/>
<path d="M2804 3195 c8 -7 12 -16 8 -20 -4 -5 -2 -5 5 -1 16 9 6 33 -14 33
-14 0 -14 -1 1 -12z"/>
<path d="M1358 3163 c0 -5 -2 -12 -3 -18 -2 -5 -3 -16 -4 -23 0 -7 -5 -11 -11
-7 -5 3 -6 13 -3 23 6 16 6 16 -10 0 -18 -18 -23 -33 -8 -23 5 3 12 1 16 -5 4
-7 13 -7 26 0 11 6 25 8 32 4 6 -4 9 -4 5 1 -4 4 -2 15 5 23 10 13 9 14 -1 8
-7 -4 -15 -1 -18 8 -6 16 -23 22 -26 9z m16 -33 c-6 -6 -10 -2 -11 12 -2 16 1
18 10 9 7 -7 8 -14 1 -21z"/>
<path d="M1278 3133 c7 -3 16 -2 19 1 4 3 -2 6 -13 5 -11 0 -14 -3 -6 -6z"/>
<path d="M1230 3120 c0 -5 5 -10 11 -10 5 0 7 5 4 10 -3 6 -8 10 -11 10 -2 0
-4 -4 -4 -10z"/>
<path d="M2890 3123 c5 -2 8 -9 5 -13 -3 -5 5 -14 17 -20 22 -11 22 -11 3 5
-11 9 -19 19 -17 23 2 3 -1 7 -8 9 -6 1 -7 0 0 -4z"/>
<path d="M1270 3099 c0 -15 18 -19 23 -6 3 8 -1 14 -9 14 -8 0 -14 -4 -14 -8z"/>
<path d="M2940 3090 c6 -11 15 -20 20 -20 6 0 2 9 -7 20 -10 11 -19 20 -21 20
-1 0 2 -9 8 -20z"/>
<path d="M1309 3089 c-1 -5 -2 -13 -3 -18 -2 -14 -16 -26 -16 -13 0 6 -7 9
-17 5 -12 -5 -14 -3 -8 7 5 9 4 11 -4 6 -15 -10 -4 -26 17 -26 15 -1 15 -2 -2
-15 -10 -7 -15 -19 -11 -25 5 -8 17 -2 39 18 17 16 42 36 56 45 13 10 22 17
20 18 -27 6 -70 5 -71 -2z m25 -7 c3 -5 -11 -24 -32 -43 l-37 -34 29 33 c17
17 26 32 22 32 -4 0 -4 5 -1 10 8 12 12 13 19 2z"/>
<path d="M1220 3080 c-8 -5 -10 -10 -5 -10 6 0 17 5 25 10 8 5 11 10 5 10 -5
0 -17 -5 -25 -10z"/>
<path d="M2994 3062 c3 -5 1 -12 -5 -14 -7 -2 -10 -9 -8 -16 3 -8 9 -5 16 7 9
15 10 22 1 27 -6 4 -8 3 -4 -4z"/>
<path d="M1230 3040 c0 -5 5 -10 10 -10 6 0 10 5 10 10 0 6 -4 10 -10 10 -5 0
-10 -4 -10 -10z"/>
<path d="M3096 2978 c3 -5 10 -6 15 -3 13 9 11 12 -6 12 -8 0 -12 -4 -9 -9z"/>
<path d="M3045 2960 c-10 -11 -15 -21 -12 -21 10 -2 26 -6 35 -9 4 -1 10 -2
15 -1 4 0 7 -4 7 -10 0 -5 4 -8 9 -5 4 3 19 -7 32 -22 13 -14 16 -20 6 -13 -9
8 -21 11 -24 7 -9 -9 18 -27 32 -22 6 2 9 11 7 21 -2 9 1 14 6 11 6 -3 12 1
15 9 4 10 1 12 -11 8 -14 -5 -14 -3 3 18 11 13 13 18 4 11 -9 -6 -19 -9 -22
-6 -4 4 -4 -3 -2 -15 3 -14 0 -21 -8 -18 -7 2 -11 18 -10 38 1 23 -1 29 -7 19
-7 -12 -12 -12 -28 3 -23 21 -25 21 -47 -3z m53 -9 c27 -24 29 -35 2 -21 -11
6 -20 8 -20 4 0 -3 -6 -1 -13 5 -8 6 -18 7 -23 3 -4 -4 -2 1 5 11 17 21 20 21
49 -2z"/>
<path d="M3195 2920 c2 -12 -7 -31 -25 -49 -23 -23 -26 -30 -15 -35 8 -3 15 0
15 6 0 7 5 6 15 -2 11 -9 12 -16 5 -25 -8 -9 -6 -14 5 -19 8 -3 15 0 15 6 0 6
7 5 18 -5 15 -13 19 -14 36 -1 11 8 14 14 7 14 -7 0 -9 5 -5 13 6 9 4 9 -8 -1
-11 -9 -18 -10 -23 -2 -3 5 -2 10 3 10 5 0 12 8 14 18 4 13 -1 18 -16 19 -12
1 -15 -1 -8 -4 17 -7 15 -20 -3 -20 -8 0 -15 5 -15 10 0 5 -7 7 -15 3 -18 -7
-19 -1 -3 27 16 29 18 46 8 52 -5 3 -7 -4 -5 -15z m30 -82 c5 4 5 2 2 -4 -8
-14 17 -37 28 -26 5 4 5 1 1 -6 -7 -11 -11 -10 -25 2 -10 9 -22 13 -27 9 -5
-5 -6 -4 -2 1 4 5 2 16 -5 25 -10 14 -10 14 4 4 9 -7 20 -9 24 -5z"/>
<path d="M3229 2923 c-13 -16 -12 -17 4 -4 16 13 21 21 13 21 -2 0 -10 -8 -17
-17z"/>
<path d="M1151 2923 c-1 -17 16 -25 25 -12 4 7 3 9 -4 5 -5 -3 -13 0 -15 6 -4
9 -6 10 -6 1z"/>
<path d="M3205 2880 c-3 -6 1 -7 9 -4 18 7 21 14 7 14 -6 0 -13 -4 -16 -10z"/>
<path d="M1111 2853 c9 -10 8 -13 -1 -13 -8 0 -11 -3 -7 -6 3 -3 14 -1 24 5
11 6 13 11 5 11 -7 0 -11 4 -8 8 3 5 -1 9 -9 9 -11 0 -12 -4 -4 -14z"/>
<path d="M3274 2856 c1 -8 5 -18 8 -22 4 -3 5 1 4 10 -1 8 -5 18 -8 22 -4 3
-5 -1 -4 -10z"/>
<path d="M1050 2820 c0 -5 5 -10 11 -10 5 0 7 5 4 10 -3 6 -8 10 -11 10 -2 0
-4 -4 -4 -10z"/>
<path d="M3295 2820 c-3 -5 -1 -10 4 -10 6 0 11 5 11 10 0 6 -2 10 -4 10 -3 0
-8 -4 -11 -10z"/>
<path d="M1064 2750 c0 -13 4 -16 10 -10 7 7 7 13 0 20 -6 6 -10 3 -10 -10z"/>
<path d="M1035 2720 c-3 -5 -1 -10 4 -10 6 0 11 5 11 10 0 6 -2 10 -4 10 -3 0
-8 -4 -11 -10z"/>
<path d="M3330 2680 c0 -7 7 -10 14 -7 10 4 13 1 9 -9 -3 -7 -1 -14 5 -14 6 0
9 8 8 18 -3 19 -36 30 -36 12z"/>
<path d="M3435 2683 c3 -3 0 -11 -5 -18 -7 -8 -5 -12 4 -12 14 0 16 22 3 32
-4 3 -5 2 -2 -2z"/>
<path d="M3435 2619 c-11 -16 -1 -19 13 -3 7 8 8 14 3 14 -5 0 -13 -5 -16 -11z"/>
<path d="M3474 2615 c-4 -8 -11 -12 -17 -8 -6 3 -7 1 -3 -5 10 -16 14 -15 26
8 6 11 8 20 5 20 -3 0 -8 -7 -11 -15z"/>
<path d="M975 2580 c3 -5 8 -10 11 -10 2 0 4 5 4 10 0 6 -5 10 -11 10 -5 0 -7
-4 -4 -10z"/>
<path d="M996 2542 c-2 -4 0 -14 6 -22 8 -12 9 -11 4 4 -5 14 -2 17 9 12 9 -3
13 -2 10 4 -7 12 -22 13 -29 2z"/>
<path d="M970 2521 c0 -6 4 -13 10 -16 6 -3 7 1 4 9 -7 18 -14 21 -14 7z"/>
<path d="M3515 2439 c-4 -6 -5 -12 -2 -15 2 -3 7 2 10 11 7 17 1 20 -8 4z"/>
<path d="M3555 2430 c-4 -6 -11 -7 -17 -4 -7 4 -8 2 -4 -5 6 -9 11 -9 22 0 14
11 18 19 10 19 -3 0 -8 -5 -11 -10z"/>
<path d="M970 2421 c0 -10 29 -36 34 -30 1 2 -6 12 -16 22 -10 9 -18 13 -18 8z"/>
<path d="M3555 2400 c-3 -5 -1 -10 4 -10 6 0 11 5 11 10 0 6 -2 10 -4 10 -3 0
-8 -4 -11 -10z"/>
<path d="M966 2338 c3 -5 10 -6 15 -3 13 9 11 12 -6 12 -8 0 -12 -4 -9 -9z"/>
<path d="M3559 2273 c-13 -16 -12 -17 4 -4 16 13 21 21 13 21 -2 0 -10 -8 -17
-17z"/>
<path d="M3575 2260 c-3 -5 -1 -10 4 -10 6 0 11 5 11 10 0 6 -2 10 -4 10 -3 0
-8 -4 -11 -10z"/>
<path d="M3635 2249 c-4 -6 -5 -12 -2 -15 2 -3 7 2 10 11 7 17 1 20 -8 4z"/>
<path d="M3590 2200 c0 -5 5 -10 11 -10 5 0 7 5 4 10 -3 6 -8 10 -11 10 -2 0
-4 -4 -4 -10z"/>
<path d="M966 2182 c-3 -5 1 -9 9 -9 8 0 12 4 9 9 -3 4 -7 8 -9 8 -2 0 -6 -4
-9 -8z"/>
<path d="M3610 2120 c0 -5 5 -10 11 -10 5 0 7 5 4 10 -3 6 -8 10 -11 10 -2 0
-4 -4 -4 -10z"/>
<path d="M3531 2103 c7 -8 4 -15 -8 -22 -13 -7 -14 -10 -4 -11 10 0 5 -10 -13
-29 -35 -36 -16 -46 37 -18 41 21 47 28 17 20 -16 -4 -19 -2 -14 11 3 9 9 14
13 12 4 -3 7 4 7 14 0 10 -4 16 -8 14 -4 -3 -8 -1 -8 5 0 5 6 11 13 14 6 2 0
4 -15 3 -19 -1 -24 -4 -17 -13z m19 -23 c0 -5 -5 -10 -11 -10 -5 0 -7 5 -4 10
3 6 8 10 11 10 2 0 4 -4 4 -10z m-15 -37 c-2 -10 -4 -19 -4 -21 -1 -2 -6 0
-11 3 -8 5 -7 11 1 21 15 18 18 18 14 -3z"/>
<path d="M3576 2015 c-9 -26 -7 -32 5 -12 6 10 9 21 6 23 -2 3 -7 -2 -11 -11z"/>
<path d="M995 1990 c-4 -6 -12 -7 -18 -4 -7 4 -8 3 -4 -1 10 -12 39 -16 32 -5
-3 5 1 11 7 13 9 4 10 6 1 6 -6 1 -15 -4 -18 -9z"/>
<path d="M1020 1974 c0 -6 7 -17 15 -24 21 -18 19 -35 -7 -48 -13 -6 -17 -11
-10 -11 6 -1 20 8 30 18 40 45 41 47 21 59 -13 8 -20 8 -25 1 -4 -8 -9 -7 -15
2 -5 8 -9 9 -9 3z m44 -25 c-3 -5 -10 -7 -15 -3 -5 3 -7 10 -3 15 3 5 10 7 15
3 5 -3 7 -10 3 -15z"/>
<path d="M1017 1934 c4 -11 3 -15 -5 -10 -6 3 -13 2 -16 -3 -4 -5 2 -8 11 -7
20 3 28 21 14 31 -7 4 -8 0 -4 -11z"/>
<path d="M3555 1941 c-3 -5 -2 -12 3 -15 5 -3 9 1 9 9 0 17 -3 19 -12 6z"/>
<path d="M1077 1933 c-10 -9 -9 -23 1 -23 5 0 9 7 9 15 0 17 -1 18 -10 8z"/>
<path d="M950 1919 c0 -5 5 -7 10 -4 6 3 10 8 10 11 0 2 -4 4 -10 4 -5 0 -10
-5 -10 -11z"/>
<path d="M1042 1803 c25 -27 39 -32 15 -5 -10 10 -15 21 -12 24 3 2 -2 5 -10
5 -12 0 -10 -6 7 -24z"/>
<path d="M3515 1821 c-3 -5 -2 -12 3 -15 5 -3 9 1 9 9 0 17 -3 19 -12 6z"/>
<path d="M3420 1762 c0 -7 5 -12 12 -12 6 0 8 -3 4 -7 -4 -5 -12 -8 -18 -8 -6
0 -31 -23 -55 -52 -39 -45 -42 -52 -22 -48 13 3 27 11 31 19 5 8 16 12 28 9
11 -3 17 -10 13 -16 -3 -6 -1 -7 6 -3 14 9 5 26 -15 26 -17 0 -18 12 -2 28 19
19 32 14 17 -5 -11 -15 -11 -16 0 -6 7 6 19 10 25 9 6 -2 8 -1 3 1 -4 3 -4 10
-1 15 4 7 2 8 -4 4 -7 -4 -12 -3 -12 3 0 5 6 11 13 14 9 3 7 10 -5 23 -11 11
-18 13 -18 6z m-36 -77 c-20 -25 -39 -45 -42 -45 -5 0 8 17 52 68 35 40 28 23
-10 -23z"/>
<path d="M1196 1678 c-7 -24 -2 -78 7 -78 5 0 7 6 4 13 -2 6 0 20 4 29 6 10 5
19 -1 23 -6 4 -8 11 -5 16 4 5 4 9 0 9 -3 0 -7 -6 -9 -12z"/>
<path d="M1095 1660 c3 -5 8 -10 11 -10 2 0 4 5 4 10 0 6 -5 10 -11 10 -5 0
-7 -4 -4 -10z"/>
<path d="M3381 1634 c0 -11 3 -14 6 -6 3 7 2 16 -1 19 -3 4 -6 -2 -5 -13z"/>
<path d="M3375 1599 c-3 -4 2 -6 10 -5 21 3 28 13 10 13 -9 0 -18 -4 -20 -8z"/>
<path d="M1189 1577 c6 -8 9 -16 6 -19 -3 -2 2 -5 10 -5 13 0 13 3 -2 19 -19
21 -31 25 -14 5z"/>
<path d="M3373 1531 c0 -11 5 -18 9 -15 4 3 5 11 1 19 -7 21 -12 19 -10 -4z"/>
<path d="M3155 1486 c-11 -8 -25 -12 -31 -9 -16 6 -28 -14 -14 -22 6 -4 18 -1
27 7 15 11 16 11 10 -4 -3 -10 -1 -20 5 -24 6 -4 9 -3 5 2 -3 5 1 20 9 34 l15
25 -6 -25 c-5 -22 -5 -23 6 -7 15 26 -2 41 -26 23z"/>
<path d="M3246 1483 c-6 -14 -5 -15 5 -6 7 7 10 15 7 18 -3 3 -9 -2 -12 -12z"/>
<path d="M1372 1470 c-12 -10 -21 -25 -20 -32 2 -7 -3 -12 -10 -10 -8 1 -11
-2 -7 -8 5 -8 11 -8 21 1 7 6 11 16 7 22 -4 6 0 8 10 4 11 -4 14 -2 10 9 -4
10 0 12 11 8 9 -3 13 -11 9 -17 -3 -6 -1 -7 5 -3 7 4 12 2 12 -3 0 -6 -9 -11
-19 -11 -18 0 -37 -27 -26 -38 3 -3 5 0 5 7 0 19 43 31 60 16 8 -7 23 -10 32
-6 15 5 14 9 -7 33 -15 18 -26 23 -33 16 -6 -6 -14 -3 -24 10 -13 19 -14 19
-36 2z m91 -52 c-5 -10 -33 10 -33 23 0 5 9 4 19 -3 11 -7 17 -16 14 -20z"/>
<path d="M1317 1469 c7 -7 15 -10 18 -7 3 3 -2 9 -12 12 -14 6 -15 5 -6 -5z"/>
<path d="M3190 1451 c0 -6 4 -12 8 -15 5 -3 9 1 9 9 0 8 -4 15 -9 15 -4 0 -8
-4 -8 -9z"/>
<path d="M3031 1436 c-13 -15 -27 -16 -51 -1 -11 6 -10 3 3 -12 20 -23 22 -39
5 -46 -7 -3 -4 -5 8 -4 15 1 20 6 16 19 -2 10 1 18 7 18 7 0 10 -4 7 -8 -3 -5
1 -9 9 -9 8 0 13 2 10 5 -2 3 0 13 5 23 12 22 -3 34 -19 15z m12 -11 c-3 -9
-8 -14 -10 -11 -3 3 -2 9 2 15 9 16 15 13 8 -4z"/>
<path d="M2805 1411 c6 -11 -13 -25 -37 -27 -10 -1 -20 -3 -23 -4 -3 -1 -9 -3
-14 -4 -5 0 -13 -4 -17 -8 -4 -4 -13 -3 -19 2 -9 7 -17 3 -29 -15 -9 -14 -22
-25 -29 -25 -8 0 -8 3 2 9 7 5 9 11 5 13 -5 3 -3 3 4 2 6 -2 12 1 12 6 0 12
-65 6 -65 -6 -1 -5 -7 -20 -14 -33 -9 -17 -10 -26 -2 -34 8 -8 11 -8 11 1 0 7
3 11 8 11 4 -1 14 -1 22 0 13 1 13 2 0 11 -22 14 -5 23 20 10 15 -8 20 -8 16
-1 -4 6 -3 11 3 11 5 0 12 -6 15 -12 3 -7 3 -2 -1 12 -5 22 -4 23 10 12 9 -8
22 -10 28 -6 9 5 10 2 5 -12 -6 -15 -5 -16 5 -7 9 10 10 15 0 27 -7 8 -8 17
-3 20 6 3 12 -1 16 -9 3 -8 16 -14 28 -14 l23 2 -22 4 c-27 5 -31 25 -5 22 33
-3 53 1 47 10 -3 6 2 14 11 19 15 8 15 10 0 15 -10 4 -14 3 -11 -2z m-100 -70
c-6 -5 -25 10 -25 20 0 5 6 4 14 -3 8 -7 12 -15 11 -17z m-95 -6 c-7 -8 -9
-18 -6 -23 3 -5 -1 -9 -9 -9 -11 0 -12 4 -2 21 6 12 10 25 9 29 -1 5 2 6 8 2
8 -5 8 -11 0 -20z"/>
<path d="M1410 1393 c0 -14 2 -15 9 -4 6 9 11 10 15 2 4 -6 12 -11 19 -11 12
0 -23 29 -35 30 -5 0 -8 -8 -8 -17z"/>
<path d="M3073 1392 c-8 -14 -8 -19 1 -19 7 0 13 9 13 19 1 10 1 18 0 18 -1 0
-7 -8 -14 -18z"/>
<path d="M3135 1391 c-3 -5 -2 -12 3 -15 5 -3 9 1 9 9 0 17 -3 19 -12 6z"/>
<path d="M1470 1371 c0 -6 4 -13 10 -16 6 -3 7 1 4 9 -7 18 -14 21 -14 7z"/>
<path d="M1455 1340 c3 -5 8 -10 11 -10 2 0 4 5 4 10 0 6 -5 10 -11 10 -5 0
-7 -4 -4 -10z"/>
<path d="M2790 1331 c0 -6 4 -12 8 -15 5 -3 9 1 9 9 0 8 -4 15 -9 15 -4 0 -8
-4 -8 -9z"/>
<path d="M2830 1326 c0 -8 4 -17 8 -20 4 -2 8 4 8 15 0 10 -4 19 -8 19 -4 0
-8 -6 -8 -14z"/>
<path d="M2470 1295 c-27 -32 -21 -47 11 -24 26 18 42 38 20 25 -5 -4 -11 -1
-13 5 -2 7 -9 5 -18 -6z"/>
<path d="M1705 1280 c-8 -13 8 -18 30 -9 11 4 18 8 15 9 -23 7 -41 7 -45 0z"/>
<path d="M2611 1281 c-10 -6 -9 -10 4 -14 11 -5 14 -3 9 5 -5 8 -2 9 9 5 9 -3
18 -3 21 1 6 11 -27 12 -43 3z"/>
<path d="M1670 1270 c-13 -8 -12 -10 3 -10 9 0 17 5 17 10 0 12 -1 12 -20 0z"/>
<path d="M2596 1238 c3 -5 10 -6 15 -3 13 9 11 12 -6 12 -8 0 -12 -4 -9 -9z"/>
<path d="M1660 1220 c8 -5 20 -10 25 -10 6 0 3 5 -5 10 -8 5 -19 10 -25 10 -5
0 -3 -5 5 -10z"/>
<path d="M2548 1223 c7 -3 16 -2 19 1 4 3 -2 6 -13 5 -11 0 -14 -3 -6 -6z"/>
<path d="M2326 1171 c-4 -5 -12 -8 -20 -5 -9 3 -13 -5 -13 -26 0 -16 4 -30 9
-30 5 0 7 4 4 9 -9 14 20 21 35 8 11 -10 11 -9 0 6 -15 19 -2 24 17 5 20 -20
14 1 -7 23 -11 13 -21 16 -25 10z m14 -5 c0 -2 -6 -9 -14 -15 -11 -9 -16 -9
-22 0 -4 7 -3 9 4 5 6 -3 13 -2 17 4 6 10 15 14 15 6z"/>
<path d="M2373 1155 c7 -7 14 -10 17 -6 3 3 9 9 13 12 4 4 -3 7 -17 7 -19 0
-22 -3 -13 -13z"/>
<path d="M2430 1160 c-9 -6 -10 -10 -3 -10 6 0 15 5 18 10 8 12 4 12 -15 0z"/>
<path d="M2486 1162 c-3 -5 1 -9 9 -9 8 0 12 4 9 9 -3 4 -7 8 -9 8 -2 0 -6 -4
-9 -8z"/>
<path d="M2440 1140 c-9 -6 -10 -10 -3 -10 6 0 15 5 18 10 8 12 4 12 -15 0z"/>
<path d="M2386 1118 c3 -5 10 -6 15 -3 13 9 11 12 -6 12 -8 0 -12 -4 -9 -9z"/>
<path d="M1953 1080 c5 -29 13 -33 13 -5 0 14 -4 25 -8 25 -4 0 -7 -9 -5 -20z"/>
<path d="M2140 1090 c-9 -6 -10 -10 -3 -10 6 0 15 5 18 10 8 12 4 12 -15 0z"/>
<path d="M2270 1091 c0 -6 4 -12 8 -15 5 -3 9 1 9 9 0 8 -4 15 -9 15 -4 0 -8
-4 -8 -9z"/>
<path d="M2310 1089 c0 -5 5 -7 10 -4 6 3 10 8 10 11 0 2 -4 4 -10 4 -5 0 -10
-5 -10 -11z"/>
<path d="M2045 1080 c3 -5 8 -10 11 -10 2 0 4 5 4 10 0 6 -5 10 -11 10 -5 0
-7 -4 -4 -10z"/>
<path d="M2205 1080 c-3 -6 1 -7 9 -4 18 7 21 14 7 14 -6 0 -13 -4 -16 -10z"/>
</g>
</svg>
