<?xml version="1.0" standalone="no"?>
<!DOCTYPE svg PUBLIC "-//W3C//DTD SVG 20010904//EN"
 "http://www.w3.org/TR/2001/REC-SVG-20010904/DTD/svg10.dtd">
<svg version="1.0" xmlns="http://www.w3.org/2000/svg"
 width="372.000000pt" height="372.000000pt" viewBox="0 0 372.000000 372.000000"
 preserveAspectRatio="xMidYMid meet">
<metadata>
Created by potrace 1.14, written by Peter Selinger 2001-2017
</metadata>
<g transform="translate(0.000000,372.000000) scale(0.100000,-0.100000)"
fill="#000000" stroke="none">
<path d="M460 2484 c-147 -39 -252 -115 -339 -244 -82 -122 -120 -248 -119
-398 0 -153 48 -283 138 -371 51 -50 143 -97 207 -107 23 -3 40 -10 37 -15 -3
-5 15 -29 40 -53 68 -67 164 -86 256 -50 57 22 166 93 204 133 22 23 33 28 50
21 23 -8 122 -5 159 5 89 25 194 113 234 196 99 201 22 448 -181 588 -55 38
-163 90 -171 83 -3 -4 -3 1 0 9 4 10 -14 37 -54 78 -44 46 -79 71 -138 98 -70
32 -88 36 -173 39 -61 2 -115 -3 -150 -12z m266 -148 c45 -21 55 -29 44 -36
-8 -5 -23 -10 -32 -10 -35 0 -124 -48 -161 -86 -92 -93 -124 -234 -82 -358
l17 -48 -30 -32 c-60 -63 -107 -160 -120 -248 l-7 -47 -71 33 c-123 57 -199
145 -230 266 -61 241 116 509 389 585 81 23 210 14 283 -19z m164 -147 c61
-94 80 -164 77 -288 -1 -60 -5 -113 -10 -117 -4 -4 -20 4 -35 19 -72 69 -195
90 -304 53 l-68 -23 0 21 c0 40 30 147 54 195 48 93 163 184 242 190 7 1 27
-22 44 -50z m246 -57 c75 -79 121 -221 111 -339 -8 -88 -47 -165 -109 -214
-45 -35 -133 -77 -143 -67 -2 2 0 22 6 43 13 45 4 125 -17 166 -13 26 -12 34
10 86 52 125 67 248 41 348 -8 31 -15 58 -15 61 0 9 89 -56 116 -84z m-340
-407 c23 -13 51 -39 62 -57 l21 -33 -40 -41 c-67 -68 -79 -72 -131 -36 -54 37
-103 92 -126 138 -18 39 -15 45 35 55 60 11 133 1 179 -26z m-129 -163 l51
-54 -35 -14 c-48 -21 -126 -34 -195 -34 -54 0 -59 2 -68 26 -25 66 16 170 86
218 l37 25 37 -57 c20 -31 60 -81 87 -110z m235 -44 c-5 -20 -22 -22 -72 -8
l-36 10 46 50 45 50 11 -43 c6 -23 8 -50 6 -59z m-87 -74 c65 -36 66 -37 48
-58 -79 -93 -177 -110 -295 -50 l-53 27 40 12 c48 14 130 56 165 84 14 11 26
21 27 21 1 0 32 -16 68 -36z"/>
<path d="M2400 1958 c-72 -20 -120 -81 -126 -156 -4 -71 65 -153 143 -168 40
-8 123 13 130 33 9 23 -1 24 -42 3 -45 -23 -93 -19 -143 12 -74 46 -84 151
-19 215 43 44 113 56 166 28 21 -10 37 -13 43 -7 6 6 -3 15 -24 25 -46 22 -87
27 -128 15z"/>
<path d="M2768 1960 c-142 -42 -175 -218 -56 -297 62 -42 163 -40 199 3 18 22
3 29 -25 11 -23 -15 -62 -22 -114 -18 -12 0 -41 18 -63 39 -35 32 -41 44 -44
88 -4 42 0 58 18 85 43 64 119 85 194 54 42 -18 43 -18 43 -5 0 26 -104 54
-152 40z"/>
<path d="M1630 1949 c0 -7 15 -48 34 -93 19 -45 48 -112 63 -150 16 -39 33
-71 39 -73 9 -3 54 88 54 111 0 7 4 16 9 22 18 20 79 184 71 189 -11 7 -18 -8
-81 -160 -22 -55 -44 -103 -48 -107 -4 -5 -34 55 -66 132 -53 125 -75 163 -75
129z"/>
<path d="M2025 1808 c-66 -177 -63 -169 -48 -175 6 -2 14 9 18 27 4 16 12 36
19 43 10 10 83 14 142 8 7 0 19 -19 28 -41 9 -22 20 -40 26 -40 5 0 10 2 10 5
0 5 -87 243 -99 270 -5 11 -12 28 -15 38 -3 9 -9 17 -14 17 -5 0 -35 -69 -67
-152z m103 12 l30 -80 -64 0 c-35 0 -64 3 -64 7 0 15 55 153 61 153 3 0 20
-36 37 -80z"/>
<path d="M3020 1795 c0 -103 4 -165 10 -165 12 0 12 1 12 165 0 164 0 165 -12
165 -6 0 -10 -62 -10 -165z"/>
<path d="M3160 1795 c0 -103 4 -165 10 -165 11 0 12 9 12 169 l-1 113 74 -99
c40 -55 85 -119 100 -142 48 -72 51 -63 51 131 -1 188 -19 200 -26 17 l-5
-132 -98 137 c-54 75 -103 136 -108 136 -5 0 -9 -70 -9 -165z"/>
<path d="M3524 1798 l1 -163 89 -3 c53 -2 93 1 100 8 12 12 10 12 -87 14 -38
1 -71 6 -75 13 -4 6 -6 35 -4 65 l4 54 63 -1 c35 -1 70 2 77 6 21 13 -15 21
-82 17 l-60 -3 0 66 0 67 80 -2 c58 -1 80 2 80 12 0 9 -25 12 -94 12 l-94 0 2
-162z"/>
</g>
</svg>
