<svg xmlns="http://www.w3.org/2000/svg" xmlns:xlink="http://www.w3.org/1999/xlink" width="459" height="459" viewBox="0 0 459 459">
  <defs>
    <linearGradient id="linear-gradient" x1="0.5" y1="0.842" x2="0.5" y2="-0.059" gradientUnits="objectBoundingBox">
      <stop offset="0" stop-color="#fff" stop-opacity="0"/>
      <stop offset="1" stop-color="#07faf3"/>
    </linearGradient>
  </defs>
  <path id="Subtraction_1" data-name="Subtraction 1" d="M229.5,459a231.2,231.2,0,0,1-46.252-4.663,228.248,228.248,0,0,1-82.064-34.532A230.168,230.168,0,0,1,18.035,318.832,228.346,228.346,0,0,1,4.663,275.752a231.74,231.74,0,0,1,0-92.5A228.246,228.246,0,0,1,39.2,101.184,230.169,230.169,0,0,1,140.169,18.035a228.343,228.343,0,0,1,43.08-13.373,231.74,231.74,0,0,1,92.5,0,228.247,228.247,0,0,1,82.063,34.532,230.169,230.169,0,0,1,83.149,100.973,228.34,228.34,0,0,1,13.373,43.079,231.741,231.741,0,0,1,0,92.5,228.246,228.246,0,0,1-34.532,82.063,230.168,230.168,0,0,1-100.973,83.149,228.343,228.343,0,0,1-43.079,13.373A231.194,231.194,0,0,1,229.5,459Zm0-453.336C106.077,5.664,5.664,106.077,5.664,229.5S106.077,453.336,229.5,453.336,453.337,352.923,453.337,229.5,352.924,5.664,229.5,5.664Z" transform="translate(459 459) rotate(180)" fill="url(#linear-gradient)"/>
</svg>
