<svg xmlns="http://www.w3.org/2000/svg" width="165.54" height="171.121" viewBox="0 0 165.54 171.121">
  <g id="Supply_Chain" data-name="Supply Chain" transform="translate(-1260.957 -450.224)">
    <path id="Path_847" data-name="Path 847" d="M1342.222,620.845a11.9,11.9,0,0,1-5.836-1.341l-67.706-39.089a4.143,4.143,0,0,1-2.387-3.49c0-1.63,1.216-3.267,3.335-4.492l65.808-37.993c3.957-2.285,9.975-2.53,13.41-.547l67.706,39.09a4.14,4.14,0,0,1,2.388,3.489c0,1.63-1.216,3.267-3.336,4.492L1349.8,618.957A15.564,15.564,0,0,1,1342.222,620.845Zm.787-87.888a15.139,15.139,0,0,0-7.368,1.84l-65.807,37.993c-1.989,1.148-3.13,2.656-3.13,4.135a3.749,3.749,0,0,0,2.182,3.132l67.7,39.09c3.323,1.921,9.154,1.674,13-.547l65.807-37.993c1.989-1.148,3.129-2.656,3.129-4.135a3.749,3.749,0,0,0-2.181-3.132l-67.706-39.09A11.5,11.5,0,0,0,1343.009,532.957Z" fill="none" stroke="#4ddebe" stroke-miterlimit="10" stroke-width="1"/>
    <line id="Line_33" data-name="Line 33" y2="81.826" transform="translate(1418.528 494.646)" fill="none" stroke="#4ddebe" stroke-miterlimit="10" stroke-width="1"/>
    <line id="Line_34" data-name="Line 34" y2="81.826" transform="translate(1266.704 495.099)" fill="none" stroke="#4ddebe" stroke-miterlimit="10" stroke-width="1"/>
    <path id="Path_848" data-name="Path 848" d="M1342.222,539.019a11.9,11.9,0,0,1-5.836-1.341l-67.706-39.09a4.14,4.14,0,0,1-2.387-3.489c0-1.63,1.216-3.267,3.335-4.492l65.808-37.993c3.957-2.285,9.975-2.531,13.41-.547l67.706,39.089a4.141,4.141,0,0,1,2.388,3.49c0,1.63-1.216,3.267-3.336,4.492L1349.8,537.131A15.575,15.575,0,0,1,1342.222,539.019Zm.787-87.888a15.139,15.139,0,0,0-7.368,1.84l-65.807,37.993c-1.989,1.148-3.13,2.655-3.13,4.135a3.751,3.751,0,0,0,2.182,3.132l67.7,39.09c3.323,1.92,9.154,1.674,13-.547l65.807-37.993c1.989-1.148,3.129-2.656,3.129-4.135a3.748,3.748,0,0,0-2.181-3.132l-67.706-39.09A11.484,11.484,0,0,0,1343.009,451.131Z" fill="none" stroke="#4ddebe" stroke-miterlimit="10" stroke-width="1"/>
    <g id="Group_493" data-name="Group 493">
      <path id="Path_849" data-name="Path 849" d="M1323.84,586.894l89.947-52.359c1.433-.835,2.16-1.9,2.151-2.908l-.005-5.411c0,1.005-.73,2.063-2.159,2.894l-89.947,52.36c-.233.136-.479.261-.731.377a9.952,9.952,0,0,1-7.921.135c-.071-.038-.14-.071-.207-.112l-44.634-25.557a2.785,2.785,0,0,1-1.5-1.858l-.025,5.1,0,0a2.645,2.645,0,0,0,1.54,2.182l44.634,25.556c.071.038.145.081.216.119a9.944,9.944,0,0,0,7.916-.145C1323.365,587.152,1323.606,587.03,1323.84,586.894Z" fill="#85b8e4"/>
      <path id="Path_850" data-name="Path 850" d="M1396.425,541.432a.774.774,0,0,0-.268-.277,1.1,1.1,0,0,0-1.117.082l-8.6,5.005a2.4,2.4,0,0,0-1.155,1.861l0,.928a1.025,1.025,0,0,0,.13.522l.031.053.147.159a1.041,1.041,0,0,0,1.208-.015l8.6-5.005a2.4,2.4,0,0,0,1.153-1.864l0-.926A1.036,1.036,0,0,0,1396.425,541.432Z" fill="#373c76"/>
      <path id="Path_851" data-name="Path 851" d="M1386.547,546.563l8.6-5.005a.752.752,0,0,1,.745-.09l.974.554a.756.756,0,0,0-.742.093l-8.6,5.006c-.048.028-.1.059-.143.093a2.065,2.065,0,0,0-.835,1.414c0,.017,0,.033,0,.049l0,.931a.582.582,0,0,0,.181.462l-.921-.518h0a.547.547,0,0,1-.236-.5l0-.931v-.051a2.064,2.064,0,0,1,.837-1.412A1.454,1.454,0,0,1,1386.547,546.563Z" fill="#b6dcf2"/>
      <path id="Path_852" data-name="Path 852" d="M1385.568,548.068l.977.56c0,.017,0,.033,0,.049l0,.931a.582.582,0,0,0,.181.462l-.921-.518h0a.547.547,0,0,1-.236-.5l0-.931Z" fill="#dbeff8"/>
      <path id="Path_853" data-name="Path 853" d="M1386.405,546.656l.975.558a2.065,2.065,0,0,0-.835,1.414l-.977-.56A2.064,2.064,0,0,1,1386.405,546.656Z" fill="#dbeff8"/>
      <path id="Path_854" data-name="Path 854" d="M1387.523,547.121l8.6-5.006a.756.756,0,0,1,.742-.093l.014.008a.552.552,0,0,1,.23.5l0,.931a2.041,2.041,0,0,1-.979,1.556l-8.6,5.005a.7.7,0,0,1-.8.051h0a.582.582,0,0,1-.181-.462l0-.931A2.042,2.042,0,0,1,1387.523,547.121Z" fill="#85b8e4"/>
      <path id="Path_855" data-name="Path 855" d="M1409.339,533.915a.8.8,0,0,0-.268-.278,1.1,1.1,0,0,0-1.117.082l-8.6,5.005a2.4,2.4,0,0,0-1.155,1.861l0,.928a1.037,1.037,0,0,0,.13.523l.031.053.148.159a1.039,1.039,0,0,0,1.207-.015l8.6-5a2.4,2.4,0,0,0,1.154-1.864l0-.927A1.038,1.038,0,0,0,1409.339,533.915Z" fill="#373c76"/>
      <path id="Path_856" data-name="Path 856" d="M1399.461,539l8.6-5.005a.75.75,0,0,1,.744-.09l.975.554a.758.758,0,0,0-.743.093l-8.6,5.006a1.453,1.453,0,0,0-.143.093,2.063,2.063,0,0,0-.836,1.414c0,.017,0,.033,0,.049l0,.931a.579.579,0,0,0,.181.462l-.921-.518h0a.547.547,0,0,1-.236-.5l0-.931V540.5a2.059,2.059,0,0,1,.836-1.412C1399.366,539.056,1399.413,539.025,1399.461,539Z" fill="#b6dcf2"/>
      <path id="Path_857" data-name="Path 857" d="M1398.482,540.551l.977.56a.405.405,0,0,0,0,.049l0,.931a.58.58,0,0,0,.181.461l-.921-.517h0a.545.545,0,0,1-.235-.5l0-.931Z" fill="#dbeff8"/>
      <path id="Path_858" data-name="Path 858" d="M1399.318,539.139l.976.558a2.058,2.058,0,0,0-.835,1.414l-.977-.56A2.059,2.059,0,0,1,1399.318,539.139Z" fill="#f5eeec"/>
      <path id="Path_859" data-name="Path 859" d="M1400.437,539.6l8.6-5.005a.757.757,0,0,1,.743-.093l.013.008a.551.551,0,0,1,.23.5l0,.932a2.043,2.043,0,0,1-.979,1.556l-8.6,5.005a.7.7,0,0,1-.8.051h0a.581.581,0,0,1-.182-.462l0-.931A2.043,2.043,0,0,1,1400.437,539.6Z" fill="#85b8e4"/>
      <path id="Path_860" data-name="Path 860" d="M1315.2,587.413l-.022-5.431c-.071-.038-.14-.071-.207-.112l-44.634-25.557a2.785,2.785,0,0,1-1.5-1.858l-.025,5.1,0,0a2.645,2.645,0,0,0,1.54,2.182l44.634,25.556C1315.052,587.332,1315.126,587.375,1315.2,587.413Z" fill="#85b8e4"/>
      <path id="Path_861" data-name="Path 861" d="M1323.113,587.268l-.017-5.421a9.952,9.952,0,0,1-7.921.135l.022,5.431A9.944,9.944,0,0,0,1323.113,587.268Z" fill="#dbeff8"/>
      <path id="Path_862" data-name="Path 862" d="M1323.827,581.47l89.947-52.36c1.429-.831,2.161-1.889,2.159-2.894a.347.347,0,0,0,0-.073,2.663,2.663,0,0,0-1.54-2.151l-44.634-25.556c-2.271-1.3-6.239-1.125-8.858.4l-89.947,52.36c-1.594.927-2.319,2.146-2.125,3.247,0,.007,0,.007,0,.012a2.785,2.785,0,0,0,1.5,1.858l44.634,25.557C1317.247,583.173,1321.213,582.992,1323.827,581.47Z" fill="#b6dcf2"/>
      <path id="Path_863" data-name="Path 863" d="M1355.913,505.74l-76.849,44.735,45.971,26.323,76.849-44.735Z" fill="#dbeff8"/>
      <g id="Group_488" data-name="Group 488">
        <path id="Path_864" data-name="Path 864" d="M1390.049,518.9h0l-1.218.079.189-.3-13.2-7.552a.65.65,0,0,1-.351-.433v0c-.045-.256.124-.541.495-.757l.242-.141a2.3,2.3,0,0,1,2.064-.093l13.244,7.575a.62.62,0,0,1,.358.5.05.05,0,0,1,0,.017.846.846,0,0,1-.5.674l-.242.141A2.372,2.372,0,0,1,1390.049,518.9Z" fill="#a19d9c" style="mix-blend-mode: multiply;isolation: isolate"/>
        <g id="Group_487" data-name="Group 487">
          <path id="Path_865" data-name="Path 865" d="M1389.852,518.689l.242-.141a.842.842,0,0,0,.5-.677l.005-.655a.847.847,0,0,1-.5.674l-.242.141c-.054.032-.112.061-.17.088a2.323,2.323,0,0,1-1.846.031.375.375,0,0,1-.048-.026l-13.244-7.574a.651.651,0,0,1-.35-.433l-.012.581v0a.615.615,0,0,0,.358.508l13.244,7.574.05.028a2.317,2.317,0,0,0,1.845-.034C1389.741,518.749,1389.8,518.721,1389.852,518.689Z" fill="#85b8e4"/>
          <path id="Path_866" data-name="Path 866" d="M1387.838,518.81v-.66a.375.375,0,0,1-.048-.026l-13.244-7.574a.651.651,0,0,1-.35-.433l-.012.581v0a.615.615,0,0,0,.358.508l13.244,7.574Z" fill="#f5eeec"/>
          <path id="Path_867" data-name="Path 867" d="M1389.683,518.776l0-.657a2.323,2.323,0,0,1-1.846.031v.66A2.317,2.317,0,0,0,1389.683,518.776Z" fill="#b6dcf2"/>
          <path id="Path_868" data-name="Path 868" d="M1389.855,518.031l.242-.141a.847.847,0,0,0,.5-.674.1.1,0,0,0,0-.017.619.619,0,0,0-.359-.5L1377,509.123a2.3,2.3,0,0,0-2.064.093l-.242.141c-.372.216-.541.5-.5.757v0a.651.651,0,0,0,.35.433l13.244,7.574A2.293,2.293,0,0,0,1389.855,518.031Z" fill="#dbeff8"/>
          <g id="Group_486" data-name="Group 486">
            <g id="Group_475" data-name="Group 475">
              <path id="Path_869" data-name="Path 869" d="M1376.612,510.225a.3.3,0,0,0-.005-.567,1.085,1.085,0,0,0-.983,0c-.27.157-.267.411.006.567A1.086,1.086,0,0,0,1376.612,510.225Z" fill="#85b8e4"/>
              <path id="Path_870" data-name="Path 870" d="M1376.606,509.8a1.087,1.087,0,0,0-.983,0,.4.4,0,0,0-.188.2c-.038-.124.024-.256.189-.352a1.085,1.085,0,0,1,.983,0c.172.1.236.235.193.363A.394.394,0,0,0,1376.606,509.8Z" fill="#dbeff8"/>
            </g>
            <g id="Group_476" data-name="Group 476">
              <path id="Path_871" data-name="Path 871" d="M1377.893,510.955c.27-.157.268-.411-.005-.568a1.087,1.087,0,0,0-.983,0c-.27.157-.268.411.005.568A1.087,1.087,0,0,0,1377.893,510.955Z" fill="#85b8e4"/>
              <path id="Path_872" data-name="Path 872" d="M1377.886,510.535a1.088,1.088,0,0,0-.983,0,.4.4,0,0,0-.187.2c-.038-.124.024-.256.189-.352a1.087,1.087,0,0,1,.983,0c.172.1.236.236.193.363A.4.4,0,0,0,1377.886,510.535Z" fill="#dbeff8"/>
            </g>
            <g id="Group_477" data-name="Group 477">
              <path id="Path_873" data-name="Path 873" d="M1379.173,511.684a.3.3,0,0,0-.005-.567,1.087,1.087,0,0,0-.983,0,.3.3,0,0,0,.006.568A1.085,1.085,0,0,0,1379.173,511.684Z" fill="#85b8e4"/>
              <path id="Path_874" data-name="Path 874" d="M1379.167,511.264a1.088,1.088,0,0,0-.983,0,.4.4,0,0,0-.188.205c-.038-.124.024-.256.189-.353a1.087,1.087,0,0,1,.983,0c.172.1.236.235.193.363A.394.394,0,0,0,1379.167,511.264Z" fill="#dbeff8"/>
            </g>
            <g id="Group_478" data-name="Group 478">
              <path id="Path_875" data-name="Path 875" d="M1380.454,512.414a.3.3,0,0,0-.005-.568,1.088,1.088,0,0,0-.983,0,.3.3,0,0,0,.005.567A1.085,1.085,0,0,0,1380.454,512.414Z" fill="#85b8e4"/>
              <path id="Path_876" data-name="Path 876" d="M1380.447,511.994a1.085,1.085,0,0,0-.983,0,.4.4,0,0,0-.187.205c-.038-.124.024-.256.189-.352a1.088,1.088,0,0,1,.983,0c.172.1.236.236.193.363A.392.392,0,0,0,1380.447,511.994Z" fill="#dbeff8"/>
            </g>
            <g id="Group_479" data-name="Group 479">
              <path id="Path_877" data-name="Path 877" d="M1381.735,513.143c.27-.157.267-.411-.006-.567a1.083,1.083,0,0,0-.982,0,.3.3,0,0,0,.005.568A1.088,1.088,0,0,0,1381.735,513.143Z" fill="#85b8e4"/>
              <path id="Path_878" data-name="Path 878" d="M1381.728,512.723a1.088,1.088,0,0,0-.983,0,.4.4,0,0,0-.188.205c-.038-.124.025-.257.19-.353a1.083,1.083,0,0,1,.982,0c.172.1.236.235.193.363A.394.394,0,0,0,1381.728,512.723Z" fill="#dbeff8"/>
            </g>
            <g id="Group_480" data-name="Group 480">
              <path id="Path_879" data-name="Path 879" d="M1383.015,513.873a.3.3,0,0,0-.005-.568,1.088,1.088,0,0,0-.983,0,.3.3,0,0,0,.005.567A1.085,1.085,0,0,0,1383.015,513.873Z" fill="#85b8e4"/>
              <path id="Path_880" data-name="Path 880" d="M1383.008,513.453a1.085,1.085,0,0,0-.983,0,.4.4,0,0,0-.187.205c-.038-.124.024-.256.189-.352a1.088,1.088,0,0,1,.983,0c.172.1.236.236.193.363A.392.392,0,0,0,1383.008,513.453Z" fill="#dbeff8"/>
            </g>
            <g id="Group_481" data-name="Group 481">
              <path id="Path_881" data-name="Path 881" d="M1384.3,514.6c.27-.157.267-.411-.006-.567a1.083,1.083,0,0,0-.982,0,.3.3,0,0,0,.005.568A1.088,1.088,0,0,0,1384.3,514.6Z" fill="#85b8e4"/>
              <path id="Path_882" data-name="Path 882" d="M1384.289,514.182a1.087,1.087,0,0,0-.983,0,.4.4,0,0,0-.188.2c-.037-.124.025-.256.19-.352a1.083,1.083,0,0,1,.982,0c.172.1.236.235.193.362A.4.4,0,0,0,1384.289,514.182Z" fill="#dbeff8"/>
            </g>
            <g id="Group_482" data-name="Group 482">
              <path id="Path_883" data-name="Path 883" d="M1385.576,515.332a.3.3,0,0,0-.005-.568,1.088,1.088,0,0,0-.983,0,.3.3,0,0,0,.005.567A1.088,1.088,0,0,0,1385.576,515.332Z" fill="#85b8e4"/>
              <path id="Path_884" data-name="Path 884" d="M1385.569,514.912a1.082,1.082,0,0,0-.982,0,.4.4,0,0,0-.188.2c-.038-.124.024-.256.189-.352a1.088,1.088,0,0,1,.983,0c.172.1.236.236.193.363A.388.388,0,0,0,1385.569,514.912Z" fill="#dbeff8"/>
            </g>
            <g id="Group_483" data-name="Group 483">
              <path id="Path_885" data-name="Path 885" d="M1386.857,516.061a.3.3,0,0,0-.005-.567,1.085,1.085,0,0,0-.983,0,.3.3,0,0,0,.005.568A1.088,1.088,0,0,0,1386.857,516.061Z" fill="#85b8e4"/>
              <path id="Path_886" data-name="Path 886" d="M1386.85,515.641a1.088,1.088,0,0,0-.983,0,.4.4,0,0,0-.188.2c-.037-.124.025-.256.19-.352a1.085,1.085,0,0,1,.983,0c.171.1.235.235.192.362A.392.392,0,0,0,1386.85,515.641Z" fill="#dbeff8"/>
            </g>
            <g id="Group_484" data-name="Group 484">
              <path id="Path_887" data-name="Path 887" d="M1388.137,516.791a.3.3,0,0,0-.005-.568,1.088,1.088,0,0,0-.983,0,.3.3,0,0,0,.005.567A1.088,1.088,0,0,0,1388.137,516.791Z" fill="#85b8e4"/>
              <path id="Path_888" data-name="Path 888" d="M1388.131,516.37a1.088,1.088,0,0,0-.983,0,.4.4,0,0,0-.188.205c-.038-.124.024-.256.189-.352a1.088,1.088,0,0,1,.983,0c.172.1.236.236.193.363A.394.394,0,0,0,1388.131,516.37Z" fill="#dbeff8"/>
            </g>
            <g id="Group_485" data-name="Group 485">
              <path id="Path_889" data-name="Path 889" d="M1389.418,517.52c.27-.157.267-.411-.005-.568a1.088,1.088,0,0,0-.983,0c-.27.157-.268.411.005.568A1.088,1.088,0,0,0,1389.418,517.52Z" fill="#85b8e4"/>
              <path id="Path_890" data-name="Path 890" d="M1389.411,517.1a1.085,1.085,0,0,0-.983,0,.391.391,0,0,0-.187.2c-.038-.124.024-.256.189-.352a1.088,1.088,0,0,1,.983,0c.171.1.235.236.192.363A.393.393,0,0,0,1389.411,517.1Z" fill="#dbeff8"/>
            </g>
          </g>
          <path id="Path_891" data-name="Path 891" d="M1383.741,515.812c-1.8-2.017-3.707-4.156-5.144-5.772l-1.6-.914a2.285,2.285,0,0,0-2.062.09l-.243.142c-.371.216-.543.5-.5.756l0,0a.65.65,0,0,0,.35.434Z" fill="#a19d9c" style="mix-blend-mode: screen;isolation: isolate"/>
        </g>
      </g>
      <g id="Group_489" data-name="Group 489">
        <path id="Path_892" data-name="Path 892" d="M1372.235,506.764l-.02-.033a1.2,1.2,0,0,0-.47-.379,3.22,3.22,0,0,0-2.9.177c-.424.281-.572.63-.4.932l.02.033a1.2,1.2,0,0,0,.47.379,3.223,3.223,0,0,0,2.9-.176C1372.263,507.415,1372.411,507.066,1372.235,506.764Z" fill="#85b8e4"/>
        <path id="Path_893" data-name="Path 893" d="M1371.963,506.972l-.017-.027a.988.988,0,0,0-.39-.315,2.668,2.668,0,0,0-2.407.147c-.352.233-.474.522-.328.772l.016.028a1,1,0,0,0,.39.314,2.671,2.671,0,0,0,2.408-.146C1371.986,507.511,1372.109,507.222,1371.963,506.972Z" fill="#85b8e4"/>
        <path id="Path_894" data-name="Path 894" d="M1371.681,507.191l-.013-.021a.793.793,0,0,0-.311-.251,2.127,2.127,0,0,0-1.919.117c-.281.186-.378.416-.262.616l.013.021a.786.786,0,0,0,.311.251,2.13,2.13,0,0,0,1.919-.116C1371.7,507.622,1371.8,507.391,1371.681,507.191Z" fill="#85b8e4"/>
        <path id="Path_895" data-name="Path 895" d="M1371.4,507.411l-.01-.016a.574.574,0,0,0-.231-.187,1.587,1.587,0,0,0-1.432.087c-.209.138-.282.31-.195.459l.01.016a.592.592,0,0,0,.232.187,1.585,1.585,0,0,0,1.431-.087C1371.413,507.732,1371.486,507.56,1371.4,507.411Z" fill="#85b8e4"/>
        <path id="Path_896" data-name="Path 896" d="M1371.118,507.63l-.007-.01a.385.385,0,0,0-.153-.124,1.046,1.046,0,0,0-.943.058c-.138.091-.186.2-.129.3l.007.011a.392.392,0,0,0,.153.123,1.043,1.043,0,0,0,.943-.057C1371.127,507.842,1371.175,507.728,1371.118,507.63Z" fill="#85b8e4"/>
        <path id="Path_897" data-name="Path 897" d="M1370.836,507.85l0-.006a.2.2,0,0,0-.074-.059.5.5,0,0,0-.455.028c-.067.044-.09.1-.062.146l0,0a.18.18,0,0,0,.075.061.5.5,0,0,0,.455-.027C1370.84,507.952,1370.864,507.9,1370.836,507.85Z" fill="#85b8e4"/>
        <path id="Path_898" data-name="Path 898" d="M1369.936,507.327l-.006-.009a.3.3,0,0,0-.12-.1.818.818,0,0,0-.741.045c-.108.072-.146.161-.1.238l.005.008a.308.308,0,0,0,.12.1.824.824,0,0,0,.741-.045C1369.943,507.493,1369.981,507.4,1369.936,507.327Z" fill="#85b8e4" style="mix-blend-mode: screen;isolation: isolate"/>
        <path id="Path_899" data-name="Path 899" d="M1370.216,507.412v0a.17.17,0,0,0-.067-.055.448.448,0,0,0-.406.025c-.059.039-.08.088-.055.13l0,0a.175.175,0,0,0,.066.055.454.454,0,0,0,.406-.025C1370.22,507.5,1370.241,507.454,1370.216,507.412Z" fill="#85b8e4" style="mix-blend-mode: screen;isolation: isolate"/>
        <path id="Path_900" data-name="Path 900" d="M1369.579,507.39l0,0a.077.077,0,0,0-.029-.023.2.2,0,0,0-.183.011c-.027.017-.036.039-.025.058v0a.069.069,0,0,0,.03.024.2.2,0,0,0,.183-.011C1369.58,507.431,1369.59,507.409,1369.579,507.39Z" fill="#85b8e4" style="mix-blend-mode: screen;isolation: isolate"/>
      </g>
      <g id="Group_490" data-name="Group 490">
        <path id="Path_901" data-name="Path 901" d="M1368.486,503.788c-.011-.018-.022-.036-.034-.054a1.979,1.979,0,0,0-.781-.63,5.351,5.351,0,0,0-4.825.293c-.7.468-.95,1.047-.658,1.549l.034.055a1.988,1.988,0,0,0,.781.63,5.351,5.351,0,0,0,4.825-.293C1368.532,504.87,1368.778,504.291,1368.486,503.788Z" fill="#85b8e4"/>
        <path id="Path_902" data-name="Path 902" d="M1368.034,504.134c-.009-.016-.019-.031-.028-.046a1.656,1.656,0,0,0-.648-.522,4.437,4.437,0,0,0-4,.243c-.584.388-.788.868-.546,1.284.009.015.018.031.028.046a1.642,1.642,0,0,0,.648.522,4.438,4.438,0,0,0,4-.243C1368.072,505.03,1368.276,504.55,1368.034,504.134Z" fill="#85b8e4"/>
        <path id="Path_903" data-name="Path 903" d="M1367.565,504.5l-.022-.036a1.311,1.311,0,0,0-.516-.416,3.54,3.54,0,0,0-3.19.193c-.465.31-.628.692-.435,1.024l.023.036a1.3,1.3,0,0,0,.516.417,3.535,3.535,0,0,0,3.189-.194C1367.6,505.213,1367.759,504.83,1367.565,504.5Z" fill="#85b8e4"/>
        <path id="Path_904" data-name="Path 904" d="M1367.1,504.863l-.016-.027a.985.985,0,0,0-.385-.311,2.641,2.641,0,0,0-2.379.145c-.347.23-.468.516-.324.763l.017.027a.97.97,0,0,0,.385.311,2.636,2.636,0,0,0,2.378-.144C1367.12,505.4,1367.241,505.11,1367.1,504.863Z" fill="#85b8e4"/>
        <path id="Path_905" data-name="Path 905" d="M1366.629,505.227l-.011-.017a.643.643,0,0,0-.254-.2,1.74,1.74,0,0,0-1.567.1c-.229.152-.309.34-.214.5l.011.018a.643.643,0,0,0,.254.2,1.739,1.739,0,0,0,1.567-.1C1366.644,505.579,1366.724,505.391,1366.629,505.227Z" fill="#85b8e4"/>
        <path id="Path_906" data-name="Path 906" d="M1366.161,505.592l-.005-.008a.3.3,0,0,0-.123-.1.837.837,0,0,0-.756.046c-.111.073-.149.164-.1.243l.005.008a.321.321,0,0,0,.122.1.839.839,0,0,0,.757-.046C1366.168,505.762,1366.207,505.671,1366.161,505.592Z" fill="#85b8e4"/>
        <path id="Path_907" data-name="Path 907" d="M1364.665,504.723l-.009-.014a.5.5,0,0,0-.2-.16,1.366,1.366,0,0,0-1.232.074c-.18.12-.243.268-.168.4l.008.014a.523.523,0,0,0,.2.161,1.366,1.366,0,0,0,1.232-.075C1364.677,505,1364.74,504.852,1364.665,504.723Z" fill="#85b8e4" style="mix-blend-mode: screen;isolation: isolate"/>
        <path id="Path_908" data-name="Path 908" d="M1365.131,504.864l0-.007a.275.275,0,0,0-.109-.088.748.748,0,0,0-.675.041c-.1.065-.132.146-.092.216l.005.008a.285.285,0,0,0,.109.088.748.748,0,0,0,.674-.041C1365.138,505.016,1365.172,504.935,1365.131,504.864Z" fill="#85b8e4" style="mix-blend-mode: screen;isolation: isolate"/>
        <path id="Path_909" data-name="Path 909" d="M1364.072,504.828l0,0a.135.135,0,0,0-.049-.04.337.337,0,0,0-.3.019c-.044.029-.06.066-.041.1l0,0a.126.126,0,0,0,.049.04.336.336,0,0,0,.3-.019C1364.074,504.9,1364.09,504.859,1364.072,504.828Z" fill="#85b8e4" style="mix-blend-mode: screen;isolation: isolate"/>
      </g>
      <g id="Group_492" data-name="Group 492">
        <path id="Path_910" data-name="Path 910" d="M1303.729,571.614l.012.005-1.862.167.316-.313a2.142,2.142,0,0,1-.339-.153l-10.587-6.063a1.04,1.04,0,0,1-.561-.693v0c-.073-.411.2-.865.792-1.211l1.123-.654a3.671,3.671,0,0,1,3.3-.149l10.588,6.063a1,1,0,0,1,.574.8.248.248,0,0,1,0,.027,1.362,1.362,0,0,1-.805,1.079l-1.124.654A3.7,3.7,0,0,1,1303.729,571.614Z" fill="#a19d9c" style="mix-blend-mode: multiply;isolation: isolate"/>
        <g id="Group_491" data-name="Group 491">
          <path id="Path_911" data-name="Path 911" d="M1303.654,571.313l1.124-.654a1.353,1.353,0,0,0,.8-1.084l0-.615a1.358,1.358,0,0,1-.805,1.079l-1.123.654a3.053,3.053,0,0,1-.273.14,3.714,3.714,0,0,1-2.953.051c-.027-.014-.052-.027-.077-.042l-10.587-6.063a1.037,1.037,0,0,1-.561-.693l-.015.5v0a.986.986,0,0,0,.574.813l10.588,6.063.08.044a3.708,3.708,0,0,0,2.952-.054C1303.477,571.409,1303.567,571.364,1303.654,571.313Z" fill="#85b8e4"/>
          <path id="Path_912" data-name="Path 912" d="M1300.432,571.506l0-.622c-.027-.014-.052-.027-.077-.042l-10.587-6.063a1.037,1.037,0,0,1-.561-.693l-.015.5v0a.986.986,0,0,0,.574.813l10.588,6.063Z" fill="#dbeff8"/>
          <path id="Path_913" data-name="Path 913" d="M1303.384,571.452l0-.619a3.714,3.714,0,0,1-2.953.051l0,.622A3.708,3.708,0,0,0,1303.384,571.452Z" fill="#f5eeec"/>
          <path id="Path_914" data-name="Path 914" d="M1303.655,570.693l1.123-.654a1.358,1.358,0,0,0,.805-1.079.125.125,0,0,0,0-.027.992.992,0,0,0-.574-.8l-10.587-6.063a3.671,3.671,0,0,0-3.3.149l-1.124.654c-.594.346-.864.8-.792,1.211v0a1.037,1.037,0,0,0,.561.693l10.587,6.063A3.674,3.674,0,0,0,1303.655,570.693Z" fill="#dbeff8"/>
          <path id="Path_915" data-name="Path 915" d="M1303.516,570.455l1.126-.656c.421-.245.665-.553.664-.84a.513.513,0,0,0-.069-.254.935.935,0,0,0-.365-.333l-9.895-5.667-.693-.4a3.43,3.43,0,0,0-3.027.15l-1.122.653c-.467.272-.713.617-.658.923l0,.028a.552.552,0,0,0,.057.151.962.962,0,0,0,.363.328l10.523,6.03.065.037A3.443,3.443,0,0,0,1303.516,570.455Z" fill="#dbeff8"/>
          <path id="Path_916" data-name="Path 916" d="M1300.424,570.568c-1.811-2.617-3.942-5.687-5.447-7.863l-.693-.4a3.43,3.43,0,0,0-3.027.15l-1.122.653c-.467.272-.713.617-.658.923l0,.028a.552.552,0,0,0,.057.151.962.962,0,0,0,.363.328Z" fill="#d4d3d2" style="mix-blend-mode: screen;isolation: isolate"/>
        </g>
      </g>
    </g>
    <g id="Group_494" data-name="Group 494">
      <path id="Path_917" data-name="Path 917" d="M1334.865,544.419a14.766,14.766,0,0,0,13.362-.024c3.7-2.137,3.72-5.591.042-7.715a14.77,14.77,0,0,0-13.362.025C1331.206,538.842,1331.187,542.295,1334.865,544.419Z" fill="#455094"/>
      <path id="Path_918" data-name="Path 918" d="M1335.447,469.994l.01.014c2.871-1.2,6.607-.775,10.7,1.591,9.045,5.221,16.374,17.864,16.374,28.243,0,14.123-16.374,30.19-16.374,30.19l-5.648,2.929-10.806-59.979Z" fill="#85b8e4"/>
      <path id="Path_919" data-name="Path 919" d="M1340.513,474.527c-9.045-5.222-16.374-1.043-16.374,9.336,0,14.123,16.374,49.1,16.374,49.1s16.375-16.067,16.375-30.191C1356.888,492.391,1349.558,479.749,1340.513,474.527Z" fill="#455094"/>
      <path id="Path_920" data-name="Path 920" d="M1350,498.79c0,6.012-4.247,8.433-9.486,5.409s-9.485-10.35-9.485-16.362,4.247-8.433,9.485-5.408S1350,492.779,1350,498.79Z" fill="#dbeff8"/>
      <path id="Path_921" data-name="Path 921" d="M1356.4,503.287c0-10.262-7.247-22.762-16.19-27.925-7.8-4.5-14.3-1.934-15.841,5.6,1.267-8.2,8-11.133,16.141-6.432,9.045,5.222,16.375,17.865,16.375,28.244,0,14.123-16.375,30.19-16.375,30.19l-.04-.086C1342.482,530.837,1356.4,516.246,1356.4,503.287Z" fill="#fff"/>
    </g>
    <path id="Path_922" data-name="Path 922" d="M1264.39,500.2c4.3,2.937,10.985,3.474,14.922,1.2s3.641-6.5-.663-9.433-10.985-3.474-14.922-1.2S1260.086,497.26,1264.39,500.2Z" fill="#85b8e4"/>
    <path id="Path_923" data-name="Path 923" d="M1408.806,579.464c4.3,2.936,10.985,3.474,14.922,1.2s3.64-6.5-.664-9.433-10.984-3.474-14.922-1.2S1404.5,576.527,1408.806,579.464Z" fill="#85b8e4"/>
  </g>
</svg>
