<svg xmlns="http://www.w3.org/2000/svg" width="155.02" height="172.19" viewBox="0 0 155.02 172.19">
  <g id="Group_525" data-name="Group 525" transform="translate(-283.351 -445.163)">
    <path id="Path_932" data-name="Path 932" d="M360.671,616.853A11.985,11.985,0,0,1,354.8,615.5l-68.131-39.335a4.17,4.17,0,0,1-2.4-3.512c0-1.64,1.224-3.288,3.357-4.52l66.221-38.232c3.983-2.3,10.038-2.546,13.495-.551l68.131,39.336a4.165,4.165,0,0,1,2.4,3.511c0,1.64-1.224,3.288-3.357,4.52l-66.221,38.232A15.667,15.667,0,0,1,360.671,616.853Zm.792-88.44a15.223,15.223,0,0,0-7.414,1.852L287.828,568.5c-2,1.155-3.15,2.672-3.15,4.161a3.774,3.774,0,0,0,2.2,3.152l68.131,39.335c3.343,1.933,9.211,1.685,13.082-.55l66.22-38.232c2-1.155,3.15-2.672,3.15-4.161a3.774,3.774,0,0,0-2.2-3.152L367.13,529.714A11.559,11.559,0,0,0,361.463,528.413Z" fill="none" stroke="#4ddebe" stroke-miterlimit="10" stroke-width="1"/>
    <g id="Group_524" data-name="Group 524">
      <g id="Group_520" data-name="Group 520">
        <path id="Path_933" data-name="Path 933" d="M360.654,500.327l-22.079-12.747v25.494l22.079,12.747,22.079-12.747V487.579Z" fill="#a6d6ed"/>
        <path id="Path_934" data-name="Path 934" d="M360.654,525.821l-22.079-12.747V487.579l22.079,12.747Z" fill="#a6d6ed"/>
        <path id="Path_935" data-name="Path 935" d="M382.733,513.073l-22.079,12.747V500.327l22.079-12.747Z" fill="#74b2e0"/>
        <path id="Path_936" data-name="Path 936" d="M360.654,500.327l-22.079-12.747,22.078-12.747,22.079,12.747Z" fill="#a6d6ed"/>
        <path id="Path_937" data-name="Path 937" d="M360.654,500.327l-21.122-12.195-.958.553,22.079,12.747,22.078-12.747-.958-.553Z" fill="#fff"/>
      </g>
      <g id="Group_521" data-name="Group 521">
        <path id="Path_938" data-name="Path 938" d="M389.333,516.69l-22.079-12.747v25.494l22.079,12.747,22.079-12.747V503.943Z" fill="#a6d6ed"/>
        <path id="Path_939" data-name="Path 939" d="M389.333,542.184l-22.079-12.747V503.943l22.079,12.747Z" fill="#a6d6ed"/>
        <path id="Path_940" data-name="Path 940" d="M411.412,529.437l-22.079,12.747V516.69l22.079-12.747Z" fill="#74b2e0"/>
        <path id="Path_941" data-name="Path 941" d="M389.333,516.69l-22.079-12.747L389.332,491.2l22.079,12.747Z" fill="#a6d6ed"/>
        <path id="Path_942" data-name="Path 942" d="M389.333,516.69,368.211,504.5l-.958.553L389.333,517.8l22.079-12.747-.958-.553Z" fill="#fff"/>
      </g>
      <g id="Group_522" data-name="Group 522">
        <path id="Path_943" data-name="Path 943" d="M331.974,517.8,309.9,505.049v25.494l22.079,12.747,22.079-12.747V505.049Z" fill="#a6d6ed"/>
        <path id="Path_944" data-name="Path 944" d="M331.974,543.29,309.9,530.543V505.049L331.974,517.8Z" fill="#a6d6ed"/>
        <path id="Path_945" data-name="Path 945" d="M354.053,530.543,331.974,543.29V517.8l22.079-12.747Z" fill="#74b2e0"/>
        <path id="Path_946" data-name="Path 946" d="M331.974,517.8,309.9,505.049,331.974,492.3l22.079,12.747Z" fill="#a6d6ed"/>
        <path id="Path_947" data-name="Path 947" d="M331.974,517.8,310.853,505.6l-.958.553L331.974,518.9l22.078-12.747-.958-.553Z" fill="#fff"/>
      </g>
      <g id="Group_523" data-name="Group 523">
        <path id="Path_948" data-name="Path 948" d="M360.654,534.16l-22.079-12.747v25.494l22.079,12.747,22.079-12.747V521.412Z" fill="#a6d6ed"/>
        <path id="Path_949" data-name="Path 949" d="M360.654,559.654l-22.079-12.747V521.412l22.079,12.747Z" fill="#a6d6ed"/>
        <path id="Path_950" data-name="Path 950" d="M382.733,546.907l-22.079,12.747V534.16l22.079-12.747Z" fill="#74b2e0"/>
        <path id="Path_951" data-name="Path 951" d="M360.654,534.16l-22.079-12.747,22.078-12.747,22.079,12.747Z" fill="#a6d6ed"/>
        <path id="Path_952" data-name="Path 952" d="M360.654,534.16l-21.122-12.195-.958.553,22.079,12.747,22.078-12.747-.958-.553Z" fill="#fff"/>
      </g>
      <path id="Path_953" data-name="Path 953" d="M389.333,550.524l-22.079-12.748V563.27l22.079,12.747,22.079-12.747V537.776Z" fill="#a6d6ed"/>
      <path id="Path_954" data-name="Path 954" d="M389.333,576.018,367.254,563.27V537.776l22.079,12.747Z" fill="#a6d6ed"/>
      <path id="Path_955" data-name="Path 955" d="M411.412,563.27l-22.079,12.747V550.524l22.079-12.747Z" fill="#74b2e0"/>
      <path id="Path_956" data-name="Path 956" d="M389.333,550.524l-22.079-12.747,22.078-12.747,22.079,12.747Z" fill="#a6d6ed"/>
      <path id="Path_957" data-name="Path 957" d="M389.333,550.524l-21.122-12.195-.958.553,22.079,12.748,22.079-12.747v-1.106Z" fill="#fff"/>
      <path id="Path_958" data-name="Path 958" d="M331.974,551.63,309.9,538.882v25.494l22.079,12.747,22.079-12.747V538.882Z" fill="#a6d6ed"/>
      <path id="Path_959" data-name="Path 959" d="M331.974,577.124,309.9,564.376V538.882l22.079,12.747Z" fill="#a6d6ed"/>
      <path id="Path_960" data-name="Path 960" d="M354.053,564.376l-22.079,12.747V551.63l22.079-12.747Z" fill="#74b2e0"/>
      <path id="Path_961" data-name="Path 961" d="M331.974,551.63,309.9,538.882l22.078-12.747,22.079,12.747Z" fill="#a6d6ed"/>
      <path id="Path_962" data-name="Path 962" d="M331.974,551.63,309.9,538.882v1.106l22.079,12.747,22.078-12.747-.958-.553Z" fill="#fff"/>
      <path id="Path_963" data-name="Path 963" d="M360.654,567.993l-22.079-12.748V580.74l22.079,12.747,22.079-12.747V555.246Z" fill="#a6d6ed"/>
      <path id="Path_964" data-name="Path 964" d="M360.654,593.487,338.575,580.74V555.246l22.079,12.747Z" fill="#a6d6ed"/>
      <path id="Path_965" data-name="Path 965" d="M382.733,580.74l-22.079,12.747V567.993l22.079-12.747Z" fill="#74b2e0"/>
      <path id="Path_966" data-name="Path 966" d="M360.654,567.993l-22.079-12.747L360.653,542.5l22.079,12.747Z" fill="#a6d6ed"/>
      <path id="Path_967" data-name="Path 967" d="M360.654,567.993l-22.079-12.748v1.106L360.654,569.1l22.079-12.747v-1.106Z" fill="#fff"/>
      <path id="Path_968" data-name="Path 968" d="M360.654,563.841l-15.062-8.7,15.061-8.7,15.061,8.7Z" fill="#74b2e0"/>
      <path id="Path_969" data-name="Path 969" d="M331.975,547.478l-15.062-8.7,15.061-8.7,15.061,8.7Z" fill="#74b2e0"/>
      <path id="Path_970" data-name="Path 970" d="M389.333,546.372l-15.062-8.7,15.061-8.7,15.061,8.7Z" fill="#74b2e0"/>
      <path id="Path_971" data-name="Path 971" d="M360.654,500.327l-22.079-12.747v25.494l22.079,12.747,22.079-12.747V487.579Z" fill="#a6d6ed"/>
      <path id="Path_972" data-name="Path 972" d="M360.654,525.821l-22.079-12.747V487.579l22.079,12.747Z" fill="#a6d6ed"/>
      <path id="Path_973" data-name="Path 973" d="M382.733,513.073l-22.079,12.747V500.327l22.079-12.747Z" fill="#74b2e0"/>
      <path id="Path_974" data-name="Path 974" d="M360.654,500.327l-22.079-12.747,22.078-12.747,22.079,12.747Z" fill="#a6d6ed"/>
      <path id="Path_975" data-name="Path 975" d="M360.654,500.327l-21.122-12.195-.958.553,22.079,12.747,22.078-12.747-.958-.553Z" fill="#fff"/>
      <path id="Path_976" data-name="Path 976" d="M389.333,516.691l-22.079-12.748v25.494l22.079,12.747,22.079-12.747V503.943Z" fill="#a6d6ed"/>
      <path id="Path_977" data-name="Path 977" d="M389.333,542.185l-22.079-12.747V503.943l22.079,12.747Z" fill="#a6d6ed"/>
      <path id="Path_978" data-name="Path 978" d="M411.412,529.437l-22.079,12.747V516.69l22.079-12.747Z" fill="#74b2e0"/>
      <path id="Path_979" data-name="Path 979" d="M389.333,516.69l-22.079-12.747L389.332,491.2l22.079,12.747Z" fill="#a6d6ed"/>
      <path id="Path_980" data-name="Path 980" d="M389.333,516.691,368.211,504.5l-.958.553L389.333,517.8l22.079-12.747v-1.106Z" fill="#fff"/>
      <path id="Path_981" data-name="Path 981" d="M331.974,517.8,309.9,505.049v25.494l22.079,12.747,22.079-12.747V505.049Z" fill="#a6d6ed"/>
      <path id="Path_982" data-name="Path 982" d="M331.974,543.291,309.9,530.543V505.049L331.974,517.8Z" fill="#a6d6ed"/>
      <path id="Path_983" data-name="Path 983" d="M354.053,530.543l-22.079,12.747V517.8l22.079-12.747Z" fill="#74b2e0"/>
      <path id="Path_984" data-name="Path 984" d="M331.974,517.8,309.9,505.049,331.974,492.3l22.079,12.747Z" fill="#a6d6ed"/>
      <path id="Path_985" data-name="Path 985" d="M331.974,517.8,309.9,505.049v1.106L331.974,518.9l22.078-12.747-.958-.553Z" fill="#fff"/>
      <path id="Path_986" data-name="Path 986" d="M360.654,534.16l-22.079-12.748v25.494l22.079,12.747,22.079-12.747V521.413Z" fill="#a6d6ed"/>
      <path id="Path_987" data-name="Path 987" d="M360.654,559.654l-22.079-12.747V521.413l22.079,12.747Z" fill="#a6d6ed"/>
      <path id="Path_988" data-name="Path 988" d="M382.733,546.907l-22.079,12.747V534.16l22.079-12.747Z" fill="#74b2e0"/>
      <path id="Path_989" data-name="Path 989" d="M360.654,534.16l-22.079-12.747,22.078-12.747,22.079,12.747Z" fill="#a6d6ed"/>
      <path id="Path_990" data-name="Path 990" d="M360.654,534.16l-22.079-12.748v1.106l22.079,12.748,22.079-12.747v-1.106Z" fill="#fff"/>
    </g>
    <line id="Line_35" data-name="Line 35" y2="82.34" transform="translate(437.043 490.164)" fill="none" stroke="#4ddebe" stroke-miterlimit="10" stroke-width="1"/>
    <line id="Line_36" data-name="Line 36" y2="82.34" transform="translate(284.264 490.317)" fill="none" stroke="#4ddebe" stroke-miterlimit="10" stroke-width="1"/>
    <path id="Path_991" data-name="Path 991" d="M360.257,534.513a11.975,11.975,0,0,1-5.873-1.35l-68.131-39.335a4.167,4.167,0,0,1-2.4-3.511c0-1.641,1.223-3.288,3.356-4.521l66.221-38.231c3.983-2.3,10.038-2.547,13.495-.551l68.131,39.335a4.168,4.168,0,0,1,2.4,3.512c0,1.64-1.224,3.287-3.357,4.52l-66.221,38.232A15.667,15.667,0,0,1,360.257,534.513Zm.792-88.441a15.226,15.226,0,0,0-7.414,1.852l-66.221,38.232c-2,1.155-3.15,2.672-3.15,4.161a3.775,3.775,0,0,0,2.2,3.152L354.591,532.8c3.343,1.932,9.211,1.684,13.082-.551l66.22-38.232c2-1.155,3.15-2.672,3.15-4.16a3.774,3.774,0,0,0-2.2-3.152l-68.131-39.335A11.548,11.548,0,0,0,361.049,446.072Z" fill="none" stroke="#4ddebe" stroke-miterlimit="10" stroke-width="1"/>
  </g>
</svg>
