<svg xmlns="http://www.w3.org/2000/svg" xmlns:xlink="http://www.w3.org/1999/xlink" width="153.647" height="171.122" viewBox="0 0 153.647 171.122">
  <defs>
    <clipPath id="clip-path">
      <path id="Path_833" data-name="Path 833" d="M1051.255,579.668l-2.767-123.533,79.381,30.472,2.767,123.533Z" fill="none"/>
    </clipPath>
  </defs>
  <g id="Group_444" data-name="Group 444" transform="translate(-1016.301 -444.758)">
    <path id="Path_826" data-name="Path 826" d="M1092.731,615.38a11.9,11.9,0,0,1-5.837-1.342l-67.705-39.089a4.141,4.141,0,0,1-2.388-3.49c0-1.63,1.216-3.267,3.336-4.492l65.807-37.993c3.958-2.285,9.975-2.53,13.41-.547l67.706,39.09a4.14,4.14,0,0,1,2.388,3.489c0,1.63-1.216,3.267-3.336,4.492l-65.807,37.993A15.566,15.566,0,0,1,1092.731,615.38Zm.786-87.889a15.139,15.139,0,0,0-7.368,1.84l-65.807,37.993c-1.989,1.148-3.13,2.656-3.13,4.135a3.749,3.749,0,0,0,2.182,3.132l67.705,39.09c3.323,1.921,9.154,1.674,13-.547l65.807-37.993c1.989-1.148,3.13-2.655,3.13-4.135a3.751,3.751,0,0,0-2.182-3.132l-67.706-39.09A11.492,11.492,0,0,0,1093.517,527.491Z" fill="none" stroke="#4ddebe" stroke-miterlimit="10" stroke-width="1"/>
    <line id="Line_32" data-name="Line 32" y2="81.826" transform="translate(1017.212 489.633)" fill="none" stroke="#4ddebe" stroke-miterlimit="10" stroke-width="1"/>
    <g id="Group_443" data-name="Group 443">
      <path id="Path_827" data-name="Path 827" d="M1089.559,471.081h12.087l38.536,41.554.929,58.555-11.375,8.07-40.177-106.554" fill="#455094"/>
      <g id="Group_442" data-name="Group 442">
        <g id="Group_441" data-name="Group 441">
          <g id="Group_440" data-name="Group 440" style="isolation: isolate">
            <g id="Group_439" data-name="Group 439" clip-path="url(#clip-path)">
              <g id="Group_438" data-name="Group 438">
                <g id="Group_437" data-name="Group 437">
                  <g id="Group_436" data-name="Group 436">
                    <g id="Group_435" data-name="Group 435">
                      <path id="Path_828" data-name="Path 828" d="M1111.222,572.831a1.1,1.1,0,0,1-.573-.962l-1.209-53.986a1.276,1.276,0,0,0-.272-.741l-5.861-7.076a1.1,1.1,0,0,1-.195-1.1l1.748-3.288a.349.349,0,0,1,.461-.175.757.757,0,0,1,.295.226l13.945,16.856a1.231,1.231,0,0,1,.272.732l.125,5.551c.009.441-.249.65-.537.539a.724.724,0,0,1-.3-.231l-4.164-5.036a.741.741,0,0,0-.293-.224c-.29-.111-.551.1-.541.541l1.04,46.451a.546.546,0,0,1-.261.544l-3.412,1.384a.368.368,0,0,1-.271-.006m-42.484-44.4c.109.042.215-.022.207-.213l-1.069-34.439a.558.558,0,0,1,.261-.552l3.387-1.378a.376.376,0,0,1,.274.006,1.092,1.092,0,0,1,.57.955l2.149,68.733c.015.444-.243.661-.534.549a.735.735,0,0,1-.281-.209l-2.657-3.045a1.244,1.244,0,0,1-.262-.538l-7.5-34.182a.373.373,0,0,0-.2-.282c-.107-.041-.213.02-.213.205l.268,24.471c.005.427-.25.632-.536.522a.744.744,0,0,1-.279-.207l-2.7-3.092a1.249,1.249,0,0,1-.291-.756l-1.06-47.3a.541.541,0,0,1,.262-.544l2.337-.945a.362.362,0,0,1,.274.005,1.015,1.015,0,0,1,.54.737l6.847,31.211a.384.384,0,0,0,.208.29m13.621,43.272a.724.724,0,0,1-.278-.208l-3.533-4.05a1.24,1.24,0,0,1-.291-.756l-1.7-76.016a.521.521,0,0,1,.263-.535l11.39-4.693a.357.357,0,0,1,.278,0,.725.725,0,0,1,.282.214l13.353,15.769a1.113,1.113,0,0,1,.208,1.1l-1.7,3.337a.35.35,0,0,1-.466.182.717.717,0,0,1-.284-.213l-10.989-12.978a.73.73,0,0,0-.287-.216.389.389,0,0,0-.278-.009l-6.846,2.826a.538.538,0,0,0-.262.544l.667,29.781a1.1,1.1,0,0,0,.57.963l16.973,6.515a1.1,1.1,0,0,1,.57.962l.123,5.485c.009.416-.229.656-.537.538l-16.972-6.516c-.307-.117-.546.13-.536.538l.826,36.891c.01.436-.248.651-.537.54m5.954-94.315L1053.339,491.6l1.249,55.753,36.223,41.537,34.967-14.21-1.249-55.753-36.216-41.534" fill="#dceff8"/>
                      <path id="Path_829" data-name="Path 829" d="M1090.811,588.886l-36.223-41.537-1.249-55.753,34.974-14.207,36.216,41.534,1.249,55.753-34.967,14.21m-2.633-117.515a1.291,1.291,0,0,0-.938-.022L1050.1,486.438a1.84,1.84,0,0,0-.9,1.862l1.326,59.2a4.207,4.207,0,0,0,1,2.58l38.461,44.115a2.544,2.544,0,0,0,.954.705,1.294,1.294,0,0,0,.939.022l37.135-15.1a1.831,1.831,0,0,0,.9-1.854l-1.326-59.2a4.273,4.273,0,0,0-1-2.588l-38.461-44.107a2.535,2.535,0,0,0-.954-.7" fill="#74b0de"/>
                      <path id="Path_830" data-name="Path 830" d="M1071.8,491.856a.376.376,0,0,0-.274-.006l-3.387,1.378a.558.558,0,0,0-.261.552l1.069,34.439c.008.191-.1.255-.207.213a.384.384,0,0,1-.208-.29l-6.847-31.211a1.015,1.015,0,0,0-.54-.737.362.362,0,0,0-.274-.005l-2.337.945a.541.541,0,0,0-.262.544l1.06,47.3a1.249,1.249,0,0,0,.291.756l2.7,3.092a.744.744,0,0,0,.279.207c.286.11.541-.095.536-.522l-.268-24.471c0-.185.106-.246.213-.205a.373.373,0,0,1,.2.282l7.5,34.182a1.244,1.244,0,0,0,.262.538l2.657,3.045a.735.735,0,0,0,.281.209c.291.112.549-.105.534-.549l-2.149-68.733a1.092,1.092,0,0,0-.57-.955" fill="#455094"/>
                      <path id="Path_831" data-name="Path 831" d="M1088.485,485.447a.357.357,0,0,0-.278,0l-11.39,4.693a.521.521,0,0,0-.263.535l1.7,76.016a1.24,1.24,0,0,0,.291.756l3.533,4.05a.724.724,0,0,0,.278.208c.289.111.547-.1.537-.54l-.826-36.891c-.01-.408.229-.655.536-.538l16.972,6.516c.308.118.546-.122.537-.538l-.123-5.485a1.1,1.1,0,0,0-.57-.962l-16.973-6.515a1.1,1.1,0,0,1-.57-.963l-.667-29.781a.538.538,0,0,1,.262-.544l6.846-2.826a.389.389,0,0,1,.278.009.73.73,0,0,1,.287.216l10.989,12.978a.717.717,0,0,0,.284.213.35.35,0,0,0,.466-.182l1.7-3.337a1.113,1.113,0,0,0-.208-1.1l-13.353-15.769a.725.725,0,0,0-.282-.214" fill="#455094"/>
                      <path id="Path_832" data-name="Path 832" d="M1105.321,505.5a.349.349,0,0,0-.461.175l-1.748,3.288a1.1,1.1,0,0,0,.195,1.1l5.861,7.076a1.276,1.276,0,0,1,.272.741l1.209,53.986a1.1,1.1,0,0,0,.573.962.368.368,0,0,0,.271.006l3.412-1.384a.546.546,0,0,0,.261-.544l-1.04-46.451c-.01-.443.251-.652.541-.541a.741.741,0,0,1,.293.224l4.164,5.036a.724.724,0,0,0,.3.231c.288.111.546-.1.537-.539l-.125-5.551a1.231,1.231,0,0,0-.272-.732l-13.945-16.856a.757.757,0,0,0-.295-.226" fill="#455094"/>
                    </g>
                  </g>
                </g>
              </g>
            </g>
          </g>
        </g>
      </g>
    </g>
    <path id="Path_834" data-name="Path 834" d="M1092.731,533.553a11.9,11.9,0,0,1-5.837-1.341l-67.705-39.089a4.142,4.142,0,0,1-2.388-3.49c0-1.63,1.216-3.267,3.336-4.492l65.807-37.993c3.958-2.285,9.975-2.53,13.41-.547l67.706,39.089a4.142,4.142,0,0,1,2.388,3.49c0,1.63-1.216,3.267-3.336,4.492l-65.807,37.993A15.575,15.575,0,0,1,1092.731,533.553Zm.786-87.888a15.138,15.138,0,0,0-7.368,1.84L1020.342,485.5c-1.989,1.148-3.13,2.656-3.13,4.135a3.751,3.751,0,0,0,2.182,3.132l67.705,39.09c3.323,1.92,9.154,1.674,13-.547l65.807-37.993c1.989-1.148,3.13-2.656,3.13-4.135a3.749,3.749,0,0,0-2.182-3.132l-67.706-39.09A11.481,11.481,0,0,0,1093.517,445.665Z" fill="none" stroke="#4ddebe" stroke-miterlimit="10" stroke-width="1"/>
  </g>
</svg>
