<svg xmlns="http://www.w3.org/2000/svg" xmlns:xlink="http://www.w3.org/1999/xlink" width="153.648" height="171.122" viewBox="0 0 153.648 171.122">
  <defs>
    <linearGradient id="linear-gradient" y1="0.5" x2="1" y2="0.5" gradientUnits="objectBoundingBox">
      <stop offset="0" stop-color="#b6dcf2"/>
      <stop offset="0.097" stop-color="#a7c9e5"/>
      <stop offset="0.398" stop-color="#7d95c2"/>
      <stop offset="0.659" stop-color="#5e6fa9"/>
      <stop offset="0.869" stop-color="#4b5899"/>
      <stop offset="1" stop-color="#455094"/>
    </linearGradient>
    <linearGradient id="linear-gradient-2" y1="0.5" x2="1" y2="0.5" gradientUnits="objectBoundingBox">
      <stop offset="0" stop-color="#dbeff8"/>
      <stop offset="0.175" stop-color="#b7c9e0"/>
      <stop offset="0.445" stop-color="#8695bf"/>
      <stop offset="0.681" stop-color="#626fa7"/>
      <stop offset="0.87" stop-color="#4d5899"/>
      <stop offset="0.988" stop-color="#455094"/>
    </linearGradient>
    <linearGradient id="linear-gradient-3" x1="-0.221" y1="0.5" x2="0.779" y2="0.5" gradientUnits="objectBoundingBox">
      <stop offset="0" stop-color="#dbeff8"/>
      <stop offset="0.177" stop-color="#b7c9e0"/>
      <stop offset="0.451" stop-color="#8695bf"/>
      <stop offset="0.689" stop-color="#626fa7"/>
      <stop offset="0.88" stop-color="#4d5899"/>
      <stop offset="1" stop-color="#455094"/>
    </linearGradient>
    <linearGradient id="linear-gradient-4" y1="0.5" x2="1" y2="0.5" gradientUnits="objectBoundingBox">
      <stop offset="0" stop-color="#85b8e4"/>
      <stop offset="0.255" stop-color="#6f95c9"/>
      <stop offset="0.578" stop-color="#586fac"/>
      <stop offset="0.837" stop-color="#4a589a"/>
      <stop offset="1" stop-color="#455094"/>
    </linearGradient>
    <linearGradient id="linear-gradient-5" x1="0" y1="0.5" x2="1" y2="0.5" xlink:href="#linear-gradient-3"/>
  </defs>
  <g id="Group_434" data-name="Group 434" transform="translate(-527.987 -444.758)">
    <line id="Line_29" data-name="Line 29" y2="81.826" transform="translate(528.899 488.912)" fill="none" stroke="#4ddebe" stroke-miterlimit="10" stroke-width="1"/>
    <path id="Path_804" data-name="Path 804" d="M604.417,615.38a11.9,11.9,0,0,1-5.836-1.342l-67.706-39.089a4.143,4.143,0,0,1-2.388-3.49c0-1.63,1.216-3.267,3.336-4.492l65.807-37.993c3.958-2.285,9.976-2.53,13.411-.547l67.706,39.09a4.14,4.14,0,0,1,2.388,3.489c0,1.63-1.216,3.267-3.336,4.492l-65.807,37.993A15.566,15.566,0,0,1,604.417,615.38Zm.787-87.889a15.136,15.136,0,0,0-7.368,1.84l-65.807,37.993c-1.989,1.148-3.13,2.656-3.13,4.135a3.749,3.749,0,0,0,2.182,3.132l67.705,39.09c3.323,1.921,9.154,1.674,13-.547l65.807-37.993c1.99-1.148,3.13-2.655,3.13-4.135a3.751,3.751,0,0,0-2.182-3.132l-67.705-39.09A11.494,11.494,0,0,0,605.2,527.491Z" fill="none" stroke="#4ddebe" stroke-miterlimit="10" stroke-width="1"/>
    <path id="Path_805" data-name="Path 805" d="M663.458,568.264V559.09H639.789l-27.983-16.157c-3.735-2.156-10.258-1.885-14.571.6L570.3,559.09H546.612v9.694h.02c-.107,1.459.707,2.868,2.5,3.9l49.149,28.376c3.735,2.156,10.259,1.886,14.571-.6l47.056-27.167C662.4,571.856,663.6,570,663.458,568.264Z" fill="#313087"/>
    <path id="Path_806" data-name="Path 806" d="M663.458,568.264V559.09H639.789l-27.983-16.157c-3.735-2.156-10.258-1.885-14.571.6L570.3,559.09H546.612v9.694h.02c-.107,1.459.707,2.868,2.5,3.9l49.149,28.376c3.735,2.156,10.259,1.886,14.571-.6l47.056-27.167C662.4,571.856,663.6,570,663.458,568.264Z" fill="#455094"/>
    <path id="Path_807" data-name="Path 807" d="M611.806,542.933a13.194,13.194,0,0,0-6.765-1.444v61.02a16.809,16.809,0,0,0,7.813-2.049l47.056-27.167c2.487-1.437,3.687-3.3,3.548-5.029V559.09H639.789Z" fill="#455094"/>
    <path id="Path_808" data-name="Path 808" d="M598.283,591.37l-49.149-28.377c-3.735-2.156-3.267-5.922,1.046-8.412l47.055-27.168c4.313-2.49,10.836-2.76,14.571-.6l49.15,28.377c3.734,2.156,3.266,5.922-1.046,8.412l-47.056,27.168C608.542,593.255,602.018,593.526,598.283,591.37Z" fill="#313087"/>
    <path id="Path_809" data-name="Path 809" d="M598.283,591.37l-49.149-28.377c-3.735-2.156-3.267-5.922,1.046-8.412l47.055-27.168c4.313-2.49,10.836-2.76,14.571-.6l49.15,28.377c3.734,2.156,3.266,5.922-1.046,8.412l-47.056,27.168C608.542,593.255,602.018,593.526,598.283,591.37Z" opacity="0.5" fill="url(#linear-gradient)"/>
    <path id="Path_810" data-name="Path 810" d="M599.6,585.1,560,562.235c-3.009-1.738-2.632-4.772.843-6.778l37.913-21.889c3.474-2.006,8.73-2.224,11.739-.487l39.6,22.863c3.01,1.738,2.632,4.772-.842,6.778l-37.913,21.889C607.862,586.617,602.606,586.835,599.6,585.1Z" fill="#b6dcf2"/>
    <path id="Path_811" data-name="Path 811" d="M560.84,558.423l37.913-21.89c3.474-2.005,8.73-2.223,11.739-.486l39.6,22.863a4.414,4.414,0,0,1,1.613,1.49c.873-1.605.369-3.312-1.613-4.456l-39.6-22.863c-3.009-1.737-8.265-1.519-11.739.487L560.84,555.457c-2.617,1.51-3.475,3.6-2.455,5.288A6.287,6.287,0,0,1,560.84,558.423Z" fill="#85b8e4"/>
    <path id="Path_812" data-name="Path 812" d="M599.934,591.37l-49.15-28.377c-3.735-2.156-4.627-5.323,1.046-8.412l47.056-27.168a16.673,16.673,0,0,1,7.372-2.035,17.1,17.1,0,0,0-9.023,2.035L550.18,554.581c-4.312,2.49-4.781,6.256-1.046,8.412l49.149,28.377a13.475,13.475,0,0,0,7.2,1.431A12.37,12.37,0,0,1,599.934,591.37Z" opacity="0.5" fill="url(#linear-gradient-2)"/>
    <path id="Path_813" data-name="Path 813" d="M600.772,579.561l-31.064-17.935c-2.36-1.362-2.064-3.743.662-5.316l29.739-17.171c2.726-1.573,6.849-1.744,9.209-.381l31.063,17.934c2.36,1.363,2.064,3.743-.661,5.317l-29.74,17.17C607.255,580.752,603.132,580.923,600.772,579.561Z" fill="#455094"/>
    <path id="Path_814" data-name="Path 814" d="M604.3,525.371a16.794,16.794,0,0,0-7.8,2.04L586.33,533.28l-40.458.18v25.627h.019c-.106,1.459.708,2.868,2.5,3.9l49.15,28.376A13.187,13.187,0,0,0,604.3,592.8Z" fill="#b6dcf2" opacity="0.5"/>
    <path id="Path_815" data-name="Path 815" d="M663.462,559.159a3.326,3.326,0,0,0,0-.519V533.012l-40.715.181-10.936-6.314c-3.735-2.156-10.258-1.886-14.571.6l-10.165,5.869-40.458.18v25.627h.019c-.106,1.459.708,2.868,2.5,3.9l49.15,28.376c3.735,2.157,10.258,1.886,14.571-.6l47.055-27.167c2.241-1.294,3.433-2.931,3.548-4.509Z" fill="#b6dcf2" opacity="0.5"/>
    <path id="Path_816" data-name="Path 816" d="M663.458,532.943v-9.175H639.789l-27.983-16.157c-3.735-2.156-10.258-1.885-14.571.6L570.3,523.768H546.612v9.694h.02c-.107,1.459.707,2.868,2.5,3.9l49.149,28.376c3.735,2.157,10.259,1.886,14.571-.6l47.056-27.167C662.4,536.534,663.6,534.674,663.458,532.943Z" fill="#313087"/>
    <path id="Path_817" data-name="Path 817" d="M663.458,532.943v-9.175H639.789l-27.983-16.157c-3.735-2.156-10.258-1.885-14.571.6L570.3,523.768H546.612v9.694h.02c-.107,1.459.707,2.868,2.5,3.9l49.149,28.376c3.735,2.157,10.259,1.886,14.571-.6l47.056-27.167C662.4,536.534,663.6,534.674,663.458,532.943Z" opacity="0.5" fill="url(#linear-gradient-3)"/>
    <path id="Path_818" data-name="Path 818" d="M611.806,507.614a13.194,13.194,0,0,0-6.765-1.444v61.02a16.809,16.809,0,0,0,7.813-2.049l47.056-27.168c2.487-1.436,3.687-3.3,3.548-5.028V523.77H639.789Z" fill="#455094"/>
    <path id="Path_819" data-name="Path 819" d="M598.283,556.048l-49.149-28.377c-3.735-2.156-3.267-5.922,1.046-8.412l47.055-27.168c4.313-2.489,10.836-2.76,14.571-.6l49.15,28.377c3.734,2.156,3.266,5.922-1.046,8.412l-47.056,27.168C608.542,557.934,602.018,558.2,598.283,556.048Z" fill="#313087"/>
    <path id="Path_820" data-name="Path 820" d="M598.283,556.048l-49.149-28.377c-3.735-2.156-3.267-5.922,1.046-8.412l47.055-27.168c4.313-2.489,10.836-2.76,14.571-.6l49.15,28.377c3.734,2.156,3.266,5.922-1.046,8.412l-47.056,27.168C608.542,557.934,602.018,558.2,598.283,556.048Z" opacity="0.5" fill="url(#linear-gradient-4)"/>
    <path id="Path_821" data-name="Path 821" d="M599.934,556.048l-49.15-28.377c-3.735-2.156-4.627-5.323,1.046-8.412l47.056-27.168a16.673,16.673,0,0,1,7.372-2.035,17.1,17.1,0,0,0-9.023,2.035L550.18,519.259c-4.312,2.49-4.781,6.256-1.046,8.412l49.149,28.377a13.457,13.457,0,0,0,7.2,1.431A12.369,12.369,0,0,1,599.934,556.048Z" opacity="0.5" fill="url(#linear-gradient-5)"/>
    <g id="Group_433" data-name="Group 433">
      <path id="Path_822" data-name="Path 822" d="M601.136,525.822a1.126,1.126,0,0,1,0,2.134,4.086,4.086,0,0,1-3.7,0,1.126,1.126,0,0,1,0-2.134A4.08,4.08,0,0,1,601.136,525.822Z" fill="#dbeff8" opacity="0.2"/>
      <path id="Path_823" data-name="Path 823" d="M606.893,522.5a1.126,1.126,0,0,1,0,2.134,4.086,4.086,0,0,1-3.7,0,1.126,1.126,0,0,1,0-2.134A4.086,4.086,0,0,1,606.893,522.5Z" fill="#dbeff8" opacity="0.6"/>
      <path id="Path_824" data-name="Path 824" d="M612.649,519.175a1.126,1.126,0,0,1,0,2.134,4.086,4.086,0,0,1-3.7,0,1.126,1.126,0,0,1,0-2.134A4.08,4.08,0,0,1,612.649,519.175Z" fill="#dbeff8"/>
    </g>
    <line id="Line_30" data-name="Line 30" y2="81.826" transform="translate(680.723 489.18)" fill="none" stroke="#4ddebe" stroke-miterlimit="10" stroke-width="1"/>
    <path id="Path_825" data-name="Path 825" d="M604.417,533.553a11.9,11.9,0,0,1-5.836-1.341l-67.706-39.089a4.144,4.144,0,0,1-2.388-3.49c0-1.63,1.216-3.267,3.336-4.492l65.807-37.993c3.958-2.285,9.976-2.53,13.411-.547l67.706,39.089a4.142,4.142,0,0,1,2.388,3.49c0,1.63-1.216,3.267-3.336,4.492l-65.807,37.993A15.576,15.576,0,0,1,604.417,533.553Zm.787-87.888a15.136,15.136,0,0,0-7.368,1.84L532.029,485.5c-1.989,1.148-3.13,2.656-3.13,4.135a3.751,3.751,0,0,0,2.182,3.132l67.705,39.09c3.323,1.92,9.154,1.674,13-.547l65.807-37.993c1.99-1.148,3.13-2.656,3.13-4.135a3.749,3.749,0,0,0-2.182-3.132l-67.705-39.09A11.483,11.483,0,0,0,605.2,445.665Z" fill="none" stroke="#4ddebe" stroke-miterlimit="10" stroke-width="1"/>
  </g>
</svg>
