<svg xmlns="http://www.w3.org/2000/svg" width="147.255" height="163.997" viewBox="0 0 147.255 163.997">
  <g id="Group_432" data-name="Group 432" transform="translate(-1517.506 -444.758)">
    <path id="Path_797" data-name="Path 797" d="M1590.756,608.255a11.4,11.4,0,0,1-5.592-1.285l-64.87-37.452a3.969,3.969,0,0,1-2.288-3.344c0-1.562,1.165-3.13,3.2-4.3l63.051-36.4c3.792-2.189,9.557-2.424,12.849-.524l64.87,37.453a3.966,3.966,0,0,1,2.288,3.343c0,1.562-1.165,3.13-3.2,4.3l-63.051,36.4A14.922,14.922,0,0,1,1590.756,608.255Zm.754-84.207a14.49,14.49,0,0,0-7.059,1.763l-63.052,36.4c-1.905,1.1-3,2.544-3,3.961a3.592,3.592,0,0,0,2.09,3l64.87,37.453c3.184,1.84,8.77,1.6,12.456-.524l63.051-36.4c1.906-1.1,3-2.544,3-3.962a3.592,3.592,0,0,0-2.091-3l-64.87-37.453A11.008,11.008,0,0,0,1591.51,524.048Z" fill="none" stroke="#4ddebe" stroke-miterlimit="10" stroke-width="1"/>
    <g id="Group_431" data-name="Group 431">
      <path id="Path_798" data-name="Path 798" d="M1640.4,525.781,1600.845,483.3l-39.559-3.2s-6.357,53.626,39.559,110.5C1646.762,586.749,1640.4,525.781,1640.4,525.781Z" fill="#455094"/>
      <path id="Path_799" data-name="Path 799" d="M1561.286,480.1l-8.9,5.139,39.559,3.2,8.9-5.139Z" fill="#85b8e4"/>
      <path id="Path_800" data-name="Path 800" d="M1631.5,530.92l-39.559-42.478-16.265-1.644-23.293-1.557s-6.358,53.627,39.558,110.506C1637.861,591.888,1631.5,530.92,1631.5,530.92Z" fill="#74b2e0"/>
      <path id="Path_801" data-name="Path 801" d="M1631.5,530.92l-39.559-42.478-39.558-3.2,1.118-.645,40.085,3.243,39.559,42.478s5.307,50.966-28.887,62.645C1636.638,580.235,1631.5,530.92,1631.5,530.92Z" fill="#fff"/>
      <path id="Path_802" data-name="Path 802" d="M1626.7,531.579l-35.567-38.191-14.625-1.478-20.942-1.4s-5.716,48.215,35.567,99.355C1632.417,586.4,1626.7,531.579,1626.7,531.579Z" fill="#dbeff8"/>
      <g id="Group_430" data-name="Group 430">
        <rect id="Rectangle_51" data-name="Rectangle 51" width="8.098" height="8.098" transform="translate(1566.122 509.904) rotate(45)" fill="#fff"/>
        <rect id="Rectangle_52" data-name="Rectangle 52" width="8.098" height="8.098" transform="matrix(0.707, 0.707, -0.707, 0.707, 1586.808, 509.832)" fill="#fff"/>
        <rect id="Rectangle_53" data-name="Rectangle 53" width="8.098" height="8.098" transform="translate(1576.501 499.525) rotate(45)" fill="#fff"/>
        <rect id="Rectangle_54" data-name="Rectangle 54" width="8.098" height="8.098" transform="matrix(0.707, 0.707, -0.707, 0.707, 1576.429, 520.211)" fill="#fff"/>
      </g>
    </g>
    <line id="Line_27" data-name="Line 27" y2="78.4" transform="translate(1663.867 487.34)" fill="none" stroke="#4ddebe" stroke-miterlimit="10" stroke-width="1"/>
    <line id="Line_28" data-name="Line 28" y2="78.4" transform="translate(1518.401 487.775)" fill="none" stroke="#4ddebe" stroke-miterlimit="10" stroke-width="1"/>
    <path id="Path_803" data-name="Path 803" d="M1590.756,529.856a11.41,11.41,0,0,1-5.592-1.285l-64.87-37.453a3.969,3.969,0,0,1-2.288-3.343c0-1.562,1.165-3.131,3.2-4.3l63.051-36.4c3.792-2.189,9.557-2.425,12.849-.524L1661.973,484a3.967,3.967,0,0,1,2.288,3.343c0,1.562-1.165,3.131-3.2,4.3l-63.051,36.4A14.913,14.913,0,0,1,1590.756,529.856Zm.754-84.208a14.5,14.5,0,0,0-7.059,1.763l-63.052,36.4c-1.905,1.1-3,2.544-3,3.962a3.594,3.594,0,0,0,2.09,3l64.87,37.452c3.184,1.841,8.77,1.6,12.456-.524l63.051-36.4c1.906-1.1,3-2.544,3-3.962a3.593,3.593,0,0,0-2.091-3l-64.87-37.452A11.008,11.008,0,0,0,1591.51,445.648Z" fill="none" stroke="#4ddebe" stroke-miterlimit="10" stroke-width="1"/>
  </g>
</svg>
